<svg width="131" height="131" viewBox="0 0 131 131" fill="none" xmlns="http://www.w3.org/2000/svg">
<g filter="url(#filter0_d_354_348)">
<circle cx="65.5" cy="61.5" r="61.5" fill="#F8F8F8"/>
<circle cx="65.5" cy="61.5" r="61" stroke="#03A679" stroke-opacity="0.39"/>
<path d="M80.1429 34.5149C80.1429 35.9842 80.1429 37.3688 80.1429 38.7534C80.1429 39.8949 80.1295 41.0343 80.1474 42.1758C80.183 44.3475 81.5475 45.7075 83.7125 45.7187C86.2141 45.732 88.7157 45.7209 91.3221 45.7209C91.3377 46.0531 91.3645 46.3452 91.3645 46.6373C91.3645 64.6926 91.3645 82.7502 91.3645 100.806C91.3645 102.366 90.9431 102.785 89.3868 102.785C73.1419 102.785 56.8948 102.785 40.6499 102.785C39.0914 102.785 38.6722 102.366 38.6722 100.808C38.6722 79.3567 38.6722 57.9057 38.6722 36.4569C38.6722 34.9474 39.1026 34.5171 40.6031 34.5171C53.4835 34.5171 66.3639 34.5171 79.2421 34.5171H80.1451L80.1429 34.5149ZM57.5503 76.3356C57.6172 76.4493 57.7041 76.7882 57.8535 76.8172C58.1122 76.8685 58.4578 76.8016 58.6829 76.6567C60.558 75.4594 62.4264 74.2531 64.2659 73.0046C64.8077 72.6367 65.2112 72.6166 65.7597 72.9867C67.5768 74.2197 69.4185 75.4148 71.2735 76.592C71.5366 76.7592 71.9156 76.7414 72.2412 76.8083C72.2791 76.4761 72.4151 76.1193 72.337 75.8161C71.7997 73.718 71.2512 71.62 70.6336 69.5442C70.4218 68.833 70.5935 68.4272 71.1554 67.9924C72.8922 66.648 74.5979 65.2611 76.2901 63.8587C76.5042 63.6826 76.5599 63.3147 76.6892 63.036C76.4306 62.9178 76.1764 62.7127 75.9111 62.6971C73.6904 62.5633 71.4675 62.4496 69.2446 62.3671C68.6047 62.3426 68.2457 62.1241 68.0183 61.4931C67.2781 59.4285 66.4866 57.3817 65.6794 55.3416C65.5635 55.0473 65.2514 54.8288 65.0284 54.5746C64.8032 54.8221 64.4821 55.0317 64.3662 55.3238C63.597 57.2591 62.8345 59.1988 62.1522 61.1654C61.8557 62.0215 61.4164 62.3805 60.48 62.3939C58.3953 62.4229 56.3129 62.5611 54.2304 62.6949C53.9227 62.7149 53.6307 62.958 53.3319 63.0984C53.5058 63.386 53.6195 63.7472 53.8648 63.9501C55.3831 65.2099 56.8881 66.5008 58.489 67.6491C59.441 68.3313 59.6328 68.989 59.2716 70.0949C58.6183 72.0993 58.1389 74.1595 57.5503 76.3356ZM64.9838 82.7903C71.1286 82.7903 77.2734 82.7903 83.4182 82.7903C83.7236 82.7903 84.0335 82.8059 84.3345 82.7613C84.9945 82.661 85.3802 82.2463 85.4449 81.593C85.5095 80.942 85.2264 80.4358 84.591 80.2307C84.2587 80.1237 83.8819 80.1148 83.5252 80.1148C71.1799 80.1103 58.8368 80.1103 46.4915 80.1148C46.1615 80.1148 45.8137 80.1125 45.5037 80.2062C44.8304 80.4113 44.516 80.9197 44.5918 81.6108C44.6632 82.2641 45.0578 82.6699 45.7178 82.7635C46.0188 82.8059 46.3287 82.7925 46.6342 82.7925C52.75 82.7925 58.868 82.7925 64.9838 82.7925V82.7903ZM65.0284 92.0654C58.8836 92.0654 52.7388 92.0654 46.5963 92.0654C46.2908 92.0654 45.9809 92.0498 45.6799 92.0967C45.0601 92.1925 44.6855 92.5805 44.5985 93.1981C44.5071 93.8491 44.768 94.3642 45.3878 94.5983C45.7133 94.7209 46.0946 94.741 46.4491 94.741C58.8212 94.7477 71.1932 94.7477 83.5653 94.741C83.8953 94.741 84.2387 94.7276 84.5508 94.634C85.1929 94.4422 85.4962 93.9472 85.4493 93.2984C85.3981 92.6095 85.0012 92.1725 84.2944 92.0878C83.9934 92.0521 83.6835 92.0632 83.378 92.0632C77.2622 92.0632 71.1442 92.0632 65.0284 92.0632V92.0654ZM65.0172 51.3819C71.162 51.3819 77.3068 51.3819 83.4516 51.3819C83.7013 51.3819 83.9533 51.3952 84.203 51.3729C84.9388 51.3038 85.4516 50.7643 85.4627 50.0664C85.4739 49.3707 84.9678 48.8044 84.2431 48.7197C83.9956 48.6907 83.7437 48.7063 83.494 48.7063C71.1776 48.7063 58.8613 48.7063 46.5427 48.7063C46.264 48.7063 45.9787 48.6773 45.7111 48.7309C44.9954 48.8735 44.5718 49.3306 44.5852 50.0686C44.5985 50.8022 45.0266 51.2503 45.7535 51.364C46.0255 51.4064 46.3086 51.3819 46.5851 51.3819C52.7299 51.3819 58.8747 51.3819 65.0195 51.3819H65.0172ZM65.0329 88.7679C71.1776 88.7679 77.3224 88.7679 83.465 88.7679C83.7437 88.7679 84.0246 88.7857 84.2966 88.7456C85.0146 88.6408 85.5162 88.0388 85.4516 87.3476C85.3825 86.6163 84.9588 86.1904 84.2253 86.1013C84.0336 86.079 83.8373 86.0923 83.6411 86.0923C71.2133 86.0923 58.7855 86.0923 46.3577 86.0923C46.1637 86.0923 45.9653 86.079 45.7735 86.1057C45.0824 86.2016 44.6565 86.6029 44.5874 87.2986C44.5183 87.9964 44.8661 88.4847 45.5238 88.6943C45.8047 88.7835 46.128 88.7679 46.4313 88.7679C52.6318 88.7723 58.8323 88.7701 65.0306 88.7701L65.0329 88.7679ZM57.5815 45.4065C58.7766 45.4065 59.9716 45.4065 61.1689 45.4065C63.8378 45.4065 66.5066 45.4132 69.1755 45.3998C70.1186 45.3954 70.6805 44.8937 70.6983 44.1089C70.7161 43.2928 70.1297 42.7644 69.1599 42.7265C69.0484 42.7221 68.9369 42.7265 68.8254 42.7265C61.3741 42.7265 53.925 42.7265 46.4736 42.731C46.1169 42.731 45.7401 42.7466 45.4101 42.8648C44.7814 43.0877 44.516 43.5983 44.5963 44.2493C44.6699 44.8669 45.04 45.2616 45.6598 45.3686C45.9586 45.4199 46.2685 45.4043 46.574 45.4043C50.2439 45.4043 53.9138 45.4043 57.5837 45.4043L57.5815 45.4065ZM82.096 60.2155C82.096 60.9981 82.067 61.6648 82.1027 62.327C82.1495 63.1698 82.727 63.7316 83.4628 63.7183C84.2075 63.7049 84.7314 63.1475 84.7649 62.2824C84.7894 61.6224 84.7693 60.9625 84.7693 60.2155C85.4404 60.2155 86.0157 60.22 86.5931 60.2155C87.6633 60.2066 88.2475 59.7451 88.2631 58.9023C88.2787 58.0283 87.6812 57.5489 86.5619 57.54C85.9911 57.5356 85.4204 57.54 84.7738 57.54C84.7738 56.8711 84.7849 56.3204 84.7693 55.7697C84.7604 55.4665 84.7693 55.1387 84.6601 54.869C84.4126 54.267 83.9221 53.9637 83.2643 54.0596C82.5263 54.1666 82.1473 54.6616 82.1072 55.3751C82.067 56.0796 82.0983 56.7864 82.0983 57.54C81.3335 57.54 80.7248 57.5289 80.1161 57.5422C79.202 57.5623 78.6134 58.0796 78.6 58.8533C78.5844 59.6515 79.202 60.1977 80.1563 60.2133C80.7627 60.2245 81.3692 60.2133 82.096 60.2133V60.2155Z" fill="url(#paint0_linear_354_348)"/>
<path d="M31.1719 48.9113C31.1719 49.6805 31.1897 50.3405 31.1674 51.0004C31.1384 51.8789 30.6301 52.4051 29.8519 52.4073C29.0783 52.4073 28.561 51.8833 28.5008 51.0138C28.4785 50.6816 28.4941 50.3471 28.4941 50.0127C28.4941 49.6827 28.4941 49.3527 28.4941 48.909C27.7628 48.909 27.1051 48.9269 26.4473 48.9046C25.5822 48.8778 25.0159 48.3539 25.0003 47.607C24.9847 46.8757 25.5622 46.2982 26.396 46.2358C26.7283 46.2112 27.0627 46.2268 27.3971 46.2268C27.7249 46.2268 28.0549 46.2268 28.4963 46.2268C28.4963 45.5334 28.4807 44.9024 28.5008 44.2737C28.5298 43.3283 29.1072 42.7018 29.8943 42.733C30.668 42.7643 31.154 43.3417 31.1741 44.2826C31.1875 44.8891 31.1763 45.4955 31.1763 46.2268C31.8474 46.2268 32.4472 46.2179 33.047 46.2268C34.0993 46.2447 34.6835 46.7463 34.6723 47.6003C34.6612 48.423 34.0993 48.8868 33.0804 48.9046C32.4985 48.9135 31.9165 48.9046 31.1741 48.9046L31.1719 48.9113Z" fill="url(#paint1_linear_354_348)"/>
<path d="M98.8604 48.9091C98.0934 48.9091 97.4334 48.9269 96.7735 48.9046C95.8928 48.8756 95.3688 48.3717 95.3644 47.5914C95.3599 46.8155 95.8816 46.2826 96.7534 46.2402C97.4156 46.2068 98.0823 46.2335 98.8626 46.2335C98.8626 45.5044 98.847 44.8445 98.8671 44.1868C98.8938 43.3172 99.4089 42.7531 100.156 42.7331C100.887 42.713 101.467 43.2882 101.531 44.1221C101.558 44.4543 101.54 44.7887 101.54 45.1232C101.54 45.4532 101.54 45.7809 101.54 46.2291C102.229 46.2291 102.858 46.2135 103.487 46.2335C104.434 46.2603 105.061 46.8355 105.034 47.6226C105.007 48.3985 104.43 48.8868 103.489 48.9068C102.883 48.9202 102.276 48.9091 101.54 48.9091C101.54 49.5779 101.549 50.1777 101.54 50.7775C101.52 51.8343 101.025 52.4162 100.169 52.4051C99.3487 52.3962 98.8805 51.8321 98.8648 50.8154C98.8559 50.2334 98.8648 49.6493 98.8648 48.9068L98.8604 48.9091Z" fill="url(#paint2_linear_354_348)"/>
<path d="M49.1848 27.1816C49.1848 27.953 49.2026 28.613 49.1803 29.273C49.1536 30.1336 48.6296 30.6776 47.8649 30.6776C47.1046 30.6776 46.5717 30.1358 46.516 29.2819C46.4937 28.9497 46.5093 28.6152 46.5093 28.283C46.5093 27.953 46.5093 27.623 46.5093 27.1794C46.0477 27.1794 45.642 27.1794 45.2362 27.1794C43.6621 27.1794 42.9954 26.7713 43.0133 25.8215C43.0311 24.8873 43.6933 24.5016 45.2808 24.5016C45.662 24.5016 46.0433 24.5016 46.5093 24.5016C46.5093 23.7904 46.4959 23.1594 46.5115 22.5284C46.536 21.592 47.1135 20.9699 47.9072 21.0011C48.6831 21.0301 49.167 21.6053 49.1848 22.5418C49.1959 23.1482 49.1848 23.7569 49.1848 24.5016C49.8559 24.5016 50.478 24.4949 51.1023 24.5016C52.1011 24.515 52.6697 24.9966 52.6808 25.8215C52.692 26.6621 52.1346 27.1593 51.1424 27.1749C50.5337 27.186 49.925 27.1749 49.1803 27.1749L49.1848 27.1816Z" fill="url(#paint3_linear_354_348)"/>
<path d="M90.0289 28.0109C90.0289 27.2617 90.0133 26.5995 90.0334 25.9396C90.0579 25.0789 90.5841 24.5171 91.3377 24.5082C92.078 24.4992 92.6398 25.07 92.6978 25.9084C92.7201 26.2406 92.7045 26.575 92.7045 26.9094C92.7045 27.2394 92.7045 27.5694 92.7045 28.0086C93.3889 28.0086 94.0177 27.9997 94.6465 28.0109C95.594 28.0287 96.2228 28.595 96.1983 29.3865C96.1737 30.1602 95.5829 30.6641 94.6621 30.6842C94.0779 30.6975 93.4938 30.6998 92.9118 30.7087C92.8873 30.7087 92.8628 30.7288 92.7045 30.7934C92.7045 31.3597 92.7156 31.9863 92.7022 32.6128C92.6799 33.5983 92.1716 34.1846 91.3533 34.1846C90.5306 34.1846 90.0468 33.6139 90.0267 32.6128C90.0156 32.0576 90.0156 31.5002 90.0044 30.945C90.0044 30.8937 89.9665 30.8447 89.9019 30.6842C89.2909 30.6842 88.6332 30.6975 87.9755 30.6819C87.0613 30.6574 86.5106 30.129 86.5285 29.3197C86.5441 28.5482 87.0814 28.0421 87.9576 28.0153C88.6176 27.9953 89.2776 28.0109 90.0267 28.0109H90.0289Z" fill="url(#paint4_linear_354_348)"/>
<path d="M82.8296 34.7912C85.601 37.567 88.301 40.2693 91.0078 42.9783C90.8985 42.9917 90.7001 43.0362 90.5016 43.0362C88.3077 43.0407 86.1115 43.0184 83.9176 43.0496C83.1372 43.0608 82.8095 42.7843 82.8206 41.9861C82.8474 39.6004 82.8296 37.2125 82.8296 34.7889V34.7912Z" fill="url(#paint5_linear_354_348)"/>
</g>
<defs>
<filter id="filter0_d_354_348" x="0" y="0" width="131" height="131" filterUnits="userSpaceOnUse" color-interpolation-filters="sRGB">
<feFlood flood-opacity="0" result="BackgroundImageFix"/>
<feColorMatrix in="SourceAlpha" type="matrix" values="0 0 0 0 0 0 0 0 0 0 0 0 0 0 0 0 0 0 127 0" result="hardAlpha"/>
<feOffset dy="4"/>
<feGaussianBlur stdDeviation="2"/>
<feComposite in2="hardAlpha" operator="out"/>
<feColorMatrix type="matrix" values="0 0 0 0 0 0 0 0 0 0 0 0 0 0 0 0 0 0 0.25 0"/>
<feBlend mode="normal" in2="BackgroundImageFix" result="effect1_dropShadow_354_348"/>
<feBlend mode="normal" in="SourceGraphic" in2="effect1_dropShadow_354_348" result="shape"/>
</filter>
<linearGradient id="paint0_linear_354_348" x1="38.6722" y1="68.6501" x2="91.3645" y2="68.6501" gradientUnits="userSpaceOnUse">
<stop stop-color="#137DA4"/>
<stop offset="1" stop-color="#03A579"/>
</linearGradient>
<linearGradient id="paint1_linear_354_348" x1="25" y1="47.5696" x2="34.6725" y2="47.5696" gradientUnits="userSpaceOnUse">
<stop stop-color="#137DA4"/>
<stop offset="1" stop-color="#03A579"/>
</linearGradient>
<linearGradient id="paint2_linear_354_348" x1="95.3643" y1="47.5689" x2="105.035" y2="47.5689" gradientUnits="userSpaceOnUse">
<stop stop-color="#137DA4"/>
<stop offset="1" stop-color="#03A579"/>
</linearGradient>
<linearGradient id="paint3_linear_354_348" x1="43.0129" y1="25.8388" x2="52.681" y2="25.8388" gradientUnits="userSpaceOnUse">
<stop stop-color="#137DA4"/>
<stop offset="1" stop-color="#03A579"/>
</linearGradient>
<linearGradient id="paint4_linear_354_348" x1="86.528" y1="29.3463" x2="96.199" y2="29.3463" gradientUnits="userSpaceOnUse">
<stop stop-color="#137DA4"/>
<stop offset="1" stop-color="#03A579"/>
</linearGradient>
<linearGradient id="paint5_linear_354_348" x1="82.8204" y1="38.9194" x2="91.0078" y2="38.9194" gradientUnits="userSpaceOnUse">
<stop stop-color="#137DA4"/>
<stop offset="1" stop-color="#03A579"/>
</linearGradient>
</defs>
</svg>
