<svg width="131" height="131" viewBox="0 0 131 131" fill="none" xmlns="http://www.w3.org/2000/svg">
<g filter="url(#filter0_d_354_347)">
<circle cx="65.5" cy="61.5" r="61.5" fill="#F8F8F8"/>
<circle cx="65.5" cy="61.5" r="61" stroke="#03A679" stroke-opacity="0.39"/>
<path fill-rule="evenodd" clip-rule="evenodd" d="M83.2004 23.316L83.2004 23.3165C83.2032 23.4831 83.2061 23.6497 83.2061 23.8162L83.2039 23.8184C83.2039 23.9858 83.2008 24.1534 83.1977 24.321L83.1977 24.3214C83.1907 24.7015 83.1837 25.0812 83.2127 25.4578C83.2632 26.1501 83.6808 26.5589 84.3687 26.6182C85.0917 26.6798 85.6433 26.3391 85.7422 25.6161C85.9071 24.4249 85.9093 23.2118 85.7422 22.0228C85.6433 21.3108 85.0939 20.9416 84.3731 21.0075C83.7006 21.0712 83.2654 21.4778 83.2149 22.1767C83.1874 22.5542 83.1939 22.935 83.2004 23.316ZM84.4962 59.865C83.8819 59.865 83.2677 59.8638 82.6535 59.8625H82.6534H82.6533H82.6532H82.653H82.6529H82.6528H82.6527H82.6525H82.6524C80.9639 59.8591 79.2758 59.8556 77.5888 59.8782C77.0196 59.8848 76.7691 59.7727 76.7339 59.1398C76.5339 55.4191 75.3318 52.0302 73.356 48.8787C68.8486 41.6878 73.2593 31.1807 82.6874 29.8401C91.6782 28.561 99.1592 36.7584 97.0494 45.5624C96.7527 46.7997 96.2297 47.9469 95.555 49.015C93.5792 52.1335 92.4255 55.5136 92.2584 59.2123C92.2343 59.7705 91.9837 59.8804 91.487 59.876C89.7714 59.8614 88.0557 59.8636 86.3391 59.8657H86.3388H86.3385H86.3382H86.3378H86.3375H86.3372H86.3368H86.3365H86.3362C85.723 59.8664 85.1096 59.8672 84.4962 59.8672V59.865ZM79.4722 39.8132H77.747C77.2108 39.8132 76.7734 39.9715 76.5822 40.5275C76.3867 41.0967 76.6724 41.4659 77.1053 41.778C77.4099 41.9972 77.7127 42.2194 78.0156 42.4417L78.0157 42.4417L78.0158 42.4418L78.0159 42.4419L78.016 42.4419L78.0161 42.442L78.0162 42.442L78.0163 42.4421L78.0164 42.4422L78.0165 42.4422C78.6182 42.8837 79.2203 43.3255 79.837 43.7449C80.4612 44.1691 80.6018 44.6833 80.3667 45.3712C80.0485 46.2951 79.747 47.2258 79.4462 48.1543L79.4462 48.1545L79.4461 48.1546L79.4461 48.1547L79.446 48.1549L79.4459 48.1551L79.4459 48.1554L79.4458 48.1556L79.4457 48.1558L79.4456 48.1561L79.314 48.5622C79.1492 49.0655 79.1535 49.5402 79.6283 49.8919C80.1052 50.2435 80.5447 50.1094 80.982 49.7864C81.3389 49.5217 81.6993 49.2616 82.0597 49.0014C82.6091 48.6047 83.1587 48.208 83.6962 47.7953C84.283 47.3447 84.8148 47.3359 85.406 47.7887C85.9185 48.1818 86.4417 48.5611 86.9653 48.9407L86.9654 48.9408C87.3286 49.2042 87.692 49.4676 88.052 49.7358C88.5026 50.0721 88.9597 50.2743 89.4739 49.8962C89.9838 49.5226 89.9508 49.0216 89.775 48.4919C89.6652 48.1597 89.5588 47.826 89.4523 47.4922C89.2347 46.8104 89.0171 46.1282 88.7707 45.4569C88.4938 44.6987 88.6344 44.1603 89.3267 43.7031C89.9169 43.314 90.4869 42.8939 91.0571 42.4737L91.0573 42.4736C91.3468 42.2602 91.6364 42.0468 91.9288 41.8373C92.3771 41.5142 92.7309 41.1494 92.5309 40.5363C92.3353 39.9363 91.8496 39.8066 91.2892 39.811C90.9061 39.8141 90.5228 39.8153 90.1393 39.8165H90.1392C89.4272 39.8187 88.715 39.8209 88.0037 39.8352C87.2784 39.8484 86.8301 39.5627 86.6169 38.8352C86.3834 38.0312 86.1186 37.2361 85.8535 36.4404L85.8535 36.4402L85.8534 36.44L85.8533 36.4397L85.8532 36.4394L85.853 36.4387L85.8527 36.438L85.8526 36.4374L85.8524 36.4369L85.8521 36.4359L85.8518 36.4351C85.7458 36.1168 85.6397 35.7984 85.5357 35.4794C85.3818 35.0091 85.0566 34.7541 84.5599 34.7497C84.061 34.7453 83.7336 35.0025 83.5775 35.4684C83.4836 35.7481 83.394 36.0298 83.3044 36.3114L83.3044 36.3116L83.3042 36.3123L83.3042 36.3123L83.3042 36.3123L83.3042 36.3124L83.3041 36.3124L83.3041 36.3124L83.3041 36.3125L83.3041 36.3125L83.3041 36.3126C83.2031 36.6301 83.1022 36.9474 82.9951 37.2617C82.864 37.6482 82.7614 37.9769 82.6742 38.2564C82.4394 39.0086 82.316 39.4038 82.0475 39.6089C81.7504 39.8358 81.2755 39.83 80.2751 39.8178C80.039 39.8149 79.7736 39.8116 79.4744 39.811L79.4722 39.8132ZM47.9045 67.0728L47.9067 67.0736L47.9045 67.0758L47.9045 67.0728ZM47.9078 66.9075C47.9064 66.9471 47.9045 66.9995 47.9045 67.0728C45.8372 66.3459 43.7764 65.9527 41.6564 65.9176C39.5862 65.8846 37.5533 66.1571 35.593 66.8296C34.7903 67.1038 34.151 66.793 33.5129 66.4827C33.2354 66.3477 32.9582 66.2129 32.6678 66.1264C32.502 66.0763 32.5181 65.8619 32.5326 65.669C32.5365 65.6164 32.5404 65.5654 32.5404 65.5198C32.5389 64.7151 32.5398 63.9103 32.5407 63.1057C32.5425 61.4162 32.5443 59.727 32.525 58.0388C32.5206 57.5575 32.714 57.3729 33.1249 57.2235C33.8183 56.9686 34.5073 56.7021 35.1963 56.4356C35.8853 56.1692 36.5742 55.9027 37.2676 55.6477C37.672 55.5005 37.8786 55.2675 37.9819 54.8544C38.5906 52.3929 39.5686 50.0788 40.8674 47.9053C41.0762 47.5558 41.0806 47.2767 40.918 46.9229C40.6527 46.3429 40.3945 45.7598 40.1363 45.1769L40.1362 45.1767L40.1362 45.1767L40.1362 45.1766L40.1362 45.1766L40.1362 45.1765L40.1361 45.1765L40.1361 45.1764L40.1361 45.1764L40.1361 45.1763L40.136 45.1762C39.7849 44.3832 39.4339 43.5905 39.0653 42.8066C38.8697 42.3912 38.9159 42.1429 39.2433 41.8198C41.0235 40.0749 42.7904 38.3123 44.531 36.5278C44.8694 36.1805 45.131 36.2003 45.5222 36.3827C46.2277 36.7089 46.9394 37.0229 47.6511 37.3369C48.2916 37.6195 48.9321 37.9021 49.5681 38.1936C49.9439 38.3651 50.2318 38.3936 50.6208 38.1607C52.7943 36.864 55.1063 35.8817 57.5699 35.2817C57.9941 35.1784 58.2051 34.9454 58.3501 34.552C58.5924 33.893 58.8447 33.2378 59.097 32.5827L59.0972 32.582C59.3757 31.8589 59.6541 31.1358 59.9193 30.4072C60.0731 29.9808 60.2885 29.8072 60.7544 29.8292C61.0739 29.8448 61.3942 29.8498 61.7172 29.8548H61.7173H61.7173C62.2141 29.8626 62.7176 29.8705 63.2356 29.9171C62.5587 30.4072 61.9543 30.9302 61.5609 31.6555C60.5742 33.4774 61.1346 35.719 62.9103 36.8552C63.8553 37.4596 64.8355 38.0112 65.8245 38.5409C66.9585 39.1496 68.1409 39.1079 69.3738 38.6288C69.4011 39.0536 69.3129 39.4521 69.226 39.8453C69.173 40.0848 69.1204 40.3224 69.0947 40.5627C68.9584 41.8484 68.8947 43.1341 69.0771 44.4175C69.165 45.0373 68.9408 45.079 68.4156 44.9625C59.4446 42.9495 50.6538 47.98 47.955 56.6719C46.9726 59.8366 46.9331 63.0298 47.7572 66.2363C47.7756 66.3063 47.7945 66.3763 47.8135 66.4465L47.8136 66.4466L47.8136 66.4467L47.8136 66.4468C47.8447 66.5615 47.8758 66.6764 47.9045 66.7923C47.9109 66.8205 47.9098 66.851 47.9078 66.9075ZM25 84.8705C24.9868 93.9096 32.3074 101.257 41.3399 101.265C50.3702 101.274 57.7237 93.9294 57.7193 84.9034C57.7149 75.9127 50.4032 68.5767 41.4124 68.5438C32.3909 68.5108 25.0132 75.8489 25 84.8705ZM31.6305 83.442C32.0414 82.4969 32.8106 82.0442 33.4963 82.0113L33.4941 82.0091C34.5622 81.9915 35.1534 82.2992 35.6589 82.8024C35.9375 83.0804 36.2174 83.3572 36.4972 83.6339L36.4975 83.6341L36.4983 83.6349C37.2513 84.3794 38.0041 85.1236 38.7312 85.8924C39.1092 86.288 39.3158 86.2594 39.685 85.8814C41.5114 84.0154 43.3502 82.1631 45.1893 80.3104L45.1897 80.3099L45.1902 80.3094C45.8028 79.6924 46.4154 79.0752 47.0275 78.4576C47.7352 77.7433 48.5527 77.4181 49.5593 77.7192C50.4889 77.9983 51.0361 78.6312 51.2427 79.5586C51.4229 80.3674 51.1966 81.1014 50.6296 81.6794C47.4034 84.9628 44.1727 88.2439 40.9157 91.4965C39.907 92.5053 38.4917 92.4635 37.4588 91.4482C35.6808 89.701 33.9205 87.9362 32.1689 86.1605C31.4041 85.3847 31.1909 84.4551 31.6305 83.442ZM84.2302 76.7435C81.8061 76.8687 79.8611 76.1303 78.7447 73.8139L78.7425 73.8161C78.7106 73.8418 78.6818 73.8639 78.6555 73.8841C78.5986 73.9279 78.5537 73.9623 78.5161 74.0029C73.5493 79.3763 67.4837 81.3674 60.3038 79.9038C59.7324 79.7873 59.6665 79.9191 59.8006 80.4664C60.5632 83.5849 60.5939 86.7276 59.6643 89.8C59.3039 90.9933 59.3874 91.9999 59.8775 93.0811C60.0841 93.5361 60.2884 93.7514 60.8247 93.7448C63.2641 93.7141 65.7036 93.7119 68.1408 93.7448C68.6814 93.7514 68.9056 93.5471 69.077 93.0723C69.3351 92.3569 69.6089 91.6475 69.8825 90.9384L69.8827 90.9379C70.131 90.2946 70.3792 89.6515 70.6154 89.0044C70.7627 88.6 70.989 88.3913 71.4066 88.288C73.8394 87.6836 76.1294 86.7188 78.2854 85.4463C78.6766 85.2156 78.9865 85.1804 79.4128 85.3804C80.1726 85.7388 80.9413 86.0774 81.7101 86.4159L81.7103 86.416L81.7105 86.4161L81.7107 86.4162L81.7109 86.4163L81.7112 86.4164L81.7114 86.4165L81.7116 86.4166L81.7118 86.4166L81.7121 86.4168L81.7125 86.417L81.7128 86.4171L81.7132 86.4173L81.7135 86.4174L81.7139 86.4176L81.7143 86.4178L81.7146 86.4179C82.3208 86.6849 82.9271 86.9519 83.5291 87.2287C83.8785 87.3891 84.1005 87.3671 84.3796 87.0836C86.1685 85.2705 87.9728 83.4706 89.7837 81.6773C90.0299 81.4355 90.1112 81.2355 89.9574 80.8993C89.5012 79.9071 89.0585 78.9081 88.6156 77.9088L88.6152 77.9078L88.6148 77.9069L88.6144 77.9061L88.614 77.9052L88.6136 77.9043C88.4362 77.5041 88.2588 77.1038 88.0805 76.7039L88.0684 76.6757L88.0582 76.6519C87.9701 76.444 87.8902 76.2557 87.5575 76.3896C86.7577 76.7141 85.9224 76.7196 85.0855 76.7252C84.8001 76.727 84.5146 76.7289 84.2302 76.7435ZM64.486 77.7632C62.6004 77.7698 60.7807 77.4335 59.0071 76.8028C58.6247 76.6665 58.361 76.4753 58.1654 76.0995C57.2446 74.3062 56.0512 72.7041 54.592 71.3129C54.2272 70.9657 54.2381 70.7239 54.5107 70.3503C57.2116 66.6494 60.8554 64.7901 65.4156 65.1616C70.2132 65.5527 73.6021 68.1219 75.6305 72.4953C75.8635 72.9985 75.6525 73.2337 75.3272 73.5282C72.2461 76.3105 68.6309 77.7126 64.486 77.7653V77.7632ZM86.3917 62.5006C85.7569 62.4993 85.1221 62.4979 84.4873 62.4979L84.4851 62.5001C83.9676 62.5001 83.4499 62.4999 82.9322 62.4997C81.1218 62.4989 79.3106 62.4982 77.5008 62.5067C77.4512 62.5067 77.3986 62.5009 77.345 62.495C77.1377 62.472 76.9173 62.4476 76.8107 62.7551C76.4987 63.6583 76.9953 65.1484 77.9338 65.4099C78.9623 65.6978 78.9689 66.311 78.9051 67.1021C78.881 67.401 78.9029 67.7065 78.9249 68.0054C78.9865 68.8207 79.4018 69.4954 80.1666 69.6712C81.0347 69.8712 81.1402 70.3459 81.0545 71.0602C81.0298 71.277 81.0391 71.4996 81.0482 71.7198C81.0505 71.7741 81.0527 71.8282 81.0545 71.8821C81.0984 73.2117 81.8742 74.0337 83.1972 74.093C84.0456 74.1282 84.8961 74.1238 85.7444 74.093C87.0652 74.0446 87.8695 73.2425 87.9487 71.9217C87.9745 71.508 87.9678 71.0929 87.9611 70.6787V70.6787V70.6786V70.6785V70.6785V70.6784V70.6783C87.9598 70.5997 87.9585 70.5211 87.9575 70.4426C87.9531 70.1174 87.9992 69.9262 88.4058 69.8207C89.5706 69.5174 90.065 68.8339 90.1046 67.623C90.12 67.1593 90.12 66.6933 90.1046 66.2274C90.0936 65.9154 90.1793 65.7593 90.509 65.6428C91.799 65.1857 92.1529 64.5989 92.1968 63.2584C92.2166 62.6166 91.9792 62.4804 91.3881 62.487C89.7235 62.5076 88.0578 62.5041 86.3917 62.5006ZM70.5737 57.3486C70.5737 60.7374 67.8507 63.4472 64.4553 63.4384C61.0709 63.4296 58.3699 60.6979 58.3853 57.298C58.4006 53.9531 61.1126 51.2522 64.4641 51.2478C67.8595 51.2434 70.5759 53.9553 70.5737 57.3464V57.3486ZM76.0635 27.9236L76.0635 27.9253C76.0616 27.9111 76.061 27.8937 76.0603 27.8743V27.8741C76.0587 27.827 76.0567 27.7682 76.035 27.717C75.5273 26.5083 74.9031 25.3545 74.0768 24.3457C73.679 23.86 73.0373 23.8886 72.5076 24.2622C71.978 24.6358 71.767 25.1984 72.0571 25.772C72.5714 26.7918 73.1516 27.7829 73.7647 28.7455C74.0944 29.262 74.6658 29.3543 75.2284 29.1543C75.7663 28.9633 76.0389 28.5353 76.0635 27.9253L76.0635 27.9258V27.9236ZM67.1123 36.2288C68.0067 36.6617 68.954 35.998 68.9386 35.0398L68.9364 35.0376C68.943 34.5915 68.7562 34.2245 68.3869 34.0003L68.1897 33.8807L68.1896 33.8806C67.3237 33.3552 66.4569 32.8294 65.5541 32.3718C64.9168 32.0488 64.319 32.2576 63.919 32.8641C63.5388 33.4443 63.6685 34.2069 64.2795 34.5981C65.1959 35.1871 66.1343 35.7541 67.1123 36.2288ZM101.59 36.354C100.744 36.343 100.319 36.0529 100.106 35.4793C99.9019 34.9255 100.036 34.3892 100.5 34.0881C101.482 33.453 102.502 32.8662 103.544 32.3366C104.086 32.0597 104.618 32.286 104.992 32.7673C105.348 33.2244 105.442 33.8002 105.053 34.2046C104.28 35.0113 103.301 35.4942 102.401 35.9378L102.401 35.9379C102.119 36.0768 101.845 36.2118 101.588 36.3518L101.59 36.354ZM93.0407 27.4248C92.6078 28.3083 93.2847 29.2533 94.2517 29.2313L94.2539 29.2335C94.6934 29.2247 95.0582 29.0489 95.2846 28.6731L95.3356 28.5882C95.8659 27.7044 96.3967 26.8199 96.8779 25.9106C97.2186 25.2666 96.9834 24.5524 96.401 24.203C95.812 23.8491 95.0626 23.9744 94.6692 24.5898C94.0825 25.5084 93.5177 26.4468 93.0407 27.4248Z" fill="url(#paint0_linear_354_347)"/>
</g>
<defs>
<filter id="filter0_d_354_347" x="0" y="0" width="131" height="131" filterUnits="userSpaceOnUse" color-interpolation-filters="sRGB">
<feFlood flood-opacity="0" result="BackgroundImageFix"/>
<feColorMatrix in="SourceAlpha" type="matrix" values="0 0 0 0 0 0 0 0 0 0 0 0 0 0 0 0 0 0 127 0" result="hardAlpha"/>
<feOffset dy="4"/>
<feGaussianBlur stdDeviation="2"/>
<feComposite in2="hardAlpha" operator="out"/>
<feColorMatrix type="matrix" values="0 0 0 0 0 0 0 0 0 0 0 0 0 0 0 0 0 0 0.25 0"/>
<feBlend mode="normal" in2="BackgroundImageFix" result="effect1_dropShadow_354_347"/>
<feBlend mode="normal" in="SourceGraphic" in2="effect1_dropShadow_354_347" result="shape"/>
</filter>
<linearGradient id="paint0_linear_354_347" x1="25" y1="61.1327" x2="105.305" y2="61.1327" gradientUnits="userSpaceOnUse">
<stop stop-color="#137DA4"/>
<stop offset="1" stop-color="#03A579"/>
</linearGradient>
</defs>
</svg>
