<svg width="131" height="131" viewBox="0 0 131 131" fill="none" xmlns="http://www.w3.org/2000/svg">
<g filter="url(#filter0_d_354_346)">
<circle cx="65.5" cy="61.5" r="61.5" fill="#F8F8F8"/>
<circle cx="65.5" cy="61.5" r="61" stroke="#03A679" stroke-opacity="0.39"/>
<path fill-rule="evenodd" clip-rule="evenodd" d="M59.3783 26.7771C59.3939 29.9628 61.9317 32.4849 65.1218 32.4804H65.124C68.3097 32.476 70.843 29.9426 70.8475 26.757C70.8497 23.5691 68.3276 21.0246 65.1441 21C61.9429 20.9777 59.3626 23.5624 59.3783 26.7771ZM61.8266 44.3253C62.9406 44.3251 64.0546 44.3249 65.1686 44.3249V44.3271C66.1163 44.3271 67.0638 44.3274 68.0112 44.3278H68.0115H68.0117H68.0119H68.0121H68.0124H68.0126H68.0128H68.0131H68.0133H68.0135C70.3796 44.3287 72.7453 44.3296 75.112 44.3249C76.1129 44.3226 76.3988 43.9451 76.1776 42.9711C75.0137 37.8486 70.3604 34.1513 65.0949 34.1647C59.8473 34.1781 55.2207 37.8486 54.0568 42.9197C53.8178 43.9585 54.0926 44.3249 55.1425 44.3249C57.3684 44.3263 59.5943 44.3258 61.8202 44.3253H61.8266ZM65.1284 48.4308C66.5484 48.4308 67.9686 48.4306 69.389 48.4303H69.3969C72.2366 48.4298 75.0767 48.4294 77.9157 48.4308C80.0492 48.4308 80.9159 49.2931 80.9182 51.4132C80.9226 56.6251 80.9226 61.8347 80.9182 67.0466C80.9182 69.1063 80.0201 69.9976 77.9626 70.0021C77.3827 70.0032 76.8028 70.0068 76.2229 70.0104C74.5176 70.0209 72.8126 70.0314 71.1088 69.9798C70.2241 69.953 69.9963 70.2411 70.0812 71.0565C70.146 71.691 70.1504 72.3433 70.0812 72.9755C69.9963 73.7529 70.318 73.9272 71.0261 73.8803C71.8647 73.8237 72.7097 73.8477 73.5528 73.8717L73.6175 73.8736C75.4338 73.9227 76.3117 75.1268 75.8403 76.8649C75.7733 77.1151 75.6348 77.1642 75.4271 77.1665C75.0652 77.1709 74.7033 77.1732 74.3414 77.1732C72.9369 77.1732 71.5323 77.1727 70.1277 77.1723H70.1275H70.1273H70.1271H70.127H70.1268H70.1266H70.1264C65.2063 77.1707 60.2855 77.1692 55.366 77.1866C54.6578 77.1888 54.3361 77.0816 54.3696 76.2528C54.4389 74.5036 54.9683 73.9026 56.7242 73.8713C57.6446 73.8557 58.565 73.8423 59.4832 73.8758C60.0015 73.8937 60.1645 73.7083 60.1444 73.2012C60.1109 72.3656 60.1042 71.5279 60.1444 70.6946C60.1712 70.1361 59.9635 69.9887 59.4296 69.9932C57.6019 70.0122 55.7743 70.0085 53.9456 70.0048H53.9451H53.9446H53.9441H53.9436H53.9431H53.9426H53.9421H53.9416H53.9411H53.9407H53.9402H53.9397H53.9392C53.4006 70.0037 52.862 70.0026 52.3233 70.0021C50.1988 69.9999 49.3119 69.1309 49.3097 67.0197C49.303 61.8079 49.303 56.5983 49.3097 51.3864C49.3119 49.3066 50.1854 48.4331 52.254 48.4308C55.115 48.4279 57.976 48.4289 60.837 48.4298C62.2675 48.4303 63.6979 48.4308 65.1284 48.4308ZM65.0592 64.4641C65.9298 64.4641 66.8004 64.4635 67.671 64.463H67.673C70.2845 64.4613 72.896 64.4596 75.5075 64.473C76.0727 64.4753 76.343 64.4038 76.3363 63.7202C76.3006 60.043 76.3073 56.3637 76.3318 52.6866C76.3363 52.0678 76.1553 51.8667 75.5276 51.8689C68.5889 51.8868 61.6501 51.889 54.7136 51.8667C54.0166 51.8645 53.8871 52.1281 53.8915 52.7513C53.9161 56.4017 53.9206 60.052 53.8871 63.7023C53.8804 64.3568 54.0948 64.4819 54.6935 64.4775C57.3265 64.4588 59.9581 64.4608 62.5904 64.4628C63.4132 64.4634 64.2361 64.4641 65.0592 64.4641ZM95.3094 52.8588C100.783 52.8588 105.251 57.3401 105.244 62.8179C105.237 68.2844 100.738 72.759 95.2692 72.7389C89.8473 72.7188 85.3772 68.2397 85.366 62.8179C85.3571 57.3558 89.8473 52.8588 95.3094 52.8588ZM93.9869 60.4119H93.9958C93.9958 60.657 93.9938 60.9021 93.9917 61.1472C93.987 61.7106 93.9823 62.2737 94.0025 62.8357C94.0271 63.535 94.4069 64.0443 95.1128 64.0756C96.6141 64.1448 98.1198 64.1627 99.621 64.1247C100.369 64.1046 100.881 63.4813 100.874 62.8089C100.868 62.0873 100.329 61.5534 99.516 61.5154C98.8771 61.4842 98.2315 61.4596 97.5948 61.502C96.8978 61.549 96.5761 61.3613 96.6431 60.5839C96.7123 59.7819 96.6811 58.9687 96.6476 58.1623C96.6118 57.2396 96.06 56.6789 95.2714 56.7012C94.5141 56.7236 94.0159 57.2687 93.9891 58.1555C93.9737 58.6743 93.9775 59.1941 93.9813 59.7142V59.7144V59.7146V59.7148V59.715V59.7152V59.7154V59.7156V59.7158V59.7159V59.7161V59.7163V59.7165V59.7167C93.983 59.9484 93.9847 60.1801 93.9847 60.4119H93.9869ZM66.451 101.236V102.08C68.1957 101.195 69.9159 100.585 71.7053 100.186C74.3793 99.5891 77.0914 99.3344 79.828 99.2942C80.8288 99.2786 81.1192 99.0306 81.1192 98.1705C81.129 93.4651 81.1268 88.7596 81.1246 84.0541L81.1237 82.039C81.1237 81.3197 80.7618 80.9667 80.0313 80.9868C74.949 81.1231 70.4721 82.669 66.9693 86.536C66.6096 86.9336 66.4376 87.3179 66.4398 87.863C66.4552 91.2719 66.4536 94.6822 66.452 98.0918V98.0919V98.0921C66.4515 99.14 66.451 100.188 66.451 101.236ZM63.7747 102.073C59.443 99.9019 54.908 99.3926 50.2904 99.2898C49.3588 99.2697 49.1042 98.9927 49.1042 98.0656C49.0975 92.7755 49.0975 87.4833 49.1042 82.1932C49.1042 81.2773 49.4013 80.9556 50.21 81.0003C54.5037 81.2348 58.46 82.4121 61.9205 85.0795C63.205 86.0692 63.8931 87.1303 63.8283 88.9018C63.7141 91.9797 63.7361 95.0632 63.7585 98.1987C63.7677 99.4805 63.7769 100.771 63.7769 102.073H63.7747ZM36.7972 64.6117C36.7972 64.2828 36.8007 63.9536 36.8042 63.6245C36.8125 62.8382 36.8209 62.0517 36.7815 61.2674C36.748 60.586 36.9379 60.3716 37.6461 60.3671C39.3908 60.3515 40.7781 58.9865 40.901 57.2842C41.0305 55.4859 39.8912 53.9847 38.1465 53.6518C36.4531 53.3279 34.8179 54.3063 34.2772 55.955C34.1575 56.318 34.1427 56.6888 34.128 57.0595C34.1251 57.1315 34.1223 57.2034 34.1186 57.2753C34.1178 57.2957 34.1175 57.3172 34.1172 57.3391V57.3392C34.1153 57.4896 34.1131 57.6612 33.922 57.6729C33.6789 57.6866 33.6877 57.5258 33.6961 57.3744C33.6986 57.3283 33.7011 57.2831 33.6964 57.244C33.6806 57.1112 33.6738 56.9763 33.667 56.8415C33.6554 56.6134 33.6439 56.3857 33.5892 56.1695C33.1558 54.4493 31.5004 53.3502 29.8003 53.6272C28.0422 53.9154 26.7755 55.4434 26.8805 57.1457C26.9922 58.9485 28.3885 60.347 30.1935 60.3694C30.8302 60.3783 31.0469 60.519 31.0357 61.1959C30.9911 63.5081 30.9955 65.8225 31.0357 68.1347C31.0469 68.7736 30.8548 68.9277 30.2404 68.9143L30.142 68.9124C28.6841 68.8837 28.6477 68.883 28.4488 67.3617C28.1606 65.1657 27.3206 63.202 26.217 61.2987C23.2213 56.1248 26.0048 49.6239 31.8444 48.2657C35.5193 47.4123 38.6826 48.5136 40.9658 51.5206C43.2355 54.5119 43.5728 57.8249 41.6762 61.1468C40.3983 63.3852 39.4265 65.6795 39.3059 68.2776C39.2836 68.7803 39.078 68.9121 38.5821 68.9121L38.5151 68.9123C37.6573 68.9157 37.2284 68.9174 37.0139 68.7038C36.7994 68.4901 36.7994 68.0611 36.7994 67.2031V64.6117H36.7972ZM71.1133 32.7215L71.1813 32.6364L71.1814 32.6364C71.7162 31.9677 72.2128 31.3468 72.5922 30.6417C72.7757 30.3014 73.0417 30.3988 73.2926 30.4907C73.3563 30.514 73.4189 30.537 73.4791 30.5523C78.3268 31.7989 82.6629 34.0463 86.4987 37.2565C90.4282 40.5449 93.4307 44.5393 95.5373 49.2083C95.6137 49.3791 95.6832 49.5533 95.7592 49.7439L95.7593 49.7442C95.8055 49.8601 95.8541 49.9821 95.9082 50.113L95.1409 50.1819L95.1386 50.1821C94.548 50.2351 93.9782 50.2863 93.4084 50.3364C93.0675 50.366 92.9879 50.1356 92.9114 49.914L92.9114 49.9139L92.9113 49.9138C92.8896 49.8508 92.8681 49.7886 92.8409 49.7333C89.1638 42.207 83.4136 36.9549 75.5812 33.9904C74.156 33.452 72.6771 33.0857 71.1133 32.7215ZM46.7182 38.3021C50.3998 35.5342 54.5059 33.7069 59.0855 32.7485L59.09 32.7507C58.9467 32.549 58.8043 32.3583 58.666 32.1732C58.3602 31.7639 58.0749 31.3818 57.8456 30.968C57.5798 30.4922 57.3341 30.3872 56.7957 30.5279C52.712 31.5958 48.9589 33.3606 45.5476 35.8381C42.085 38.3535 39.2165 41.4297 36.9178 45.042C36.6318 45.4911 36.6296 45.6899 37.1925 45.815C37.6237 45.9088 38.0638 46.0473 38.4436 46.264C38.9753 46.5679 39.2322 46.4316 39.5561 45.9334C41.4818 42.9622 43.8878 40.4311 46.7182 38.3021ZM33.9645 71.5751C34.4664 71.5751 34.9682 71.5749 35.4698 71.5746H35.4701H35.4703H35.4706H35.4708H35.4711C36.4737 71.5741 37.476 71.5736 38.4793 71.5751C39.2322 71.5751 39.4064 71.8231 39.1361 72.5201C39.0132 72.8373 38.8256 73.1813 38.4905 73.2461C37.7474 73.3922 37.7682 73.8933 37.7908 74.436L37.7935 74.5016C37.827 75.3528 37.5947 76.0609 36.6631 76.3044C36.2981 76.3999 36.3064 76.6475 36.3147 76.8974C36.3163 76.9457 36.3179 76.9942 36.3168 77.0416C36.2677 78.9383 35.9304 79.2734 34.0471 79.2734C33.953 79.2734 33.8587 79.2742 33.7644 79.2751C33.5517 79.277 33.3387 79.2789 33.1267 79.2712C32.0857 79.2354 31.525 78.6948 31.5205 77.6515C31.5201 77.5914 31.5204 77.532 31.5207 77.4735V77.4734V77.4734V77.4734V77.4733V77.4733C31.5242 76.8508 31.5271 76.3236 30.6716 76.052C29.9969 75.8375 29.9835 75.04 30.0215 74.381C30.0528 73.8627 30.0706 73.4025 29.3759 73.2752C29.0452 73.2149 28.8375 72.8909 28.7034 72.5737C28.3952 71.8343 28.5672 71.5796 29.3692 71.5773C30.3908 71.5759 31.4125 71.5764 32.4342 71.5769C32.945 71.5771 33.4558 71.5773 33.9667 71.5773L33.9645 71.5751ZM83.8111 90.3762C89.3625 86.5047 93.3323 81.6168 95.9304 75.4756C95.6843 75.4545 95.4483 75.4369 95.2197 75.4198L95.2196 75.4198C94.6994 75.381 94.2176 75.3451 93.7411 75.2768C93.2787 75.2098 93.0575 75.3505 92.8565 75.7817C90.8414 80.091 87.9618 83.7301 84.2601 86.7192C84.2224 86.7494 84.1819 86.7778 84.1413 86.8063C83.9775 86.9214 83.8111 87.0383 83.8111 87.2799V90.3762ZM38.906 78.726L38.907 78.7275C38.6168 79.6172 38.2282 80.3531 37.5724 80.8997C37.2807 81.1418 37.412 81.3172 37.5483 81.4994C37.5718 81.5308 37.5954 81.5623 37.617 81.5944C38.4592 82.841 39.393 84.0183 40.4028 85.1308C42.1587 87.0677 44.1 88.7923 46.4234 90.3494C46.4234 90.047 46.4213 89.7581 46.4193 89.4788V89.4786V89.4783V89.478C46.4147 88.8374 46.4105 88.2469 46.4323 87.6574C46.4479 87.2196 46.2849 86.9448 45.9475 86.6812C44.3636 85.4436 42.9495 84.0317 41.6494 82.4992C40.6623 81.3357 39.8047 80.0763 38.907 78.7275L38.9083 78.7238L38.906 78.726ZM33.6914 63.6395V63.6398C33.6916 63.9459 33.6919 64.2521 33.6919 64.558L33.6941 64.5536C33.6941 64.8741 33.6939 65.1945 33.6936 65.5147C33.6928 66.4758 33.6919 67.4359 33.6986 68.396C33.6986 68.4282 33.6953 68.4644 33.6918 68.5021C33.6768 68.6633 33.6594 68.8508 33.893 68.8562C34.1369 68.8638 34.1272 68.6617 34.1191 68.4926C34.1177 68.4635 34.1164 68.4353 34.1164 68.4094C34.1208 65.9051 34.1208 63.3986 34.1164 60.8943C34.1164 60.8707 34.1172 60.8455 34.1181 60.8194L34.1181 60.8194C34.1238 60.6461 34.1308 60.4377 33.8997 60.4319C33.6615 60.4264 33.6773 60.6193 33.6906 60.7825C33.6936 60.8183 33.6964 60.8526 33.6964 60.8832C33.6897 61.8012 33.6905 62.7206 33.6914 63.6393V63.6394V63.6395ZM31.0112 57.2329C31.1055 57.7244 30.784 57.7202 30.4297 57.7157L30.4103 57.7155C29.9143 57.711 29.5881 57.4876 29.577 56.9939C29.5658 56.5449 29.8607 56.2455 30.3142 56.2745C30.8637 56.3081 31.0469 56.699 31.0112 57.2329ZM36.7904 57.1747C36.7703 57.6215 36.9423 57.7868 37.3065 57.7176H37.3042C37.885 57.7153 38.2313 57.5076 38.2201 56.9446C38.2112 56.5112 37.9253 56.2699 37.5276 56.2766C36.9736 56.2856 36.815 56.6676 36.7904 57.1747Z" fill="url(#paint0_linear_354_346)"/>
</g>
<defs>
<filter id="filter0_d_354_346" x="0" y="0" width="131" height="131" filterUnits="userSpaceOnUse" color-interpolation-filters="sRGB">
<feFlood flood-opacity="0" result="BackgroundImageFix"/>
<feColorMatrix in="SourceAlpha" type="matrix" values="0 0 0 0 0 0 0 0 0 0 0 0 0 0 0 0 0 0 127 0" result="hardAlpha"/>
<feOffset dy="4"/>
<feGaussianBlur stdDeviation="2"/>
<feComposite in2="hardAlpha" operator="out"/>
<feColorMatrix type="matrix" values="0 0 0 0 0 0 0 0 0 0 0 0 0 0 0 0 0 0 0.25 0"/>
<feBlend mode="normal" in2="BackgroundImageFix" result="effect1_dropShadow_354_346"/>
<feBlend mode="normal" in="SourceGraphic" in2="effect1_dropShadow_354_346" result="shape"/>
</filter>
<linearGradient id="paint0_linear_354_346" x1="25" y1="61.54" x2="105.244" y2="61.54" gradientUnits="userSpaceOnUse">
<stop stop-color="#137DA4"/>
<stop offset="1" stop-color="#03A579"/>
</linearGradient>
</defs>
</svg>
