<svg width="131" height="131" viewBox="0 0 131 131" fill="none" xmlns="http://www.w3.org/2000/svg">
<g filter="url(#filter0_d_356_355)">
<circle cx="65.5" cy="61.5" r="61.5" fill="#F8F8F8"/>
<circle cx="65.5" cy="61.5" r="61" stroke="#03A679" stroke-opacity="0.39"/>
<path fill-rule="evenodd" clip-rule="evenodd" d="M58.6829 43.1357L58.6816 43.1414L58.6771 43.1392L58.6829 43.1357ZM58.6829 43.1357L59.0726 41.4452L59.0732 41.4427L59.0792 41.4165L59.0795 41.4155L59.08 41.4132C59.3371 40.2976 59.5807 39.2406 59.8254 38.1835C59.8568 38.0481 59.8814 37.9095 59.906 37.7707C59.9599 37.4671 60.0139 37.1632 60.1391 36.8929C60.8423 35.3752 60.306 34.3983 59.0176 33.4504C57.8733 32.6069 56.8089 31.6553 55.6927 30.6574L55.6927 30.6574C55.207 30.2232 54.7116 29.7803 54.1954 29.3336L55.516 29.2192L55.5165 29.2192L55.5187 29.219L55.5235 29.2186L55.5296 29.2181C56.6454 29.1214 57.688 29.0312 58.7305 28.9398C59.0474 28.9123 59.3643 28.8823 59.6813 28.8522C60.4417 28.7802 61.2028 28.7082 61.9661 28.6705C62.4846 28.6438 62.7382 28.4368 62.9296 27.9651C63.5473 26.4473 64.1859 24.9387 64.8244 23.4302L64.8245 23.43L64.8245 23.4299L64.8246 23.4297C65.0716 22.8462 65.3186 22.2627 65.5643 21.6787C65.6236 21.5362 65.6873 21.3964 65.7527 21.253L65.7528 21.2527L65.7532 21.2519L65.7533 21.2517C65.7908 21.1694 65.8289 21.0859 65.867 21C66.1111 21.0935 66.1707 21.2827 66.227 21.4616C66.2431 21.5126 66.2589 21.5628 66.2786 21.6097C66.4533 22.0212 66.6286 22.4325 66.8039 22.8439L66.8041 22.8443C67.5088 24.4978 68.214 26.1527 68.8822 27.8204C69.1047 28.379 69.3717 28.6416 69.9971 28.6839C71.8092 28.8104 73.6201 28.9677 75.4376 29.1255L75.4377 29.1256L75.4378 29.1256L75.4379 29.1256L75.4383 29.1256C76.1136 29.1843 76.7898 29.243 77.4673 29.3002C77.4468 29.6081 77.2501 29.7477 77.0642 29.8797L77.0642 29.8797C77.0082 29.9194 76.9532 29.9585 76.9043 30.0012C76.6763 30.2007 76.4484 30.4003 76.2205 30.6L76.2205 30.6001C74.778 31.864 73.3348 33.1285 71.8552 34.3449C71.3611 34.7499 71.2899 35.1126 71.4324 35.6823C71.8417 37.3312 72.2286 38.9864 72.6154 40.6412C72.746 41.1995 72.8765 41.7578 73.0078 42.3158C73.0161 42.3498 73.0256 42.3837 73.0352 42.4178L73.0353 42.418C73.0856 42.5967 73.1381 42.7833 73.0167 43.0279C72.5851 42.7671 72.1541 42.5063 71.7236 42.2456L71.7217 42.2445L71.7198 42.2433L71.7189 42.2428L71.7152 42.2406C70.6793 41.6135 69.6456 40.9878 68.6085 40.3665C68.3465 40.2093 68.0841 40.0173 67.8214 39.8251C67.2028 39.3725 66.5827 38.9187 65.9626 38.9156C65.3408 38.9125 64.7146 39.3658 64.0917 39.8168C63.8319 40.0049 63.5727 40.1925 63.3146 40.3465C62.3111 40.9455 61.3107 41.5497 60.257 42.186C59.7469 42.494 59.2243 42.8095 58.6829 43.1357ZM78.5956 65.2162C78.5956 72.1946 72.9345 77.8779 65.9649 77.8935C58.962 77.9091 53.2698 72.2102 53.2787 65.1895C53.2876 58.2133 58.9553 52.5744 65.9516 52.5767C72.9456 52.5811 78.5956 58.2266 78.5956 65.2162ZM65.9338 102.73C64.3577 102.73 62.7817 102.729 61.2057 102.729C55.537 102.727 49.869 102.725 44.1996 102.748C43.4719 102.75 43.2717 102.581 43.2828 101.837C43.3273 98.5062 43.3362 95.175 43.2939 91.846C43.2294 86.8347 45.5348 83.1541 49.5959 80.4437C51.8078 78.9684 54.2511 78.0048 56.8057 77.2994C57.2508 77.177 57.5846 77.2794 57.9673 77.5108C63.2813 80.713 68.6019 80.7152 73.9158 77.5086C74.234 77.3172 74.5166 77.1526 74.9172 77.2638C78.462 78.2363 81.7754 79.6604 84.5059 82.2039C87.2073 84.7185 88.5759 87.8272 88.5736 91.5278C88.5736 92.4197 88.5723 93.3117 88.571 94.2038V94.204V94.2042V94.2044V94.2047V94.2049C88.5672 96.7824 88.5633 99.3606 88.5914 101.938C88.5981 102.616 88.3823 102.752 87.7503 102.75C81.933 102.734 76.1157 102.735 70.2972 102.736H70.297H70.2968H70.2966H70.2964H70.2962C68.8414 102.736 67.3865 102.736 65.9316 102.736L65.9338 102.73ZM43.9615 45.111C43.4962 45.5129 43.0457 45.9069 42.604 46.2933C41.5416 47.2225 40.5301 48.1071 39.4865 48.9496C38.9012 49.4213 38.7766 49.8575 38.9658 50.5674C39.3116 51.8679 39.6152 53.1798 39.9306 54.5424L39.9306 54.5424L39.9306 54.5425C40.0555 55.0823 40.1823 55.6302 40.3143 56.1884C40.2155 56.1397 40.1267 56.0977 40.0453 56.0592C39.877 55.9796 39.74 55.9147 39.6111 55.8368C39.2661 55.6288 38.9206 55.4217 38.5753 55.2146L38.5715 55.2124L38.5715 55.2123L38.5714 55.2123L38.5714 55.2123C37.4214 54.5227 36.272 53.8334 35.1383 53.1153C34.6599 52.8127 34.3038 52.7837 33.8076 53.0997C32.6093 53.8598 31.3917 54.5913 30.1277 55.3507L30.1276 55.3508C29.6264 55.6519 29.1179 55.9573 28.6005 56.2707C28.7299 55.7114 28.8554 55.1624 28.9791 54.6213L28.9791 54.6212C29.3234 53.1146 29.6539 51.6688 30.0158 50.2313C30.1359 49.7529 30.0536 49.4814 29.6797 49.1677C28.5699 48.2344 27.4742 47.2834 26.3205 46.2822L26.3204 46.2821L26.3203 46.282L26.319 46.2809C25.8886 45.9074 25.4502 45.5269 25 45.1377C25.3725 45.1022 25.7311 45.0675 26.0797 45.0339L26.081 45.0337L26.0811 45.0337L26.083 45.0335L26.085 45.0333C26.9569 44.9491 27.767 44.8709 28.5782 44.7995C28.7623 44.7832 28.9463 44.766 29.1302 44.7489L29.1303 44.7488L29.1305 44.7488L29.1308 44.7488C29.8027 44.686 30.4742 44.6233 31.1484 44.6059C31.6424 44.5925 31.8805 44.4011 32.0608 43.9539C32.5918 42.6453 33.1419 41.3446 33.7079 40.0063L33.7079 40.0062C33.9388 39.4602 34.1724 38.9079 34.4084 38.3462C34.6753 38.637 34.7883 38.9424 34.8951 39.2308L34.8951 39.2308C34.9272 39.3175 34.9587 39.4027 34.9937 39.4855C35.1018 39.7392 35.2102 39.9927 35.3185 40.2463L35.3186 40.2463L35.3186 40.2463L35.3186 40.2464C35.8414 41.4695 36.3641 42.6922 36.8562 43.9272C37.0498 44.4123 37.3169 44.5747 37.8331 44.6081C39.2621 44.7028 40.6887 44.8265 42.189 44.9566H42.1891C42.7682 45.0068 43.3583 45.058 43.9637 45.1088L43.9615 45.111ZM87.9329 45.1217L87.9305 45.1219V45.1197L87.9329 45.1217ZM87.9329 45.1217C88.5313 45.0705 89.1151 45.0192 89.6882 44.9687L89.691 44.9685L89.6915 44.9684L89.6924 44.9684C91.2097 44.8349 92.6526 44.7079 94.0967 44.6079C94.5863 44.5745 94.8244 44.4009 95.0047 43.9536C95.5542 42.6034 96.1241 41.2602 96.6951 39.9147L96.6952 39.9145L96.6952 39.9142L96.6989 39.9057C96.9057 39.4182 97.1127 38.9303 97.3189 38.4417C97.5869 38.5177 97.6467 38.7093 97.7028 38.889C97.7189 38.9407 97.7347 38.9913 97.7551 39.038C97.8618 39.2882 97.9689 39.5382 98.0759 39.7884C98.645 41.118 99.2144 42.4486 99.7445 43.7934C99.967 44.3564 100.256 44.5834 100.886 44.619C102.266 44.6968 103.642 44.821 105.103 44.9529L105.103 44.9529C105.69 45.0059 106.29 45.0601 106.91 45.113C106.567 45.4089 106.261 45.6729 105.974 45.9209C105.693 46.1635 105.43 46.3906 105.167 46.6173C104.881 46.8648 104.596 47.1138 104.31 47.3629C103.613 47.9715 102.915 48.5807 102.201 49.1697C101.832 49.4745 101.734 49.746 101.856 50.2333C102.213 51.645 102.537 53.0637 102.873 54.5344L102.873 54.5365L102.874 54.5381L102.874 54.5399C103.003 55.1053 103.134 55.6783 103.269 56.2616C102.757 55.9523 102.254 55.6507 101.757 55.3533L101.757 55.3528C100.478 54.587 99.2471 53.8493 98.0355 53.0817C97.5593 52.7813 97.2322 52.8057 96.7738 53.095C95.5295 53.8762 94.2706 54.6329 92.9546 55.424C92.4937 55.7011 92.0257 55.9824 91.5488 56.2705C91.6827 55.6926 91.8121 55.1267 91.9393 54.5697L91.94 54.5667C92.2821 53.0701 92.6093 51.6382 92.9708 50.2133C93.0954 49.7193 92.9708 49.4612 92.6147 49.1585C91.5165 48.2305 90.4299 47.2874 89.2855 46.2942L89.2848 46.2936L89.2845 46.2934C88.8439 45.9109 88.3946 45.521 87.9329 45.1217ZM35.4565 67.3812V68.2647V90.2347C35.4565 90.3094 35.4583 90.3842 35.46 90.4589L35.4601 90.459C35.4649 90.6628 35.4696 90.8661 35.4387 91.0647C35.3564 91.5944 35.0426 91.9126 34.4885 91.9281C33.9322 91.9437 33.6006 91.6367 33.4894 91.1182C33.446 90.9179 33.4514 90.7075 33.4568 90.4975L33.4568 90.4974C33.4587 90.4275 33.4605 90.3576 33.4605 90.2881V68.3181V67.29C33.0579 67.5868 32.7979 67.9505 32.5473 68.3011C32.4184 68.4815 32.2919 68.6584 32.1498 68.821C32.0407 68.9467 31.9412 69.0802 31.8416 69.2137C31.742 69.3473 31.6424 69.4808 31.5334 69.6065C31.1306 70.0694 30.6366 70.1873 30.1381 69.8001C29.6374 69.4129 29.6196 68.8877 29.9735 68.3982C30.4949 67.6814 31.0348 66.9782 31.5748 66.2748L31.5749 66.2748C31.7608 66.0326 31.9468 65.7904 32.132 65.5476C32.2579 65.3826 32.3831 65.2166 32.5084 65.0506L32.5086 65.0504C32.8679 64.574 33.2278 64.097 33.6073 63.6383C34.1347 62.9997 34.7889 62.9708 35.2874 63.605C36.5224 65.1738 37.7285 66.7648 38.9235 68.3648C39.3062 68.8766 39.2951 69.4285 38.7477 69.8268C38.2337 70.1984 37.7374 70.0493 37.3591 69.5754C36.9143 69.0156 36.4811 68.4468 36.0478 67.8778L36.0477 67.8778L36.0462 67.8757C35.9099 67.6967 35.7735 67.5177 35.6368 67.339L35.4565 67.379V67.3812ZM98.4138 76.1354V67.4035L98.4182 67.4013L98.5829 67.3256C99.1325 68.0444 99.6822 68.7631 100.234 69.4797C100.643 70.0115 101.158 70.2474 101.734 69.8001C102.306 69.3551 102.215 68.7898 101.812 68.2602C101.695 68.1066 101.578 67.953 101.462 67.7993C100.439 66.4524 99.4146 65.1036 98.3759 63.7674C97.7239 62.9307 97.092 62.9441 96.4311 63.7986C95.8511 64.5492 95.2765 65.3039 94.7021 66.0586C94.1678 66.7604 93.6337 67.462 93.0954 68.1601C92.677 68.7031 92.4879 69.246 93.0598 69.7779C93.5493 70.2318 94.1234 70.0805 94.6709 69.3818C95.0522 68.894 95.4279 68.4005 95.8036 67.907C95.954 67.7094 96.1044 67.5117 96.2552 67.3145C96.3087 67.3367 96.3643 67.3612 96.4177 67.3835V68.2669V90.237C96.4177 90.3109 96.4159 90.3853 96.4142 90.4598C96.4094 90.6635 96.4045 90.8682 96.4355 91.067C96.5201 91.5966 96.8383 91.9104 97.3901 91.9259C97.9465 91.9415 98.2713 91.63 98.3848 91.1115C98.4255 90.9302 98.421 90.7374 98.4165 90.5456C98.4152 90.4855 98.4138 90.4255 98.4138 90.366V76.1354Z" fill="url(#paint0_linear_356_355)"/>
</g>
<defs>
<filter id="filter0_d_356_355" x="0" y="0" width="131" height="131" filterUnits="userSpaceOnUse" color-interpolation-filters="sRGB">
<feFlood flood-opacity="0" result="BackgroundImageFix"/>
<feColorMatrix in="SourceAlpha" type="matrix" values="0 0 0 0 0 0 0 0 0 0 0 0 0 0 0 0 0 0 127 0" result="hardAlpha"/>
<feOffset dy="4"/>
<feGaussianBlur stdDeviation="2"/>
<feComposite in2="hardAlpha" operator="out"/>
<feColorMatrix type="matrix" values="0 0 0 0 0 0 0 0 0 0 0 0 0 0 0 0 0 0 0.25 0"/>
<feBlend mode="normal" in2="BackgroundImageFix" result="effect1_dropShadow_356_355"/>
<feBlend mode="normal" in="SourceGraphic" in2="effect1_dropShadow_356_355" result="shape"/>
</filter>
<linearGradient id="paint0_linear_356_355" x1="25" y1="61.8749" x2="106.91" y2="61.8749" gradientUnits="userSpaceOnUse">
<stop stop-color="#137DA4"/>
<stop offset="1" stop-color="#03A579"/>
</linearGradient>
</defs>
</svg>
