<svg width="131" height="131" viewBox="0 0 131 131" fill="none" xmlns="http://www.w3.org/2000/svg">
<g filter="url(#filter0_d_359_418)">
<circle cx="65.5" cy="61.5" r="61.5" fill="#F8F8F8"/>
<circle cx="65.5" cy="61.5" r="61" stroke="#03A679" stroke-opacity="0.39"/>
<path fill-rule="evenodd" clip-rule="evenodd" d="M106.886 40.5212C106.888 53.2387 96.375 63.1923 83.9245 62.4672C80.4266 62.2636 77.1437 61.2845 74.1285 59.4795C73.6984 59.2232 73.321 59.1683 72.8451 59.2987C71.7085 59.6104 70.5696 59.9148 69.4306 60.2192C68.0113 60.5986 66.5919 60.9779 65.1767 61.3714C64.5362 61.5498 64.296 61.5658 64.5224 60.7629C64.928 59.3381 65.3074 57.9052 65.6867 56.4726C65.9706 55.4 66.2545 54.3277 66.5494 53.2592C66.7095 52.6781 66.682 52.2183 66.3595 51.6669C58.5927 38.3776 66.8902 21.3136 82.1241 19.2089C93.9469 17.5755 104.839 25.6923 106.66 37.5083C106.824 38.579 106.93 39.6588 106.886 40.5212ZM86.0155 58.9177H86.0158C86.6053 58.9187 87.1951 58.9197 87.7839 58.9167C89.5225 58.903 90.5268 57.9009 90.5703 56.1531C90.5722 56.0692 90.5627 55.9784 90.5532 55.8867C90.5279 55.6434 90.5019 55.3934 90.6847 55.2472C91.9092 54.2671 91.8304 52.9175 91.7532 51.5972L91.7507 51.5548C91.6867 50.4773 91.9566 49.5416 92.5331 48.6517C93.2149 47.5994 93.8875 46.5402 94.5212 45.4581C97.0102 41.203 96.3948 35.9824 93.0021 32.4204C89.9526 29.2177 85.2239 28.1859 81.1175 29.8262C76.979 31.4802 74.2704 35.5249 74.2864 39.9745C74.2955 42.2736 74.9612 44.36 76.2675 46.229C77.7408 48.3383 79.0196 50.4842 78.5918 53.2294C78.5003 53.8105 78.7611 54.3893 79.1958 54.7759C79.6739 55.2014 79.7792 55.675 79.7814 56.2767C79.786 57.9192 80.8155 58.9007 82.4787 58.9167C83.0673 58.9228 83.6569 58.9207 84.2461 58.9187H84.2467C84.5413 58.9177 84.8358 58.9167 85.1301 58.9167H85.1324C85.4261 58.9167 85.7201 58.9172 86.0142 58.9177H86.0145H86.0147H86.015H86.0153H86.0155ZM86.1648 23.7094V23.7092C86.1682 23.3918 86.1716 23.0739 86.1573 22.7572C86.1298 22.1509 85.7775 21.7963 85.1896 21.7666C84.5902 21.7369 84.183 22.1029 84.1464 22.6771C84.0869 23.6425 84.0869 24.6148 84.1464 25.5802C84.183 26.159 84.6039 26.5227 85.1942 26.4907C85.7707 26.4587 86.1344 26.1018 86.155 25.491C86.166 25.1797 86.163 24.8684 86.16 24.5564V24.5562C86.1587 24.412 86.1573 24.2676 86.1573 24.1229L86.1619 24.1252C86.1619 23.9873 86.1633 23.8492 86.1648 23.7109V23.7107V23.7104V23.7102V23.7099V23.7097V23.7094ZM98.6436 30.1716C98.6596 29.2199 97.8864 28.7327 97.1451 29.1101C96.4651 29.4551 95.809 29.8483 95.1547 30.2403L95.1501 30.2431C95.051 30.3025 94.952 30.3618 94.8529 30.421C94.3084 30.7458 94.1139 31.2446 94.4182 31.8028C94.7431 32.3976 95.2807 32.5097 95.8755 32.1757C96.619 31.7593 97.3556 31.3292 98.09 30.8991C98.4286 30.7001 98.6367 30.4095 98.6436 30.1739V30.1716ZM80.3374 26.9094C80.1996 26.6615 80.0694 26.3986 79.9363 26.13C79.5412 25.3325 79.1207 24.4838 78.402 23.8232C78.1091 23.5556 77.6905 23.6448 77.3656 23.8827C77.0179 24.1389 76.7914 24.5164 76.963 24.9236C77.3839 25.9211 77.9421 26.8522 78.569 27.7329C78.8137 28.0784 79.2301 28.1653 79.6511 27.9937C80.0583 27.829 80.271 27.5133 80.3351 26.9094H80.3374ZM93.3613 24.7337C93.3636 24.2922 93.1783 23.9697 92.7688 23.7843C92.3204 23.583 91.8697 23.6562 91.6181 24.0406C91.0599 24.8939 90.5428 25.7815 90.0807 26.692C89.8313 27.1816 90.0372 27.6483 90.5245 27.9251C91.0667 28.2339 91.5403 28.0578 91.8605 27.5797C92.1787 27.107 92.4584 26.6078 92.7377 26.1092C92.8059 25.9876 92.874 25.8661 92.9426 25.7449C92.9797 25.679 93.0197 25.614 93.0599 25.5489L93.06 25.5487L93.0601 25.5486C93.2134 25.2999 93.3681 25.0491 93.359 24.7337H93.3613ZM74.8789 32.3587C75.4623 32.3312 75.8054 32.1047 75.9655 31.6586C76.144 31.1622 75.9701 30.7436 75.54 30.4782C74.7668 30 73.9775 29.5448 73.1791 29.1078C72.6072 28.7944 72.1062 28.9523 71.7951 29.5013C71.4725 30.0687 71.6784 30.5583 72.2091 30.8854C72.8307 31.2697 73.4678 31.6289 74.1043 31.9879L74.2749 32.0842C74.4361 32.1748 74.6071 32.2457 74.7437 32.3024C74.7932 32.3229 74.8382 32.3416 74.8766 32.3587H74.8789ZM64.9884 91.5953L64.9797 91.5954H64.9793H64.9788H64.9784H64.978H64.9776H64.9771H64.9767C62.293 91.6021 59.6102 91.6088 56.9273 91.5782C54.7722 91.5531 52.8643 92.0907 51.3315 93.66C51.009 93.9895 50.8351 93.8591 50.5857 93.6029C50.0512 93.0521 49.5063 92.5105 48.9616 91.9691L48.9615 91.9691L48.9615 91.9691L48.9615 91.969L48.9614 91.969L48.9614 91.9689L48.9612 91.9687L48.9608 91.9683C48.7366 91.7454 48.5123 91.5226 48.2889 91.2991C47.4529 90.4627 46.617 89.626 45.7812 88.7894L45.7811 88.7893L45.781 88.7892L45.7809 88.7891L45.7808 88.789L45.7685 88.7767L45.7667 88.7749L45.7659 88.7741C42.0688 85.0734 38.3713 81.3724 34.6587 77.6896C34.1989 77.2343 34.2012 77.0101 34.6656 76.5663C36.2903 75.0125 37.8963 73.441 39.5025 71.8694C40.2824 71.1063 41.0623 70.3431 41.8444 69.5819C44.3334 67.1615 47.3166 65.9399 50.7939 65.9399C51.3708 65.9399 51.9481 65.9457 52.5255 65.9515H52.5258H52.5261H52.5264H52.5267H52.527H52.5273H52.5276C53.834 65.9647 55.1409 65.9778 56.4446 65.9239C59.5673 65.7958 62.4452 66.4958 65.0463 68.2345C65.7944 68.7332 66.57 68.8865 67.4576 68.8819C72.1657 68.8499 76.8738 68.8544 81.5842 68.8727C84.3935 68.8819 86.5622 70.7189 86.8436 73.2674C87.1548 76.0927 84.6177 78.9226 81.7123 78.9341C78.63 78.9463 75.5477 78.9443 72.4661 78.9422C70.9253 78.9412 69.3846 78.9402 67.8442 78.9409C67.7784 78.9409 67.7122 78.9396 67.6461 78.9382C67.4546 78.9343 67.2625 78.9303 67.0755 78.9592C66.4876 79.0485 66.1399 79.4145 66.1559 80.0047C66.1696 80.5515 66.5128 80.8924 67.0618 80.977C67.2281 81.0025 67.3983 80.999 67.5684 80.9955C67.6276 80.9942 67.6868 80.993 67.7458 80.993C69.2769 80.993 70.8082 80.9935 72.3396 80.994H72.3399C75.4031 80.9951 78.4667 80.9961 81.5293 80.993C85.6952 80.9862 88.6075 78.2958 88.9163 74.1528C88.9437 73.7799 89.0833 73.5168 89.3258 73.256C90.6692 71.808 92.0108 70.358 93.3526 68.9078L93.3543 68.906C95.1516 66.9635 96.9491 65.0208 98.7511 63.0826C100.195 61.5292 102.057 61.4308 103.711 62.7783C105.296 64.0708 105.628 66.0062 104.441 67.6488C103.776 68.57 103.112 69.4914 102.447 70.4128L102.447 70.4136L102.446 70.4141L102.446 70.4141L102.446 70.4142L102.446 70.4143L102.446 70.4144L102.446 70.4144C98.6068 75.7399 94.7675 81.0653 90.8517 86.3325C88.2162 89.8762 84.5719 91.5965 80.1338 91.5897C77.5273 91.5851 74.9209 91.5866 72.3144 91.5882C71.0112 91.5889 69.7079 91.5897 68.4047 91.5897H68.3978C67.2612 91.5897 66.1247 91.5925 64.9884 91.5953ZM25.7824 81.5214C25.2791 82.027 25.0046 82.6378 25 83.3584L25.0023 83.3562C24.9886 84.1111 25.2654 84.7471 25.7938 85.2755C27.1266 86.6083 28.4593 87.9415 29.792 89.2747L29.8335 89.3162L29.8383 89.321C34.2161 93.7004 38.5947 98.0807 42.9814 102.452C44.0658 103.531 45.5528 103.538 46.6623 102.493C47.7215 101.495 48.751 100.466 49.753 99.4136C50.8419 98.272 50.8534 96.7804 49.7438 95.6663C44.0269 89.9287 38.3007 84.2026 32.5609 78.4856C31.4536 77.3829 29.9369 77.4058 28.809 78.4971C28.0153 79.266 27.2381 80.0513 26.4614 80.8362C26.2351 81.0648 26.0089 81.2933 25.7824 81.5214ZM87.6939 45.5549V45.5549V45.5548C87.7011 44.9553 87.7083 44.3557 87.6763 43.7584C87.6442 43.1773 87.8067 42.9828 88.4198 42.9668C89.813 42.9302 90.8676 41.8756 90.9454 40.5533C91.0278 39.1921 90.1516 38.0185 88.8361 37.728C87.2668 37.3825 85.7592 38.5675 85.6334 40.2353C85.6285 40.2979 85.6329 40.3652 85.6374 40.4327C85.6539 40.6859 85.6706 40.941 85.201 40.9536C84.6811 40.9678 84.666 40.6865 84.6483 40.3591L84.6448 40.2951C84.6435 40.2745 84.6421 40.2538 84.6405 40.233C84.5192 38.7094 83.4074 37.6479 81.9799 37.6731C80.5432 37.6982 79.3742 38.8535 79.3353 40.2879C79.2964 41.7177 80.4128 42.9005 81.9685 42.976C82.5221 43.0034 82.625 43.2139 82.6182 43.6966C82.5999 45.4924 82.5884 47.2906 82.6227 49.0864C82.6342 49.6652 82.4168 49.7636 81.8838 49.8162C80.955 49.9077 80.47 49.608 80.1017 48.7135C79.6839 47.6952 79.0761 46.7757 78.4683 45.8562L78.4682 45.8562C78.194 45.4413 77.9198 45.0264 77.663 44.6025C74.4465 39.2996 77.3656 32.4731 83.4028 31.3109C87.038 30.6109 90.099 31.7708 92.27 34.7768C94.4593 37.8057 94.5737 41.0817 92.7733 44.3577C92.3884 45.0585 91.9637 45.7358 91.5387 46.4135C90.9203 47.3994 90.3014 48.3863 89.8039 49.4479C89.5523 49.9832 89.069 49.9003 88.5957 49.8191C88.3974 49.7851 88.2009 49.7514 88.024 49.7636C87.5927 49.7934 87.6371 49.4805 87.6762 49.205C87.6881 49.121 87.6995 49.0406 87.6969 48.9743C87.6719 48.332 87.676 47.6885 87.6801 47.0456C87.6816 46.8046 87.6831 46.5636 87.6831 46.3229L87.6877 46.3252C87.6877 46.0686 87.6908 45.8119 87.6939 45.5552V45.5551V45.5551V45.555V45.5549ZM86.2503 51.8418C85.909 51.8413 85.5676 51.8407 85.2262 51.8407H85.2239C84.8083 51.8407 84.3923 51.8412 83.9762 51.8418H83.9757H83.9752H83.9747C83.1409 51.8428 82.3065 51.8438 81.4721 51.8407C81.4547 51.8407 81.4372 51.8404 81.4198 51.8402C81.3933 51.8397 81.3668 51.8391 81.3406 51.8385H81.3405H81.3405C80.9296 51.829 80.5614 51.8205 80.6028 52.4927C80.6055 52.5352 80.6079 52.5772 80.6103 52.6188C80.6438 53.2045 80.6715 53.6884 81.511 53.6778C82.992 53.6601 84.4718 53.6639 85.9522 53.6677C86.5756 53.6693 87.1991 53.6709 87.8228 53.6709C87.8785 53.6709 87.9343 53.6711 87.9901 53.6714C88.0247 53.6716 88.0594 53.6719 88.0941 53.6721H88.0942H88.0943H88.0944H88.0944H88.0945H88.0945H88.0945C88.4026 53.6741 88.7112 53.6761 89.017 53.6549C89.6849 53.6081 89.6949 53.1788 89.7051 52.7374C89.7074 52.6391 89.7097 52.5401 89.7193 52.4447C89.7811 51.8339 89.4127 51.8316 88.9781 51.8362C88.0699 51.8445 87.1606 51.8431 86.2509 51.8418H86.2507H86.2506H86.2505H86.2503ZM85.1964 55.7253H87.9348H87.9395C88.2353 55.7253 88.5272 55.7253 88.509 56.1531C88.4953 56.5283 88.4106 56.8509 87.9508 56.8532C86.469 56.8587 84.9872 56.8583 83.5043 56.8579H83.504H83.5038H83.5007L82.3894 56.8578C81.9296 56.8578 81.8335 56.5672 81.8221 56.176C81.8072 55.7195 82.0958 55.7222 82.3898 55.7249L82.4274 55.7252L82.458 55.7253H85.1964ZM85.6324 47.1788C85.6329 46.9156 85.6334 46.6524 85.6334 46.3892L85.6357 46.3869C85.6357 46.103 85.6347 45.8191 85.6337 45.5353V45.5347C85.6314 44.8534 85.629 44.172 85.6403 43.4907C85.6449 43.1338 85.535 42.9874 85.1553 42.992C84.7778 42.9988 84.6634 43.159 84.6634 43.5067C84.6703 45.4398 84.6703 47.3706 84.6634 49.3015C84.6634 49.6606 84.8076 49.7956 85.1713 49.8047C85.5717 49.8139 85.6426 49.6217 85.638 49.2854C85.6297 48.5832 85.631 47.881 85.6324 47.1788ZM82.6114 40.5419C82.6434 40.7866 82.545 40.9536 82.195 40.9468C81.7809 40.9376 81.4378 40.8164 81.4126 40.3657C81.3943 40.0248 81.6277 39.764 81.9845 39.748C82.4673 39.7274 82.5862 40.0752 82.6137 40.5419H82.6114ZM87.6855 40.5418C87.6695 40.9079 87.8594 40.9765 88.0881 40.9468V40.949C88.5686 40.9307 88.9071 40.8049 88.882 40.3176C88.8637 39.9585 88.6166 39.7251 88.2666 39.7503C87.8136 39.7823 87.7015 40.1323 87.6855 40.5418Z" fill="url(#paint0_linear_359_418)"/>
</g>
<defs>
<filter id="filter0_d_359_418" x="0" y="0" width="131" height="131" filterUnits="userSpaceOnUse" color-interpolation-filters="sRGB">
<feFlood flood-opacity="0" result="BackgroundImageFix"/>
<feColorMatrix in="SourceAlpha" type="matrix" values="0 0 0 0 0 0 0 0 0 0 0 0 0 0 0 0 0 0 127 0" result="hardAlpha"/>
<feOffset dy="4"/>
<feGaussianBlur stdDeviation="2"/>
<feComposite in2="hardAlpha" operator="out"/>
<feColorMatrix type="matrix" values="0 0 0 0 0 0 0 0 0 0 0 0 0 0 0 0 0 0 0.25 0"/>
<feBlend mode="normal" in2="BackgroundImageFix" result="effect1_dropShadow_359_418"/>
<feBlend mode="normal" in="SourceGraphic" in2="effect1_dropShadow_359_418" result="shape"/>
</filter>
<linearGradient id="paint0_linear_359_418" x1="25" y1="61.1347" x2="106.896" y2="61.1347" gradientUnits="userSpaceOnUse">
<stop stop-color="#137DA4"/>
<stop offset="1" stop-color="#03A579"/>
</linearGradient>
</defs>
</svg>
