<svg width="131" height="131" viewBox="0 0 131 131" fill="none" xmlns="http://www.w3.org/2000/svg">
<g filter="url(#filter0_d_356_404)">
<circle cx="65.5" cy="61.5" r="61.5" fill="#F8F8F8"/>
<circle cx="65.5" cy="61.5" r="61" stroke="#03A679" stroke-opacity="0.39"/>
<path fill-rule="evenodd" clip-rule="evenodd" d="M73.7352 46.7135L73.7347 46.7132C73.5685 45.9114 73.4066 45.121 73.2465 44.3392L73.246 44.337L73.2458 44.3358C72.8366 42.3385 72.4389 40.3967 72.0114 38.4616C71.8621 37.7832 71.9837 37.3523 72.5234 36.8915C73.5155 36.0442 74.4753 35.1568 75.4351 34.2696L75.4352 34.2695L75.4353 34.2694L75.4354 34.2692L75.4356 34.2691L75.4357 34.269L75.4358 34.2689L75.4359 34.2688C75.805 33.9276 76.174 33.5865 76.5448 33.2477C76.934 32.8917 77.3218 32.5351 77.7308 32.1591L77.7332 32.1569L77.7346 32.1556L77.7348 32.1554L77.7351 32.1551L77.739 32.1515L77.7398 32.1508L77.7413 32.1494C78.0644 31.8523 78.4008 31.5431 78.7614 31.2124C77.9637 31.1228 77.1786 31.0327 76.4025 30.9436L76.4021 30.9435C74.2973 30.702 72.259 30.468 70.2172 30.2716C69.6156 30.214 69.3489 29.9857 69.1356 29.4545C68.3649 27.5302 67.5706 25.6156 66.7762 23.7006C66.5834 23.2357 66.3905 22.7707 66.198 22.3056C66.0746 22.007 65.9441 21.7115 65.8092 21.4061L65.8091 21.4058L65.809 21.4057L65.8088 21.4053L65.8084 21.4044C65.7499 21.2718 65.6905 21.1374 65.6305 21C65.4032 21.1855 65.3304 21.3932 65.2624 21.5873C65.2436 21.641 65.2251 21.6937 65.2038 21.7445C64.1222 24.3451 63.0448 26.9457 61.9696 29.5484L61.9451 29.6083C61.8137 29.93 61.6978 30.2139 61.2336 30.246C60.4454 30.2997 59.6609 30.3929 58.8764 30.4862C58.631 30.5153 58.3857 30.5445 58.1402 30.5724C56.9175 30.71 55.6957 30.8503 54.4286 30.9959L54.4265 30.9961L54.4255 30.9963L54.4226 30.9966L54.4156 30.9974L54.4093 30.9981C53.757 31.073 53.0927 31.1493 52.41 31.2274C52.9972 31.7621 53.5669 32.2924 54.1282 32.8149L54.1283 32.815C55.4189 34.0162 56.6653 35.1764 57.9781 36.2557C59.064 37.1453 59.3498 37.988 58.9808 39.364C58.5361 41.0264 58.2114 42.7212 57.879 44.4564C57.7362 45.2018 57.592 45.9547 57.4362 46.7156C58.1075 46.3344 58.7718 45.9588 59.4305 45.5865L59.4309 45.5863L59.4318 45.5858L59.4319 45.5857L59.4319 45.5857L59.4324 45.5854C61.2832 44.5393 63.0895 43.5183 64.8795 42.466C65.4171 42.1502 65.7948 42.1737 66.3153 42.4788C68.066 43.5006 69.8302 44.5 71.653 45.5325L71.6532 45.5326L71.6536 45.5328L71.6541 45.5331L71.6555 45.5339L71.656 45.5342L71.656 45.5342L71.6561 45.5342L71.6571 45.5348C72.3406 45.922 73.0323 46.3138 73.7347 46.7132L73.7352 46.7156V46.7135ZM37.2887 74.6584C39.6951 75.5502 41.5938 76.7961 41.7389 79.7487H41.7453C41.8454 79.671 41.9257 79.6097 41.9934 79.558L41.9935 79.5579C42.0988 79.4775 42.1739 79.4201 42.2466 79.3604C45.3848 76.8323 49.8734 78.3065 50.8292 82.2106C50.9614 82.7524 51.1342 82.842 51.6548 82.8058C54.1273 82.633 56.1818 83.9173 57.0629 86.1872C57.2442 86.6501 57.3871 86.7546 57.9034 86.6437C60.5851 86.0698 63.0022 87.369 64.007 89.9078C64.1926 90.3792 64.3718 90.4624 64.871 90.3579C66.742 89.9675 68.4017 90.4304 69.7841 91.7787C70.0145 92.0049 70.2535 92.2011 70.5372 92.3569C72.3079 93.3297 74.0765 94.3068 75.8429 95.286C76.2162 95.4929 76.596 95.6764 77.0312 95.7169C78.2429 95.8279 79.348 95.143 79.7342 94.0379C80.148 92.8539 79.6702 91.576 78.4947 90.9019C76.7229 89.8884 74.9433 88.8878 73.1638 87.8872L73.1632 87.8869L73.1612 87.8857C72.3232 87.4146 71.4852 86.9434 70.6482 86.4709C70.5958 86.4408 70.5429 86.4115 70.49 86.3821C70.31 86.2821 70.1297 86.1819 69.9697 86.0549C69.3959 85.5984 69.27 84.873 69.6391 84.2693C69.9847 83.7018 70.6652 83.4692 71.3031 83.721C71.5466 83.8176 71.7796 83.9492 72.01 84.0794L72.0818 84.1199C73.473 84.896 74.8634 85.6729 76.2538 86.4497L76.268 86.4576C78.0986 87.4804 79.9291 88.5031 81.7609 89.5237C83.3161 90.392 84.818 90.0912 85.5775 88.7664C86.3561 87.4138 85.8335 85.9461 84.2526 85.0373C84.1951 85.0042 84.1369 84.9722 84.0788 84.9402C84.0451 84.9217 84.0114 84.9031 83.9778 84.8843L83.9403 84.8633L83.9049 84.8431C82.9583 84.3071 82.0118 83.7714 81.0653 83.2358C79.5822 82.3964 78.0994 81.5572 76.6173 80.7172C75.5421 80.1071 75.2221 79.4073 75.653 78.6201C76.0904 77.8222 76.9053 77.7241 78.004 78.3406C78.1348 78.4138 78.265 78.4884 78.3949 78.5628C78.4958 78.6207 78.5966 78.6784 78.6974 78.7353C79.5569 79.2206 80.4159 79.7076 81.2751 80.1946L81.2793 80.197L81.2799 80.1973L81.2804 80.1976L81.2809 80.1979L81.2814 80.1982L81.282 80.1985L81.2825 80.1988L81.283 80.1991L81.2836 80.1994C83.2425 81.3099 85.2022 82.4207 87.1711 83.514C88.8522 84.4463 90.7999 83.5034 91.0666 81.6708C91.2202 80.6041 90.6591 79.6057 89.5071 78.9465C88.1002 78.1424 86.6912 77.3416 85.2822 76.5409L85.2806 76.54C82.3914 74.8981 79.5021 73.2561 76.6301 71.5843C75.1794 70.7394 73.7031 70.5624 72.1052 70.9208C70.5269 71.2739 69.0399 71.8791 67.5531 72.4843L67.553 72.4844C67.0724 72.68 66.5919 72.8756 66.1083 73.0627C64.1926 73.8051 62.2555 74.46 60.1947 74.6222C56.3567 74.923 53.4852 73.1971 51.2089 70.2637C50.2233 68.9965 50.3406 68.3138 51.7081 67.5117C54.2148 66.0418 56.6341 64.4439 58.8293 62.5388C59.8943 61.6153 60.9254 60.6519 61.9751 59.6711L61.9752 59.671C62.4604 59.2176 62.9496 58.7605 63.448 58.3019C62.0208 57.6491 60.6512 57.423 59.224 57.4848C57.8473 57.5438 56.517 57.8552 55.187 58.1665C54.7837 58.2609 54.3804 58.3553 53.9759 58.4427C51.8105 58.912 49.6707 59.0934 47.5736 58.0971C46.3173 57.4996 45.054 56.9156 43.7904 56.3315C42.5457 55.7561 41.3007 55.1806 40.062 54.592C39.5884 54.368 39.3623 54.3658 39.1148 54.8992C36.5697 60.367 34.0033 65.8263 31.4176 71.2749C31.1488 71.8403 31.2875 72.0301 31.8166 72.2563C32.5233 72.5574 33.2214 72.8807 33.9193 73.2039C35.0314 73.7189 36.1431 74.2338 37.2887 74.6584ZM99.7866 74.9278C99.9343 74.8694 100.084 74.81 100.042 74.6287H100.04C100.007 74.5411 99.9789 74.4634 99.9527 74.3911C99.919 74.2978 99.8886 74.2136 99.8561 74.1295C99.3569 72.8439 98.8571 71.5585 98.3572 70.2731L98.3516 70.2588L98.3509 70.2571L98.3505 70.256C96.6395 65.8561 94.9283 61.4559 93.2427 57.0455C92.9845 56.367 92.7456 56.3692 92.1845 56.6849C91.2747 57.197 90.352 57.6849 89.429 58.1729L89.429 58.1729L89.4289 58.173L89.4288 58.173L89.4288 58.173L89.4287 58.1731L89.4287 58.1731L89.4286 58.1731L89.4286 58.1732C88.8022 58.5044 88.1756 58.8356 87.553 59.1746C86.1108 59.9596 84.5961 60.1346 82.9982 59.8231C81.67 59.5631 80.4306 59.0575 79.191 58.5519C78.8337 58.4062 78.4765 58.2605 78.1171 58.1207C76.3955 57.4508 74.6482 56.9409 72.7709 57.0263C70.0679 57.15 67.8364 58.3852 65.7713 59.9916C65.0182 60.5783 64.2971 61.2162 63.6208 61.8903C60.8987 64.6104 57.8842 66.9571 54.6052 68.9624C54.0975 69.2739 54.0762 69.4595 54.5114 69.8627C56.2351 71.467 58.2256 72.171 60.5765 71.8254C61.6347 71.6697 62.6587 71.403 63.6571 71.0318C64.4898 70.7225 65.3194 70.4048 66.149 70.0871L66.1491 70.087C67.4024 69.607 68.6554 69.1271 69.9185 68.6766C72.9671 67.5886 75.8301 67.7891 78.6803 69.5555C81.3403 71.2051 84.0749 72.7339 86.8096 74.2628C87.9724 74.9129 89.1351 75.5629 90.2922 76.2223C90.3657 76.2641 90.4394 76.3057 90.5131 76.3472C91.1801 76.7233 91.8487 77.1003 92.3616 77.6901C92.5472 77.9034 92.7157 77.9482 92.9803 77.8351C94.4767 77.1908 95.975 76.5521 97.4734 75.9134C98.2222 75.5942 98.971 75.275 99.7196 74.9551L99.7332 74.9493L99.7471 74.9436L99.7864 74.9279L99.7866 74.9278ZM29.7172 37.5654L29.717 37.5654L29.7167 37.5655L29.7164 37.5655L29.7161 37.5655C29.1455 37.6318 28.5737 37.6983 28 37.7619H28.0021C28.0654 38.0349 28.2351 38.1702 28.3948 38.2975L28.3948 38.2975L28.3948 38.2976L28.3948 38.2976L28.3948 38.2976L28.3948 38.2976L28.3949 38.2976C28.4398 38.3335 28.484 38.3687 28.5248 38.4062C28.853 38.7082 29.1771 39.0158 29.5012 39.3235C30.3358 40.1158 31.1709 40.9086 32.079 41.6063C33.0945 42.3871 33.2758 43.1892 32.9494 44.3882C32.6111 45.6258 32.3713 46.8909 32.13 48.1642L32.13 48.1643L32.13 48.1643C32.0289 48.6974 31.9276 49.2319 31.8187 49.7664C32.1129 49.7731 32.2985 49.6527 32.4725 49.5397L32.4726 49.5397L32.4727 49.5396L32.4729 49.5395C32.5196 49.5092 32.5654 49.4794 32.6123 49.4528C32.9124 49.2841 33.2127 49.1157 33.513 48.9473C34.8571 48.1938 36.202 47.4398 37.5255 46.6517C38.0012 46.3679 38.3447 46.3722 38.8204 46.6517C40.1435 47.4315 41.4818 48.185 42.8221 48.9397L42.8221 48.9398L42.8221 48.9398L42.8222 48.9398L42.8222 48.9398L42.8222 48.9398L42.8222 48.9398L42.8233 48.9404C43.3564 49.2406 43.8898 49.5409 44.4227 49.8432C44.5135 49.642 44.475 49.4868 44.4374 49.3356C44.43 49.3056 44.4226 49.2758 44.4163 49.2459C44.2978 48.6781 44.1833 48.1094 44.0687 47.5406L44.0687 47.5406C43.8058 46.235 43.5428 44.9294 43.2323 43.6351C43.0637 42.9311 43.2557 42.5236 43.7699 42.0756C44.9189 41.0767 46.038 40.0435 47.1575 39.0099C47.4056 38.7808 47.6537 38.5517 47.9022 38.323C47.9399 38.2882 47.9832 38.2568 48.0273 38.2249C48.1725 38.1195 48.3259 38.0082 48.3161 37.7513C47.751 37.6892 47.1865 37.6249 46.6222 37.5607L46.6221 37.5606C45.207 37.3995 43.793 37.2384 42.3746 37.1134C41.5682 37.043 41.0626 36.8062 40.7277 35.9763C40.1919 34.6489 39.5882 33.3491 38.9614 31.9998C38.6998 31.4364 38.4341 30.8644 38.1676 30.2781C37.9093 30.8457 37.6526 31.4005 37.3998 31.947C36.7632 33.3231 36.1506 34.6473 35.5948 35.9955C35.2748 36.7721 34.8182 37.0451 34.0161 37.1134C32.5827 37.2325 31.1537 37.3985 29.7174 37.5654L29.7172 37.5654ZM86.6015 49.9286C86.7318 49.3006 86.8574 48.6879 86.9806 48.0865C87.299 46.5324 87.602 45.0538 87.9327 43.5818C88.0692 42.9717 87.9668 42.5727 87.4783 42.1461C86.3364 41.149 85.2201 40.123 84.0522 39.0496L84.0516 39.049L84.0512 39.0486L84.0511 39.0486L84.0511 39.0485L84.051 39.0485C83.6025 38.6362 83.1463 38.217 82.6782 37.7897L83.9371 37.6449L83.9378 37.6448C85.0542 37.5165 86.1153 37.3945 87.1754 37.2713C87.4429 37.2401 87.7229 37.2294 88.0033 37.2187C88.6621 37.1936 89.3228 37.1685 89.8271 36.8766C90.3323 36.5824 90.5426 35.9551 90.7527 35.3282C90.8442 35.0549 90.9358 34.7818 91.0517 34.5363C91.5093 33.568 91.9497 32.59 92.4134 31.5603L92.4135 31.5602L92.416 31.5546C92.6043 31.1365 92.7965 30.7098 92.9952 30.2717C93.4432 31.2637 93.8336 32.1278 94.2262 32.9918C94.3629 33.2924 94.5074 33.5907 94.6521 33.889C94.9836 34.5731 95.3154 35.2576 95.5531 35.9721C95.8432 36.8446 96.4022 37.0388 97.2022 37.1113C98.6119 37.2403 100.02 37.3995 101.43 37.559L101.43 37.559L101.43 37.559L101.43 37.559L101.43 37.559L101.43 37.559C102.002 37.6237 102.575 37.6885 103.148 37.7513C103.132 38.0236 102.963 38.1521 102.803 38.2735C102.755 38.3101 102.708 38.3459 102.666 38.3849C102.455 38.5787 102.245 38.7726 102.035 38.9665C100.877 40.0347 99.719 41.1026 98.5292 42.1354C98.0449 42.5557 97.9105 42.9461 98.0555 43.5733C98.3879 45.0098 98.681 46.4552 98.9739 47.8997L98.974 47.9006C99.0608 48.3285 99.1475 48.7565 99.2353 49.184C99.2582 49.2959 99.2701 49.4103 99.2859 49.5633L99.286 49.5641C99.2952 49.6531 99.3057 49.7552 99.3206 49.8774L98.9727 49.6826L98.9714 49.6818L98.9678 49.6799C98.2575 49.2822 97.6139 48.9219 96.9718 48.5568C96.6975 48.4013 96.4228 48.2467 96.1481 48.0921C95.2886 47.6083 94.4296 47.1247 93.584 46.6155C93.1701 46.3659 92.8544 46.3595 92.4277 46.6091C91.0657 47.4061 89.6925 48.1819 88.2576 48.9925L88.2575 48.9925C87.7145 49.2992 87.1627 49.611 86.5994 49.9307L86.6015 49.9286ZM46.3769 93.4599C45.579 95.1068 46.891 96.9885 48.9561 96.9906V96.9927C49.6132 96.9586 50.4047 96.6279 50.8484 95.8279C52.0858 93.5985 53.306 91.3585 54.4474 89.0801C55.0319 87.9131 54.4645 86.456 53.3508 85.8459C52.2266 85.2293 50.6159 85.5749 49.9716 86.712C48.715 88.9286 47.4883 91.1686 46.3769 93.4599ZM61.6091 91.916C61.6324 92.3254 61.4746 92.7433 61.2592 93.1485C61.0326 93.5736 60.8066 93.999 60.5806 94.4245C59.947 95.6172 59.3135 96.8098 58.6672 97.9955C57.8949 99.4099 56.393 99.9006 55.0916 99.1902C53.8287 98.5011 53.4063 96.9843 54.1252 95.6082C55.0106 93.9143 55.9045 92.2247 56.8367 90.5564C57.4341 89.4855 58.6224 89.0332 59.7787 89.3489C60.872 89.6473 61.6204 90.6718 61.6091 91.916ZM47.8425 84.7941C48.0729 84.3675 48.2371 83.9237 48.1987 83.4885C48.1902 82.2256 47.467 81.2613 46.3363 80.9477C45.2632 80.6511 44.0259 81.1226 43.4563 82.136C42.5986 83.6613 41.7816 85.2123 40.973 86.7654C40.2477 88.1627 40.6615 89.6518 41.9373 90.3452C43.2387 91.0534 44.7299 90.5606 45.5064 89.142C46.028 88.1916 46.5385 87.2347 47.0488 86.2781L47.0492 86.2773L47.0499 86.276C47.3136 85.7817 47.5773 85.2874 47.8425 84.7941ZM61.0693 99.9475C61.0501 99.5421 61.1973 99.0963 61.4277 98.6675C61.7209 98.1226 62.0116 97.5761 62.3022 97.0295C62.7581 96.1722 63.2142 95.3146 63.6806 94.4626C64.4422 93.0695 65.974 92.581 67.2604 93.2935C68.4977 93.9783 68.9137 95.5143 68.1991 96.884C67.4268 98.3645 66.6502 99.8429 65.8289 101.298C65.2401 102.339 64.0561 102.796 62.9638 102.49C61.8203 102.173 61.0757 101.208 61.0672 99.9475H61.0693ZM72.1702 96.4039C71.8992 96.2585 71.6222 96.1099 71.3394 95.9517C71.2029 97.0589 70.7612 97.957 70.2791 98.8445C69.1847 100.865 69.1932 100.871 71.3372 101.795C72.549 102.318 73.9421 101.876 74.5992 100.758C75.269 99.6189 74.9661 98.1128 73.844 97.3682C73.3169 97.0193 72.7578 96.7193 72.1702 96.4039Z" fill="url(#paint0_linear_356_404)"/>
</g>
<defs>
<filter id="filter0_d_356_404" x="0" y="0" width="131" height="131" filterUnits="userSpaceOnUse" color-interpolation-filters="sRGB">
<feFlood flood-opacity="0" result="BackgroundImageFix"/>
<feColorMatrix in="SourceAlpha" type="matrix" values="0 0 0 0 0 0 0 0 0 0 0 0 0 0 0 0 0 0 127 0" result="hardAlpha"/>
<feOffset dy="4"/>
<feGaussianBlur stdDeviation="2"/>
<feComposite in2="hardAlpha" operator="out"/>
<feColorMatrix type="matrix" values="0 0 0 0 0 0 0 0 0 0 0 0 0 0 0 0 0 0 0.25 0"/>
<feBlend mode="normal" in2="BackgroundImageFix" result="effect1_dropShadow_356_404"/>
<feBlend mode="normal" in="SourceGraphic" in2="effect1_dropShadow_356_404" result="shape"/>
</filter>
<linearGradient id="paint0_linear_356_404" x1="28" y1="61.7918" x2="103.148" y2="61.7918" gradientUnits="userSpaceOnUse">
<stop stop-color="#137DA4"/>
<stop offset="1" stop-color="#03A579"/>
</linearGradient>
</defs>
</svg>
