<svg width="59" height="39" viewBox="0 0 59 39" fill="none" xmlns="http://www.w3.org/2000/svg">
<path d="M33.5566 0.029318C38.4719 0.0293182 43.3819 0.0695223 48.2972 0.000598662C49.4998 -0.0166322 50.1615 0.333731 50.6919 1.5801C53.0445 7.08827 55.4759 12.5562 57.9335 18.0127C58.3851 19.0121 58.3851 19.8047 57.9335 20.8041C55.4706 26.2548 53.0445 31.7286 50.6813 37.231C50.1877 38.3797 49.5943 38.7588 48.4495 38.753C38.4929 38.7071 28.5363 38.7128 18.5797 38.7473C17.6502 38.7473 16.9938 38.4429 16.3426 37.7249C11.128 31.9755 5.9081 26.2376 0.630469 20.5571C-0.262265 19.5979 -0.167741 19.0753 0.667228 18.1735C5.93436 12.4873 11.17 6.76088 16.3688 0.999996C17.0935 0.195885 17.855 0.00634332 18.816 0.012087C23.7313 0.0465492 28.6413 0.0293177 33.5566 0.029318Z" fill="#147CA6"/>
</svg>
