<svg width="268" height="327" viewBox="0 0 268 327" fill="none" xmlns="http://www.w3.org/2000/svg">
<path d="M16.8316 281.634H19.3635V287.04H5.90586C5.03909 287.04 4.27117 286.926 3.6021 286.698C2.93302 286.469 2.36278 286.112 1.89138 285.626C1.43519 285.139 1.08544 284.523 0.842143 283.778C0.614048 283.018 0.5 282.105 0.5 281.041V273.035C0.5 270.921 0.963794 269.4 1.89138 268.473C2.83417 267.53 4.17233 267.059 5.90586 267.059H11.4486C13.1821 267.059 14.505 267.53 15.4174 268.473C16.345 269.4 16.8164 270.921 16.8316 273.035V281.634ZM11.4258 281.634V272.442H5.90586V281.634H11.4258ZM8.09557 260.603C8.09557 260.968 8.01954 261.318 7.86748 261.653C7.73062 261.987 7.53294 262.276 7.27443 262.519C7.03113 262.763 6.74221 262.96 6.40767 263.113C6.08833 263.249 5.73859 263.318 5.35843 263.318C4.99348 263.318 4.64373 263.249 4.30919 263.113C3.98986 262.96 3.70854 262.763 3.46524 262.519C3.22194 262.276 3.02425 261.987 2.87219 261.653C2.73533 261.318 2.6669 260.968 2.6669 260.603C2.6669 260.239 2.73533 259.889 2.87219 259.554C3.02425 259.22 3.22194 258.931 3.46524 258.687C3.70854 258.444 3.98986 258.254 4.30919 258.117C4.64373 257.965 4.99348 257.889 5.35843 257.889C5.73859 257.889 6.08833 257.965 6.40767 258.117C6.74221 258.254 7.03113 258.444 7.27443 258.687C7.53294 258.931 7.73062 259.22 7.86748 259.554C8.01954 259.889 8.09557 260.239 8.09557 260.603ZM14.6419 260.603C14.6419 260.968 14.5659 261.318 14.4138 261.653C14.277 261.987 14.0869 262.276 13.8436 262.519C13.6003 262.763 13.3113 262.96 12.9768 263.113C12.6423 263.249 12.2925 263.318 11.9276 263.318C11.5626 263.318 11.2129 263.249 10.8783 263.113C10.559 262.96 10.2777 262.763 10.0344 262.519C9.79108 262.276 9.5934 261.987 9.44133 261.653C9.30448 261.318 9.23605 260.968 9.23605 260.603C9.23605 260.239 9.30448 259.889 9.44133 259.554C9.5934 259.22 9.79108 258.931 10.0344 258.687C10.2777 258.444 10.559 258.254 10.8783 258.117C11.2129 257.965 11.5626 257.889 11.9276 257.889C12.2925 257.889 12.6423 257.965 12.9768 258.117C13.3113 258.254 13.6003 258.444 13.8436 258.687C14.0869 258.931 14.277 259.22 14.4138 259.554C14.5659 259.889 14.6419 260.239 14.6419 260.603Z" fill="white"/>
<path d="M26.5029 293.449C26.5029 293.829 26.4268 294.179 26.2748 294.498C26.1379 294.833 25.9478 295.122 25.7045 295.365C25.4612 295.624 25.1723 295.821 24.8378 295.958C24.5184 296.11 24.1763 296.186 23.8113 296.186C23.4464 296.186 23.0966 296.11 22.7621 295.958C22.4428 295.821 22.1614 295.624 21.9181 295.365C21.6748 295.122 21.4772 294.833 21.3251 294.498C21.1882 294.179 21.1198 293.829 21.1198 293.449C21.1198 293.084 21.1882 292.734 21.3251 292.4C21.4772 292.081 21.6748 291.799 21.9181 291.556C22.1614 291.313 22.4428 291.115 22.7621 290.963C23.0966 290.826 23.4464 290.758 23.8113 290.758C24.1763 290.758 24.5184 290.826 24.8378 290.963C25.1723 291.115 25.4612 291.313 25.7045 291.556C25.9478 291.799 26.1379 292.081 26.2748 292.4C26.4268 292.734 26.5029 293.084 26.5029 293.449ZM33.0264 293.449C33.0264 293.829 32.9503 294.179 32.7983 294.498C32.6614 294.833 32.4713 295.122 32.228 295.365C31.9847 295.624 31.6958 295.821 31.3613 295.958C31.042 296.11 30.6922 296.186 30.312 296.186C29.9471 296.186 29.5973 296.11 29.2628 295.958C28.9435 295.821 28.6622 295.624 28.4189 295.365C28.1756 295.122 27.9779 294.833 27.8258 294.498C27.689 294.179 27.6205 293.829 27.6205 293.449C27.6205 293.084 27.689 292.734 27.8258 292.4C27.9779 292.081 28.1756 291.799 28.4189 291.556C28.6622 291.313 28.9435 291.115 29.2628 290.963C29.5973 290.826 29.9471 290.758 30.312 290.758C30.6922 290.758 31.042 290.826 31.3613 290.963C31.6958 291.115 31.9847 291.313 32.228 291.556C32.4713 291.799 32.6614 292.081 32.7983 292.4C32.9503 292.734 33.0264 293.084 33.0264 293.449ZM29.4681 281.634H34.6915V287.04H19.0898V281.634H24.0394V268.267C24.0394 267.963 24.1535 267.697 24.3816 267.469C24.6097 267.226 24.891 267.104 25.2255 267.104H28.3048C28.6241 267.104 28.8979 267.226 29.126 267.469C29.354 267.697 29.4681 267.963 29.4681 268.267V281.634Z" fill="white"/>
<path d="M47.7613 281.634V272.442H42.2414V281.634H47.7613ZM34.4634 281.634H36.8356V273.035C36.8356 270.921 37.2994 269.4 38.227 268.473C39.1545 267.53 40.4927 267.059 42.2414 267.059H47.7613C49.5101 267.059 50.8482 267.53 51.7758 268.473C52.7034 269.4 53.1672 270.921 53.1672 273.035V281.041C53.1672 282.105 53.0455 283.018 52.8022 283.778C52.5741 284.523 52.232 285.139 51.7758 285.626C51.3196 286.112 50.757 286.469 50.0879 286.698C49.4188 286.926 48.6509 287.04 47.7841 287.04H34.4634V281.634Z" fill="white"/>
<path d="M61.5611 281.634H67.081V260.946C67.081 260.626 67.1874 260.353 67.4003 260.124C67.6132 259.896 67.8793 259.782 68.1987 259.782H71.3008C71.6201 259.782 71.8938 259.896 72.1219 260.124C72.35 260.353 72.4641 260.626 72.4641 260.946V281.634H75.0187V287.04H61.5383C60.6715 287.04 59.9036 286.926 59.2345 286.698C58.5654 286.469 57.9952 286.112 57.5238 285.626C57.0676 285.139 56.7179 284.523 56.4746 283.778C56.2465 283.018 56.1324 282.105 56.1324 281.041V260.946C56.1324 260.626 56.2465 260.353 56.4746 260.124C56.7027 259.896 56.9764 259.782 57.2957 259.782H60.375C60.7095 259.782 60.9909 259.896 61.2189 260.124C61.447 260.353 61.5611 260.626 61.5611 260.946V281.634Z" fill="white"/>
<path d="M93.6997 281.634H99.2196V268.267C99.2196 267.963 99.3337 267.697 99.5618 267.469C99.7898 267.226 100.064 267.104 100.383 267.104H103.485C103.789 267.104 104.055 267.226 104.283 267.469C104.527 267.697 104.648 267.963 104.648 268.267V281.041C104.648 282.105 104.527 283.018 104.283 283.778C104.055 284.523 103.705 285.139 103.234 285.626C102.778 286.112 102.208 286.469 101.523 286.698C100.854 286.926 100.086 287.04 99.2196 287.04H74.745V281.634H77.3681V268.267C77.3681 267.963 77.4745 267.697 77.6874 267.469C77.9003 267.226 78.1588 267.104 78.463 267.104H81.5879C81.9072 267.104 82.1809 267.226 82.409 267.469C82.6371 267.697 82.7511 267.963 82.7511 268.267V281.634H88.271V268.267C88.271 267.963 88.3851 267.697 88.6132 267.469C88.8413 267.226 89.115 267.104 89.4343 267.104H92.5136C92.8329 267.104 93.1067 267.226 93.3348 267.469C93.5781 267.697 93.6997 267.963 93.6997 268.267V281.634Z" fill="white"/>
<path d="M121.892 281.634V260.946C121.892 260.626 121.999 260.353 122.212 260.124C122.44 259.896 122.721 259.782 123.056 259.782H126.158C126.477 259.782 126.751 259.896 126.979 260.124C127.207 260.353 127.321 260.626 127.321 260.946V281.041C127.291 283.17 126.819 284.706 125.907 285.648C124.994 286.576 123.664 287.04 121.915 287.04H108.48C108.176 287.04 107.902 286.926 107.659 286.698C107.431 286.469 107.317 286.196 107.317 285.876V282.774C107.317 282.47 107.431 282.204 107.659 281.976C107.902 281.748 108.176 281.634 108.48 281.634H110.967V260.946C110.967 260.626 111.081 260.353 111.309 260.124C111.537 259.896 111.81 259.782 112.13 259.782H115.209C115.528 259.782 115.802 259.896 116.03 260.124C116.274 260.353 116.395 260.626 116.395 260.946V281.634H121.892ZM108.8 294.43V292.674C108.8 291.731 109.005 291.054 109.415 290.644C109.826 290.233 110.419 290.028 111.195 290.028H113.316C113.544 290.028 113.734 290.111 113.886 290.279C114.053 290.446 114.137 290.644 114.137 290.872V292.035C114.137 292.263 114.053 292.461 113.886 292.628C113.734 292.795 113.544 292.879 113.316 292.879H111.628V294.43H113.316C113.544 294.43 113.734 294.514 113.886 294.681C114.053 294.863 114.137 295.069 114.137 295.297V296.414C114.137 296.658 114.053 296.863 113.886 297.03C113.734 297.198 113.544 297.281 113.316 297.281H108.321C108.077 297.281 107.872 297.198 107.705 297.03C107.537 296.863 107.454 296.658 107.454 296.414V295.297C107.454 295.069 107.537 294.863 107.705 294.681C107.872 294.514 108.077 294.43 108.321 294.43H108.8Z" fill="white"/>
<path d="M130.902 260.946C130.902 260.626 131.016 260.353 131.244 260.124C131.472 259.896 131.746 259.782 132.065 259.782H135.167C135.472 259.782 135.738 259.896 135.966 260.124C136.194 260.353 136.308 260.626 136.308 260.946V286.036C136.308 286.355 136.194 286.629 135.966 286.857C135.738 287.07 135.472 287.177 135.167 287.177H132.065C131.746 287.177 131.472 287.07 131.244 286.857C131.016 286.629 130.902 286.355 130.902 286.036V260.946Z" fill="white"/>
<path d="M165.595 281.634H168.127V287.04H154.67C153.803 287.04 153.035 286.926 152.366 286.698C151.697 286.469 151.126 286.112 150.655 285.626C150.199 285.139 149.849 284.523 149.606 283.778C149.378 283.018 149.264 282.105 149.264 281.041V273.035C149.264 270.921 149.727 269.4 150.655 268.473C151.598 267.53 152.936 267.059 154.67 267.059H160.212C161.946 267.059 163.269 267.53 164.181 268.473C165.109 269.4 165.58 270.921 165.595 273.035V281.634ZM160.189 281.634V272.442H154.67V281.634H160.189ZM156.859 260.603C156.859 260.968 156.783 261.318 156.631 261.653C156.494 261.987 156.297 262.276 156.038 262.519C155.795 262.763 155.506 262.96 155.171 263.113C154.852 263.249 154.502 263.318 154.122 263.318C153.757 263.318 153.407 263.249 153.073 263.113C152.754 262.96 152.472 262.763 152.229 262.519C151.986 262.276 151.788 261.987 151.636 261.653C151.499 261.318 151.431 260.968 151.431 260.603C151.431 260.239 151.499 259.889 151.636 259.554C151.788 259.22 151.986 258.931 152.229 258.687C152.472 258.444 152.754 258.254 153.073 258.117C153.407 257.965 153.757 257.889 154.122 257.889C154.502 257.889 154.852 257.965 155.171 258.117C155.506 258.254 155.795 258.444 156.038 258.687C156.297 258.931 156.494 259.22 156.631 259.554C156.783 259.889 156.859 260.239 156.859 260.603ZM163.406 260.603C163.406 260.968 163.33 261.318 163.178 261.653C163.041 261.987 162.851 262.276 162.607 262.519C162.364 262.763 162.075 262.96 161.741 263.113C161.406 263.249 161.056 263.318 160.691 263.318C160.326 263.318 159.977 263.249 159.642 263.113C159.323 262.96 159.041 262.763 158.798 262.519C158.555 262.276 158.357 261.987 158.205 261.653C158.068 261.318 158 260.968 158 260.603C158 260.239 158.068 259.889 158.205 259.554C158.357 259.22 158.555 258.931 158.798 258.687C159.041 258.444 159.323 258.254 159.642 258.117C159.977 257.965 160.326 257.889 160.691 257.889C161.056 257.889 161.406 257.965 161.741 258.117C162.075 258.254 162.364 258.444 162.607 258.687C162.851 258.931 163.041 259.22 163.178 259.554C163.33 259.889 163.406 260.239 163.406 260.603Z" fill="white"/>
<path d="M173.966 281.634C173.89 281.451 173.776 281.193 173.624 280.858C173.487 280.509 173.343 280.151 173.191 279.786C173.039 279.406 172.894 279.056 172.758 278.737C172.621 278.402 172.522 278.152 172.461 277.984C172.096 277.087 171.769 276.289 171.48 275.589C171.191 274.875 170.948 274.236 170.75 273.673C170.568 273.111 170.423 272.601 170.317 272.145C170.226 271.689 170.18 271.256 170.18 270.845C170.18 270.693 170.18 270.548 170.18 270.412C170.195 270.259 170.21 270.123 170.226 270.001C170.332 269.393 170.56 268.899 170.91 268.518C171.275 268.123 171.708 267.819 172.21 267.606C172.727 267.393 173.29 267.249 173.898 267.173C174.521 267.097 175.137 267.059 175.746 267.059H184.185C184.793 267.059 185.402 267.097 186.01 267.173C186.633 267.249 187.196 267.393 187.698 267.606C188.215 267.819 188.648 268.123 188.998 268.518C189.363 268.899 189.591 269.393 189.682 270.001C189.728 270.275 189.751 270.579 189.751 270.913C189.751 271.719 189.614 272.502 189.34 273.263C189.082 274.008 188.793 274.768 188.473 275.544V275.498L185.987 281.634H192.1V287.04H167.808V281.634H173.966ZM175.928 272.442L179.988 281.953L184.482 272.442H175.928Z" fill="white"/>
<path d="M205.147 281.634V272.442H199.627V281.634H205.147ZM191.849 281.634H194.221V273.035C194.221 270.921 194.685 269.4 195.613 268.473C196.54 267.53 197.878 267.059 199.627 267.059H205.147C206.896 267.059 208.234 267.53 209.162 268.473C210.089 269.4 210.553 270.921 210.553 273.035V281.041C210.553 282.105 210.431 283.018 210.188 283.778C209.96 284.523 209.618 285.139 209.162 285.626C208.705 286.112 208.143 286.469 207.474 286.698C206.805 286.926 206.037 287.04 205.17 287.04H191.849V281.634Z" fill="white"/>
<path d="M218.627 281.634H220.977V287.04H218.627C217.761 287.04 216.993 286.926 216.324 286.698C215.655 286.469 215.084 286.112 214.613 285.626C214.157 285.139 213.807 284.523 213.564 283.778C213.336 283.018 213.222 282.105 213.222 281.041V260.946C213.222 260.626 213.336 260.353 213.564 260.124C213.792 259.896 214.066 259.782 214.385 259.782H217.464C217.784 259.782 218.057 259.896 218.285 260.124C218.513 260.353 218.627 260.626 218.627 260.946V281.634Z" fill="white"/>
<path d="M224.17 267.173C224.581 267.112 224.961 267.081 225.311 267.081C225.676 267.066 226.033 267.059 226.383 267.059C227.995 267.059 229.477 267.218 230.831 267.538C232.184 267.842 233.378 268.374 234.412 269.134C235.446 269.895 236.305 270.921 236.989 272.214C237.673 273.506 238.16 275.133 238.449 277.095L238.472 281.634H241.095V287.04H220.817V281.634H233.248V276.867C233.112 276.03 232.868 275.338 232.518 274.791C232.184 274.244 231.773 273.818 231.287 273.514C230.815 273.194 230.283 272.966 229.69 272.829C229.097 272.693 228.481 272.609 227.843 272.578C227.219 272.533 226.58 272.525 225.927 272.556C225.273 272.571 224.642 272.578 224.033 272.578C223.714 272.578 223.44 272.472 223.212 272.259C222.984 272.031 222.87 271.757 222.87 271.438V268.313C222.87 268.009 222.999 267.75 223.258 267.538C223.516 267.325 223.82 267.203 224.17 267.173ZM232.587 293.449C232.587 293.829 232.511 294.179 232.359 294.498C232.222 294.833 232.032 295.122 231.789 295.365C231.545 295.624 231.256 295.821 230.922 295.958C230.587 296.11 230.238 296.186 229.873 296.186C229.508 296.186 229.158 296.11 228.823 295.958C228.504 295.821 228.223 295.624 227.979 295.365C227.736 295.122 227.538 294.833 227.386 294.498C227.249 294.179 227.181 293.829 227.181 293.449C227.181 293.084 227.249 292.734 227.386 292.4C227.538 292.081 227.736 291.799 227.979 291.556C228.223 291.313 228.504 291.115 228.823 290.963C229.158 290.826 229.508 290.758 229.873 290.758C230.238 290.758 230.587 290.826 230.922 290.963C231.256 291.115 231.545 291.313 231.789 291.556C232.032 291.799 232.222 292.081 232.359 292.4C232.511 292.734 232.587 293.084 232.587 293.449Z" fill="white"/>
<path d="M243.193 281.634V260.946C243.193 260.626 243.307 260.353 243.535 260.124C243.764 259.896 244.037 259.782 244.357 259.782H247.459C247.778 259.782 248.044 259.896 248.257 260.124C248.47 260.353 248.576 260.626 248.576 260.946V281.041C248.576 282.105 248.455 283.018 248.211 283.778C247.983 284.523 247.641 285.139 247.185 285.626C246.729 286.112 246.166 286.469 245.497 286.698C244.828 286.926 244.06 287.04 243.193 287.04H240.844V281.634H243.193Z" fill="white"/>
<path d="M251.975 260.946C251.975 260.626 252.089 260.353 252.317 260.124C252.545 259.896 252.819 259.782 253.138 259.782H256.24C256.544 259.782 256.811 259.896 257.039 260.124C257.267 260.353 257.381 260.626 257.381 260.946V286.036C257.381 286.355 257.267 286.629 257.039 286.857C256.811 287.07 256.544 287.177 256.24 287.177H253.138C252.819 287.177 252.545 287.07 252.317 286.857C252.089 286.629 251.975 286.355 251.975 286.036V260.946Z" fill="white"/>
<path d="M1.57614 305.414H3.81267V321.529H1.57614V305.414Z" fill="white"/>
<path d="M11.5362 317.665H13.6857C13.6857 318.121 13.7147 318.46 13.7727 318.684C13.8307 318.899 13.9549 319.102 14.1455 319.293C14.6176 319.773 15.3341 320.013 16.295 320.013C17.0654 320.013 17.6825 319.86 18.1464 319.554C18.6102 319.239 18.8422 318.82 18.8422 318.299C18.8422 318.05 18.7593 317.826 18.5937 317.628C18.4363 317.429 18.1339 317.23 17.6866 317.031L13.9715 315.876C12.6047 315.254 11.9213 314.248 11.9213 312.856C11.9213 311.838 12.3231 311.013 13.1266 310.384C13.9384 309.746 15.0028 309.427 16.3199 309.427C18.076 309.427 19.3433 309.986 20.122 311.104C20.3291 311.427 20.4699 311.722 20.5444 311.987C20.6273 312.252 20.6687 312.645 20.6687 313.167H18.5937C18.5937 312.62 18.4694 312.219 18.2209 311.962C17.7405 311.481 17.0778 311.241 16.2329 311.241C15.5951 311.241 15.0608 311.382 14.63 311.664C14.2076 311.937 13.9964 312.277 13.9964 312.682C13.9964 313.32 14.336 313.772 15.0152 314.037L18.4694 315.105C18.7345 315.221 19.0078 315.341 19.2895 315.466C19.3889 315.507 19.4966 315.565 19.6125 315.64C20.5403 316.203 21.0042 316.998 21.0042 318.025C21.0042 319.052 20.6231 319.926 19.861 320.647C19.0161 321.442 17.8192 321.84 16.2702 321.84C14.7377 321.84 13.5656 321.488 12.7538 320.784C11.9421 320.071 11.5362 319.032 11.5362 317.665Z" fill="white"/>
<path d="M28.3425 305.302H30.3802V321.529H28.3425V305.302Z" fill="white"/>
<path d="M38.3895 313.403C38.3895 312.823 38.4392 312.38 38.5386 312.074C38.638 311.767 38.8119 311.436 39.0604 311.08C39.8557 309.978 41.2059 309.427 43.1111 309.427C45.0328 309.427 46.3457 309.899 47.0498 310.844C47.4309 311.324 47.6214 312.09 47.6214 313.142V318.771C47.6214 319.583 47.8616 319.988 48.3421 319.988L48.926 319.939V321.492C48.6196 321.591 48.3793 321.658 48.2054 321.691C48.0397 321.716 47.8616 321.728 47.6711 321.728C46.5694 321.728 45.9399 321.132 45.7825 319.939C44.6394 321.206 43.2891 321.84 41.7319 321.84C40.5722 321.84 39.6444 321.525 38.9486 320.895C38.2528 320.258 37.9049 319.4 37.9049 318.323C37.9049 316.832 38.5593 315.785 39.8681 315.18C40.7461 314.766 42.2827 314.434 44.4778 314.186L45.6582 314.024V313.453C45.6582 313.08 45.6334 312.794 45.5837 312.595C45.5422 312.388 45.4553 312.202 45.3227 312.036C44.9003 311.506 44.1631 311.241 43.1111 311.241C42.0176 311.241 41.268 311.543 40.8621 312.148C40.7213 312.322 40.626 312.5 40.5763 312.682C40.5266 312.856 40.5018 313.097 40.5018 313.403H38.3895ZM45.6334 315.615C45.1115 315.689 44.6269 315.764 44.1796 315.838C43.7406 315.905 43.198 316.008 42.5519 316.149C41.6407 316.356 40.9988 316.613 40.626 316.919C40.2615 317.218 40.0793 317.648 40.0793 318.212C40.0793 318.775 40.2657 319.218 40.6384 319.541C41.0112 319.856 41.5289 320.013 42.1916 320.013C43.1442 320.013 43.956 319.744 44.6269 319.206C45.2979 318.659 45.6334 318.013 45.6334 317.267V315.615Z" fill="white"/>
<path d="M70.2427 321.554V314.248C70.2427 313.047 70.0812 312.227 69.7581 311.788C69.4351 311.349 68.8718 311.129 68.0683 311.129C67.1074 311.129 66.3577 311.427 65.8193 312.024C65.2892 312.62 65.0241 313.457 65.0241 314.534V321.554H62.9988V314.248C62.9988 313.047 62.8331 312.227 62.5018 311.788C62.1787 311.349 61.6196 311.129 60.8244 311.129C59.8718 311.129 59.1263 311.432 58.5879 312.036C58.0494 312.641 57.7802 313.473 57.7802 314.534V321.554H55.7798V309.688H57.6808V311.365C58.1281 310.694 58.6541 310.197 59.2588 309.874C59.8635 309.543 60.5759 309.377 61.396 309.377C62.1332 309.377 62.7627 309.531 63.2846 309.837C63.8064 310.135 64.2579 310.603 64.6389 311.241C65.1525 310.603 65.7158 310.135 66.3288 309.837C66.9417 309.531 67.65 309.377 68.4535 309.377C69.2238 309.377 69.8906 309.518 70.4539 309.8C71.0255 310.073 71.4645 310.475 71.771 311.005C71.9367 311.303 72.0568 311.664 72.1313 312.086C72.2059 312.508 72.2431 313.175 72.2431 314.086V321.554H70.2427Z" fill="white"/>
<path d="M79.8424 305.414H81.8801V307.712H79.8424V305.414ZM79.8424 309.725H81.8801V321.529H79.8424V309.725Z" fill="white"/>
<path d="M97.4688 317.329H99.5438C99.403 318.431 99.1006 319.317 98.6367 319.988C98.1646 320.61 97.5972 321.078 96.9345 321.392C96.2718 321.707 95.5263 321.865 94.6979 321.865C92.9584 321.865 91.6124 321.339 90.6598 320.287C89.7072 319.226 89.2309 317.74 89.2309 315.826C89.2309 313.788 89.703 312.214 90.6473 311.104C91.5917 309.986 92.9294 309.427 94.6607 309.427C96.044 309.427 97.1623 309.816 98.0155 310.595C98.8769 311.365 99.3864 312.442 99.5438 313.826H97.4688C97.096 312.119 96.16 311.266 94.6607 311.266C93.6252 311.266 92.8217 311.639 92.2502 312.384C91.6786 313.13 91.3928 314.173 91.3928 315.515C91.3928 316.965 91.6745 318.079 92.2378 318.858C92.801 319.636 93.617 320.026 94.6855 320.026C96.0771 320.026 97.0049 319.127 97.4688 317.329Z" fill="white"/>
<path d="M116.817 305.389H119.079V315.441C119.079 316.153 119.128 316.729 119.228 317.168C119.327 317.599 119.514 317.984 119.787 318.323C120.118 318.779 120.582 319.139 121.179 319.404C121.783 319.67 122.438 319.802 123.142 319.802C124.566 319.802 125.643 319.309 126.372 318.323C126.637 317.959 126.828 317.566 126.944 317.143C127.068 316.721 127.13 316.178 127.13 315.515V305.389H129.392V315.528C129.392 316.414 129.309 317.156 129.143 317.752C128.986 318.34 128.696 318.924 128.273 319.504C127.114 321.061 125.382 321.84 123.08 321.84C120.694 321.84 118.938 321.065 117.811 319.516C117.563 319.144 117.368 318.775 117.227 318.41C117.086 318.038 116.983 317.595 116.917 317.081C116.85 316.567 116.817 316.103 116.817 315.689V305.389Z" fill="white"/>
<path d="M137.6 309.725H139.637V311.266C140.259 310.562 140.83 310.081 141.352 309.825C141.874 309.56 142.516 309.427 143.278 309.427C144.023 309.427 144.665 309.568 145.204 309.849C145.751 310.131 146.198 310.541 146.546 311.08C146.687 311.345 146.798 311.614 146.881 311.887C146.964 312.161 147.005 312.484 147.005 312.856L147.03 314.012V321.529H144.993V314.397C144.993 313.295 144.86 312.554 144.595 312.173C144.197 311.568 143.555 311.266 142.669 311.266C141.468 311.266 140.594 311.767 140.047 312.769C139.931 312.96 139.836 313.175 139.762 313.416C139.695 313.656 139.662 313.925 139.662 314.223L139.637 315.341V321.529H137.6V309.725Z" fill="white"/>
<path d="M154.99 305.414H157.028V307.712H154.99V305.414ZM154.99 309.725H157.028V321.529H154.99V309.725Z" fill="white"/>
<path d="M167.969 321.554L163.583 309.688H165.72L169.038 319.193L172.281 309.688H174.418L170.082 321.554H167.969Z" fill="white"/>
<path d="M190.827 316.286H182.266C182.266 317.495 182.556 318.419 183.135 319.057C183.715 319.694 184.531 320.013 185.583 320.013C187.198 320.013 188.184 319.222 188.54 317.64H190.665C190.359 318.965 189.758 319.997 188.863 320.734C187.969 321.471 186.851 321.84 185.509 321.84C183.844 321.84 182.531 321.289 181.57 320.187C180.609 319.077 180.129 317.553 180.129 315.615C180.129 313.478 180.75 311.867 181.992 310.781C183.003 309.895 184.229 309.452 185.67 309.452C187.451 309.452 188.83 310.09 189.808 311.365C190.172 311.887 190.433 312.459 190.591 313.08C190.756 313.701 190.839 314.459 190.839 315.354L190.827 316.286ZM188.789 314.447C188.789 313.453 188.495 312.674 187.907 312.111C187.327 311.548 186.565 311.266 185.62 311.266C183.732 311.266 182.638 312.326 182.34 314.447H188.789Z" fill="white"/>
<path d="M198.153 309.725H200.203V311.688C200.965 310.181 201.922 309.427 203.073 309.427C203.205 309.427 203.317 309.427 203.408 309.427C203.508 309.427 203.686 309.456 203.943 309.514V311.688L203.297 311.626C202.178 311.626 201.346 312.028 200.799 312.832C200.584 313.138 200.435 313.498 200.352 313.913C200.269 314.327 200.228 314.911 200.228 315.664V321.529H198.153V309.725Z" fill="white"/>
<path d="M209.951 317.665H212.101C212.101 318.121 212.13 318.46 212.188 318.684C212.246 318.899 212.37 319.102 212.561 319.293C213.033 319.773 213.749 320.013 214.71 320.013C215.481 320.013 216.098 319.86 216.562 319.554C217.026 319.239 217.257 318.82 217.257 318.299C217.257 318.05 217.175 317.826 217.009 317.628C216.852 317.429 216.549 317.23 216.102 317.031L212.387 315.876C211.02 315.254 210.337 314.248 210.337 312.856C210.337 311.838 210.738 311.013 211.542 310.384C212.354 309.746 213.418 309.427 214.735 309.427C216.491 309.427 217.759 309.986 218.537 311.104C218.744 311.427 218.885 311.722 218.96 311.987C219.043 312.252 219.084 312.645 219.084 313.167H217.009C217.009 312.62 216.885 312.219 216.636 311.962C216.156 311.481 215.493 311.241 214.648 311.241C214.01 311.241 213.476 311.382 213.045 311.664C212.623 311.937 212.412 312.277 212.412 312.682C212.412 313.32 212.751 313.772 213.431 314.037L216.885 315.105C217.15 315.221 217.423 315.341 217.705 315.466C217.804 315.507 217.912 315.565 218.028 315.64C218.956 316.203 219.419 316.998 219.419 318.025C219.419 319.052 219.038 319.926 218.276 320.647C217.431 321.442 216.234 321.84 214.685 321.84C213.153 321.84 211.981 321.488 211.169 320.784C210.357 320.071 209.951 319.032 209.951 317.665Z" fill="white"/>
<path d="M226.758 305.414H228.796V307.712H226.758V305.414ZM226.758 309.725H228.796V321.529H226.758V309.725Z" fill="white"/>
<path d="M235.649 309.725H237.202V306.83H239.228V309.725H241.191V311.44H239.228V318.597C239.228 319.16 239.315 319.545 239.489 319.752C239.663 319.951 240.006 320.051 240.52 320.051L241.191 320.026V321.753L240.855 321.765L239.675 321.84C238.449 321.84 237.691 321.397 237.401 320.51C237.269 320.162 237.202 319.475 237.202 318.448V311.44H235.649V309.725Z" fill="white"/>
<path d="M249.399 309.725L252.567 319.119L255.674 309.725H257.885L253.127 322.859C252.878 323.596 252.634 324.184 252.393 324.623C252.162 325.07 251.913 325.427 251.648 325.692C251.176 326.172 250.617 326.412 249.971 326.412L249.15 326.338C248.877 326.338 248.707 326.329 248.641 326.313C248.484 326.238 248.355 326.193 248.256 326.176V324.275L248.48 324.362C248.645 324.42 248.811 324.461 248.977 324.486C249.15 324.519 249.291 324.536 249.399 324.536C249.904 324.536 250.281 324.366 250.53 324.027C250.786 323.687 251.101 322.933 251.474 321.765L247.125 309.725H249.399Z" fill="white"/>
<path d="M30.7073 121.974L30.6726 136.183L44.882 136.218L44.9167 122.009L30.7073 121.974Z" fill="white"/>
<path d="M24.7178 121.962L24.6817 136.172L10.4723 136.136C10.494 128.29 16.8719 121.941 24.7178 121.955V121.962Z" fill="white"/>
<path d="M71.0774 142.21L70.9256 202.88L64.9309 202.866L65.0827 142.195L50.8733 142.159L50.7214 202.829L44.7267 202.815L44.8786 142.145L10.465 142.058L10.3132 202.735C10.2987 210.589 16.6405 216.967 24.4937 216.981L105.325 217.184L105.513 142.289L71.0846 142.203L71.0774 142.21ZM30.5101 202.779L24.5154 202.764L24.6311 156.304L30.6258 156.318L30.5101 202.779ZM91.1369 202.931L85.1422 202.916L85.2579 156.463L91.2526 156.477L91.1369 202.931Z" fill="white"/>
<path d="M111.515 142.318L111.384 196.994L125.594 197.023L125.724 142.318H111.515Z" fill="white"/>
<path d="M60.7757 223.017L60.741 237.227L74.9504 237.261L74.9851 223.052L60.7757 223.017Z" fill="white"/>
<path d="M40.5656 223.017L40.5309 237.227L54.7403 237.261L54.775 223.052L40.5656 223.017Z" fill="white"/>
<path d="M192.338 142.506L192.186 203.177L186.199 203.162L186.344 142.492L172.134 142.456L171.982 203.126L165.988 203.111L166.139 142.441L151.93 142.412L151.778 203.083L145.784 203.068L145.935 142.318H131.719L131.574 203.032L111.37 202.981L111.334 217.198L206.367 217.437L206.548 142.542L192.338 142.506Z" fill="white"/>
<path d="M212.539 142.357L212.405 196.982L226.622 197.017L226.756 142.392L212.539 142.357Z" fill="white"/>
<path d="M267.175 142.745L267.023 203.372C267.001 211.218 260.623 217.567 252.777 217.552L252.958 142.716L267.167 142.752L267.175 142.745Z" fill="white"/>
<path d="M267.29 142.73L267.24 162.833L212.745 108.064L212.796 87.961L240.043 115.346L267.29 142.73Z" fill="white"/>
<path d="M267.42 88.0984L267.377 108.201L253.124 122.375L250.073 125.426L247.108 128.362L212.608 162.696L212.658 142.593L226.904 128.42L229.97 125.375L232.913 122.44L240.043 115.346L267.42 88.0984Z" fill="white"/>
<path d="M246.913 152.203L239.848 143.822L232.71 152.153L232.696 152.167L232.609 195.381L246.819 195.41L246.913 152.203Z" fill="white"/>
<path d="M267.457 20.6958L267.471 14.759C267.493 6.91306 261.144 0.527875 253.291 0.513413L253.124 68.5161L253.175 68.4655L253.124 88.6624L253.204 88.5829L253.124 122.078L267.37 107.898L267.5 54.1042H267.42L267.5 20.6958H267.449H267.457Z" fill="white"/>
<path d="M227.085 0.448323C219.239 0.42663 212.853 6.77566 212.839 14.6288L212.745 54.2055L212.796 54.2561L212.745 74.3517L212.824 74.4313L212.745 107.76L226.925 122.006L227.092 54.003H227.012L227.092 20.5946H227.041L227.092 0.448323H227.085Z" fill="white"/>
<path d="M226.759 134.407L226.593 196.415L212.383 196.379L212.514 148.581L226.759 134.407Z" fill="white"/>
<path d="M232.653 186.104L232.609 203.285L212.391 203.234L212.362 217.451L246.782 217.538L246.862 186.104H232.653Z" fill="white"/>
<path d="M232.067 0V95.1922C232.067 95.5755 232.378 95.8937 232.768 95.8937C233.159 95.8937 233.47 95.5827 233.47 95.1922V0H232.067Z" fill="white"/>
<path d="M246.913 0V95.1922C246.913 95.5755 247.224 95.8937 247.614 95.8937C248.005 95.8937 248.315 95.5827 248.315 95.1922V0H246.913Z" fill="white"/>
<path d="M239.363 0V102.944C239.363 103.327 239.674 103.646 240.065 103.646C240.455 103.646 240.766 103.335 240.766 102.944V0H239.363Z" fill="white"/>
<path d="M226.549 233.7H212.362V237.265H226.549V233.7Z" fill="white"/>
<path d="M226.549 223.019H212.362V226.584H226.549V223.019Z" fill="white"/>
<path d="M219.362 225.774H212.362V229.339H219.362V225.774Z" fill="white"/>
<path d="M226.542 231.19H219.542V234.755H226.542V231.19Z" fill="white"/>
<path d="M226.549 228.363H212.362V231.928H226.549V228.363Z" fill="white"/>
<path d="M126.982 41.2977L128.313 1.69209L129.636 41.2977H126.982Z" fill="white"/>
<path d="M128.371 31.0365C130.383 31.0365 132.015 29.4048 132.015 27.392C132.015 25.3791 130.383 23.7474 128.371 23.7474C126.358 23.7474 124.726 25.3791 124.726 27.392C124.726 29.4048 126.358 31.0365 128.371 31.0365Z" fill="white"/>
<path d="M128.371 19.264C129.417 19.264 130.265 18.4158 130.265 17.3694C130.265 16.3231 129.417 15.4749 128.371 15.4749C127.324 15.4749 126.476 16.3231 126.476 17.3694C126.476 18.4158 127.324 19.264 128.371 19.264Z" fill="white"/>
<path d="M206.295 117.038L191.745 97.9545H174.296L186.582 85.6687L183.408 62.1526L183.437 61.9501H183.386L183.379 61.885L183.176 61.914L159.653 58.7394L147.324 71.0687V53.6993L129.607 40.1985L128.436 39.3091L128.32 39.1572L128.277 39.1861L128.233 39.1572L128.117 39.3091L109.229 53.6993V71.1483L96.9435 58.8624L73.4275 62.0369L73.225 62.008V62.0586L73.1599 62.0658L73.1889 62.2683L70.0143 85.7843L82.3509 98.1208H64.9814L50.5984 116.994L50.4393 117.117L50.4683 117.161L50.4393 117.204L50.5984 117.327L64.9814 136.208H120.922V136.186H191.745L206.135 117.305L206.258 117.146L206.295 117.103L206.244 117.067L206.295 117.031V117.038ZM94.268 124.385H70.8459L65.3574 117.175L70.8459 109.973H94.1884L101.434 117.219L94.2607 124.385H94.268ZM99.0912 98.1353L82.5316 81.5758L83.7465 72.5945L92.7277 71.3797L109.237 87.8886V98.1353H99.0912ZM121.067 59.5638L128.277 54.0753L135.479 59.5638V82.9063L128.233 90.152L121.067 82.9858V59.5638ZM137.778 124.168H118.963V110.342L128.392 103.031L137.778 110.371V124.168ZM147.316 87.8163L163.876 71.2567L172.857 72.4716L174.065 81.4528L157.556 97.9618H147.316V87.8163ZM191.376 117.154L185.881 124.363H162.697L155.285 116.958L162.451 109.792H185.874L191.427 117.074L191.369 117.154H191.376Z" fill="white"/>
</svg>
