<svg width="37" height="45" viewBox="0 0 37 45" fill="none" xmlns="http://www.w3.org/2000/svg">
<g id="Group 211">
<path id="Subtract" fill-rule="evenodd" clip-rule="evenodd" d="M8.5 19C14.299 19 19 14.299 19 8.5C19 7.27278 18.7895 6.09473 18.4025 5H25L37 17V41C37 42.0609 36.5786 43.0783 35.8284 43.8284C35.0783 44.5786 34.0609 45 33 45H9C7.93913 45 6.92172 44.5786 6.17157 43.8284C5.42143 43.0783 5 42.0609 5 41V18.4025C6.09473 18.7895 7.27278 19 8.5 19ZM13.404 34.22C14.466 34.22 15.378 33.96 15.996 33.38C16.468 32.93 16.728 32.268 16.73 31.484C16.73 30.704 16.386 30.042 15.878 29.638C15.344 29.212 14.552 29 13.438 29C12.6222 28.9892 11.8069 29.044 11 29.164V37.036H12.788V34.184C12.9921 34.2118 13.198 34.2239 13.404 34.22ZM19.93 37.12C21.492 37.12 22.77 36.788 23.61 36.09C24.378 35.44 24.936 34.386 24.936 32.86C24.936 31.45 24.416 30.468 23.586 29.852C22.818 29.272 21.834 29 20.32 29C19.5043 28.9931 18.6892 29.0486 17.882 29.166V37C18.332 37.06 18.994 37.12 19.93 37.12ZM27.936 30.54H31V29.06H26.124V37.038H27.936V33.83H30.8V32.362H27.936V30.54ZM23 19H25H33L23 9V19Z" fill="#03A679"/>
<circle id="Ellipse 12" cx="8.5" cy="8.5" r="8.5" fill="#03A679"/>
<path id="Vector" d="M12.1979 8.24122H10.918V3.87354C10.918 3.39309 10.5557 3 10.113 3H6.89309C6.45035 3 6.08811 3.39309 6.08811 3.87354V8.24122H4.8082C4.09178 8.24122 3.72954 9.18463 4.23667 9.73496L7.9315 13.7445C8.24544 14.0852 8.75257 14.0852 9.06651 13.7445L12.7613 9.73496C13.2685 9.18463 12.9143 8.24122 12.1979 8.24122Z" fill="white"/>
</g>
</svg>
