<svg width="109" height="68" viewBox="0 0 109 68" fill="none" xmlns="http://www.w3.org/2000/svg">
<path d="M101.807 36.4727C101.318 51.1211 96.0938 61.4238 86.1328 67.3809L76.9043 57.5664C82.8613 54.0508 86.0352 47.0195 86.4258 36.4727H65.625V0.291021L101.807 0.291025V36.4727Z" fill="#03A679"/>
<path d="M36.1816 36.4727C35.6934 51.1211 30.4688 61.4238 20.5078 67.3809L11.2793 57.5664C17.2363 54.0508 20.4102 47.0195 20.8008 36.4727H0L3.1631e-06 0.291016L36.1816 0.291019L36.1816 36.4727Z" fill="#03A679"/>
<path d="M108.807 36.4727C108.318 51.1211 103.094 61.4238 93.1328 67.3809L83.9043 57.5664C89.8613 54.0508 93.0352 47.0195 93.4258 36.4727H72.625V0.291021L108.807 0.291025V36.4727Z" fill="#147CA6"/>
<path d="M43.1816 36.4727C42.6934 51.1211 37.4688 61.4238 27.5078 67.3809L18.2793 57.5664C24.2363 54.0508 27.4102 47.0195 27.8008 36.4727H7L7 0.291016L43.1816 0.291019L43.1816 36.4727Z" fill="#147CA6"/>
</svg>
