<svg width="110" height="68" viewBox="0 0 110 68" fill="none" xmlns="http://www.w3.org/2000/svg">
<path d="M7.39844 31.5273C7.88672 16.8789 13.1113 6.57616 23.0723 0.619125L32.3008 10.4336C26.3438 13.9492 23.1699 20.9805 22.7793 31.5273L43.5801 31.5273L43.5801 67.709L7.39844 67.709L7.39844 31.5273Z" fill="#03A679"/>
<path d="M73.0234 31.5273C73.5117 16.8789 78.7363 6.57617 88.6973 0.619139L97.9258 10.4336C91.9688 13.9492 88.7949 20.9805 88.4043 31.5273L109.205 31.5273L109.205 67.709L73.0234 67.709L73.0234 31.5273Z" fill="#03A679"/>
<path d="M0.398441 31.5273C0.886723 16.8789 6.11133 6.57616 16.0723 0.619125L25.3008 10.4336C19.3438 13.9492 16.1699 20.9805 15.7793 31.5273L36.5801 31.5273L36.5801 67.709L0.398438 67.709L0.398441 31.5273Z" fill="#147CA6"/>
<path d="M66.0234 31.5273C66.5117 16.8789 71.7363 6.57617 81.6973 0.619139L90.9258 10.4336C84.9688 13.9492 81.7949 20.9805 81.4043 31.5273L102.205 31.5273L102.205 67.709L66.0234 67.709L66.0234 31.5273Z" fill="#147CA6"/>
</svg>
