<svg width="306" height="110" viewBox="0 0 306 110" fill="none" xmlns="http://www.w3.org/2000/svg">
<path d="M0.00341613 64.9107C0.924118 63.3142 1.65861 61.6228 2.43793 59.9572C2.70862 59.3779 3.02415 59.2089 3.64485 59.2158C6.7604 59.252 9.87596 59.2365 12.9915 59.2262C13.3588 59.2262 13.6329 59.3055 13.9002 59.5779C15.5743 61.2762 17.2588 62.9642 18.9606 64.6366C19.2813 64.9521 19.2847 65.1314 18.9606 65.4487C17.2433 67.1349 15.5467 68.8418 13.8519 70.5505C13.6381 70.766 13.4208 70.8557 13.1174 70.8539C9.82941 70.8436 6.54316 70.8419 3.25518 70.8574C2.88966 70.8591 2.72587 70.7177 2.58104 70.4108C1.85689 68.878 1.1155 67.3539 0.375835 65.8297C0.26549 65.6021 0.125834 65.3901 -3.04466e-05 65.1694L-3.04497e-05 64.9107L0.00341613 64.9107Z" fill="#147CA6" fill-opacity="0.49"/>
<path d="M33.1711 32C34.7901 32.9242 36.5004 33.669 38.1849 34.4604C38.7211 34.7121 38.8694 35.0104 38.8643 35.5776C38.8349 38.7139 38.8436 41.8519 38.8591 44.9898C38.8608 45.3898 38.7453 45.6674 38.4625 45.9467C36.7797 47.6054 35.1056 49.2744 33.4504 50.9623C33.1331 51.2865 32.9538 51.2813 32.64 50.9606C30.9693 49.2589 29.2779 47.5761 27.5831 45.8985C27.3365 45.6536 27.2262 45.4088 27.2279 45.0554C27.2399 41.8105 27.2434 38.5656 27.2244 35.3207C27.2227 34.9069 27.3796 34.7293 27.7313 34.5552C29.4589 33.7035 31.2383 32.9552 32.9142 32L33.1728 32L33.1711 32Z" fill="#147CA6" fill-opacity="0.49"/>
<path d="M46.9178 55.3606C45.6919 55.3606 44.4677 55.3416 43.2436 55.3709C42.8091 55.3813 42.7108 55.2365 42.7143 54.8261C42.7315 52.4192 42.7263 50.0122 42.7177 47.6053C42.7177 47.3088 42.7798 47.0829 43.0005 46.8639C45.3333 44.5466 47.6592 42.2225 49.9764 39.8897C50.2195 39.6449 50.423 39.5811 50.7644 39.6983C52.5282 40.3069 54.3024 40.8897 56.0765 41.4656C56.3765 41.5621 56.5248 41.7328 56.6196 42.0225C57.1972 43.7966 57.7783 45.5708 58.3886 47.3346C58.5093 47.6846 58.4214 47.8829 58.1835 48.1191C55.8679 50.4226 53.5558 52.7312 51.254 55.0502C51.0213 55.2847 50.7868 55.3727 50.4627 55.3675C49.2816 55.3502 48.0988 55.3606 46.9161 55.3606L46.9178 55.3606Z" fill="#147CA6" fill-opacity="0.49"/>
<path d="M42.7212 78.8678C42.7212 77.6419 42.7315 76.4178 42.7143 75.1919C42.7091 74.8402 42.7919 74.7074 43.1729 74.7091C45.6436 74.7246 48.1161 74.7212 50.5868 74.7126C50.8489 74.7126 51.0247 74.8091 51.2006 74.9867C53.5368 77.3316 55.8748 79.673 58.2231 82.0058C58.4559 82.2368 58.4973 82.4368 58.3921 82.7437C57.7904 84.511 57.2041 86.2834 56.6248 88.0576C56.53 88.349 56.3731 88.5162 56.0748 88.6128C54.28 89.1973 52.4886 89.7921 50.7006 90.4007C50.4127 90.499 50.2299 90.449 50.0196 90.2369C47.6712 87.8748 45.316 85.5196 42.9522 83.1713C42.7401 82.961 42.7143 82.7403 42.716 82.4765C42.7212 81.273 42.7177 80.0695 42.7177 78.8661L42.7212 78.8678Z" fill="#147CA6" fill-opacity="0.49"/>
<path d="M23.3623 51.2383C23.3623 52.4417 23.3502 53.6452 23.3692 54.8487C23.3761 55.2211 23.3037 55.3728 22.8813 55.3694C20.4312 55.3487 17.9812 55.3539 15.5312 55.3659C15.2467 55.3659 15.0518 55.2711 14.857 55.0763C12.5363 52.7469 10.2138 50.4193 7.88105 48.102C7.63277 47.8555 7.58794 47.6469 7.70174 47.3124C8.30175 45.5675 8.87589 43.8158 9.44659 42.0606C9.54832 41.7502 9.70177 41.5606 10.0276 41.4554C11.8035 40.8812 13.576 40.295 15.3415 39.6916C15.6518 39.5847 15.8467 39.6312 16.076 39.8623C18.4088 42.2106 20.7485 44.5503 23.0985 46.8813C23.3244 47.1055 23.3658 47.34 23.364 47.6296C23.3554 48.8331 23.3606 50.0365 23.3606 51.24L23.3623 51.2383Z" fill="#147CA6" fill-opacity="0.49"/>
<path d="M19.2243 74.7197C20.4502 74.7197 21.6743 74.7318 22.8985 74.7128C23.264 74.7059 23.3726 74.8163 23.3692 75.1835C23.3537 77.6336 23.3571 80.0836 23.3675 82.5336C23.3675 82.8129 23.2899 83.0147 23.0899 83.2129C20.7588 85.5319 18.4329 87.8561 16.1156 90.1889C15.876 90.4286 15.6742 90.5079 15.3294 90.3889C13.5656 89.7803 11.7932 89.1958 10.0173 88.6216C9.68968 88.5165 9.5414 88.3182 9.4414 88.0113C8.87587 86.2768 8.3138 84.5423 7.71207 82.8198C7.57413 82.4233 7.66724 82.1974 7.94138 81.925C10.2449 79.6388 12.538 77.3439 14.826 75.0404C15.0553 74.8094 15.2846 74.7077 15.6139 74.7128C16.8174 74.7318 18.0208 74.7197 19.2243 74.7197Z" fill="#147CA6" fill-opacity="0.49"/>
<path d="M57.8852 59.2313C59.499 59.2313 61.1111 59.2434 62.725 59.2227C63.1198 59.2175 63.337 59.3227 63.5112 59.6969C64.2836 61.3503 65.0819 62.9917 65.8888 64.6297C66.0371 64.9297 66.0371 65.1676 65.8888 65.4676C65.0802 67.1039 64.2836 68.747 63.5077 70.3987C63.3457 70.7436 63.1508 70.8574 62.775 70.8556C59.5059 70.8418 56.2369 70.8436 52.9679 70.8539C52.6627 70.8539 52.4472 70.7625 52.2334 70.547C50.5213 68.8211 48.8075 67.0987 47.0747 65.3935C46.7816 65.1056 46.8127 64.9487 47.0868 64.678C48.8161 62.971 50.5351 61.2521 52.242 59.5227C52.48 59.2813 52.73 59.2244 53.0455 59.2262C54.6593 59.2365 56.2714 59.2313 57.8852 59.2313Z" fill="#147CA6" fill-opacity="0.49"/>
<path d="M38.8505 89.8751C38.8505 91.5096 38.8384 93.1441 38.8591 94.7786C38.8643 95.1596 38.735 95.3475 38.3953 95.5062C36.7436 96.282 35.1004 97.0769 33.4642 97.8855C33.1642 98.0338 32.9297 98.0372 32.6263 97.8872C30.99 97.0786 29.3469 96.2838 27.6952 95.5079C27.3589 95.3493 27.2245 95.1682 27.2262 94.7837C27.2417 91.5147 27.24 88.2457 27.2296 84.9767C27.2296 84.6733 27.3158 84.4543 27.5314 84.2405C29.2572 82.5284 30.978 80.8129 32.6849 79.0835C32.959 78.8059 33.1194 78.7921 33.4021 79.0783C35.1073 80.8094 36.828 82.5267 38.5574 84.2336C38.7988 84.4715 38.8574 84.7198 38.8557 85.0353C38.8453 86.6491 38.8505 88.2612 38.8505 89.8751Z" fill="#147CA6" fill-opacity="0.49"/>
<path d="M33.0454 70.747C31.2609 71.3091 30.1384 70.3694 28.9143 69.2074C27.6436 68.0004 27.1556 66.7797 27.166 65.0245C27.1763 63.3038 27.6694 62.1159 28.8815 60.8917C30.116 59.6469 31.3247 59.1503 33.073 59.1624C34.7661 59.1745 35.9471 59.6365 37.1541 60.8434C38.3989 62.0917 38.9351 63.3055 38.9196 65.0849C38.9058 66.7849 38.5903 68.1246 37.1782 69.1142C37.161 69.1263 37.1454 69.1436 37.1334 69.1591C36.0989 70.5177 34.8316 71.3126 33.0454 70.7453L33.0454 70.747Z" fill="#147CA6" fill-opacity="0.49"/>
<path d="M46.9488 59.3848C46.0609 60.2607 45.1678 61.1297 44.2885 62.0142C44.0798 62.2228 43.9609 62.2228 43.7109 62.0349C42.8712 61.4073 42.5522 60.6055 42.716 59.5779C42.7522 59.3521 42.7815 59.2262 43.0436 59.2279C44.3264 59.2365 45.6092 59.2314 46.8919 59.2314C46.9109 59.2814 46.9316 59.3331 46.9506 59.3831L46.9488 59.3848Z" fill="#147CA6" fill-opacity="0.49"/>
<path d="M46.8714 70.8472C45.6265 70.8472 44.3834 70.8489 43.1386 70.8454C42.9989 70.8454 42.8351 70.8989 42.7403 70.7247C42.5713 70.4161 42.7955 68.9937 43.061 68.7213C43.9834 67.773 43.98 67.7781 44.9024 68.6868C45.5869 69.3609 46.2852 70.0213 46.9766 70.6868C46.9421 70.7403 46.9076 70.7937 46.8731 70.8472L46.8714 70.8472Z" fill="#147CA6" fill-opacity="0.49"/>
<path d="M38.8488 51.033C38.8488 52.4555 38.8419 53.7003 38.854 54.9451C38.8575 55.2331 38.7833 55.3296 38.4695 55.3727C37.4368 55.5141 36.6367 55.1934 36.0281 54.3451C35.8988 54.1641 35.8109 54.0555 36.004 53.8658C36.9195 52.9658 37.823 52.0572 38.8488 51.033Z" fill="#147CA6" fill-opacity="0.49"/>
<path d="M38.8504 79.068C37.8263 78.0404 36.9315 77.1455 36.0401 76.2455C35.9539 76.1593 35.8383 76.0835 35.8832 75.9231C35.9642 75.63 37.1366 74.7283 37.4573 74.7196C38.3872 74.6944 38.8522 75.1403 38.8522 76.0576L38.8522 79.068L38.8504 79.068Z" fill="#147CA6" fill-opacity="0.49"/>
<path d="M27.2348 51.033C28.2624 52.0572 29.171 52.9641 30.0814 53.8727C30.1728 53.9641 30.2504 54.0469 30.1831 54.2055C29.8659 54.9607 28.2452 55.6314 27.4193 55.3589C27.2089 55.29 27.2469 55.1486 27.2365 55.0072C27.2296 54.921 27.2365 54.8348 27.2365 54.7486C27.2365 53.5693 27.2365 52.3899 27.2365 51.033L27.2348 51.033Z" fill="#147CA6" fill-opacity="0.49"/>
<path d="M27.2348 78.9421C27.2348 77.6041 27.2348 76.3386 27.2348 75.0713C27.2348 74.9489 27.2107 74.8144 27.3555 74.7351C27.6624 74.5679 29.0935 74.7903 29.3642 75.0524C29.9975 75.6696 30.0078 76.284 29.3952 76.8955C28.74 77.5489 28.0848 78.2007 27.4279 78.8524C27.4021 78.8783 27.3572 78.8852 27.2331 78.9421L27.2348 78.9421Z" fill="#147CA6" fill-opacity="0.49"/>
<path d="M19.0226 59.2313C20.4537 59.2313 21.6951 59.2416 22.9347 59.2244C23.2727 59.2192 23.3313 59.3382 23.3778 59.6589C23.5278 60.6727 23.1692 61.4296 22.3744 62.0331C22.1761 62.1831 22.0571 62.2744 21.8468 62.0589C20.9537 61.1486 20.0468 60.252 19.0243 59.2313L19.0226 59.2313Z" fill="#147CA6" fill-opacity="0.49"/>
<path d="M19.0382 70.847C20.0606 69.8212 20.9675 68.9108 21.8744 68.0022C21.9658 67.9108 22.0469 67.8332 22.2055 67.9004C22.9641 68.2229 23.6331 69.8401 23.3589 70.6643C23.2883 70.8746 23.1486 70.835 23.0072 70.8453C22.921 70.8522 22.8348 70.8453 22.7486 70.8453C21.5693 70.8453 20.3899 70.8453 19.0365 70.8453L19.0382 70.847Z" fill="#147CA6" fill-opacity="0.49"/>
<path d="M271.001 85.4531C271.489 84.6064 271.879 83.7094 272.292 82.8261C272.435 82.5189 272.603 82.4293 272.932 82.433C274.584 82.4522 276.236 82.4439 277.889 82.4385C278.083 82.4385 278.229 82.4805 278.371 82.625C279.258 83.5256 280.152 84.4208 281.054 85.3077C281.224 85.475 281.226 85.5701 281.054 85.7384C280.143 86.6326 279.244 87.5378 278.345 88.4439C278.232 88.5582 278.116 88.6058 277.955 88.6048C276.212 88.5994 274.469 88.5984 272.725 88.6067C272.531 88.6076 272.445 88.5326 272.368 88.3699C271.984 87.557 271.591 86.7487 271.198 85.9404C271.14 85.8197 271.066 85.7073 270.999 85.5902L270.999 85.4531L271.001 85.4531Z" fill="#F6F6F6"/>
<path d="M288.59 68C289.449 68.4901 290.356 68.8851 291.249 69.3048C291.534 69.4383 291.612 69.5965 291.609 69.8973C291.594 71.5605 291.598 73.2246 291.607 74.8887C291.608 75.1009 291.546 75.2481 291.396 75.3962C290.504 76.2758 289.616 77.1609 288.738 78.0561C288.57 78.228 288.475 78.2252 288.309 78.0551C287.423 77.1527 286.526 76.2603 285.627 75.3706C285.496 75.2408 285.438 75.1109 285.438 74.9235C285.445 73.2027 285.447 71.4819 285.437 69.761C285.436 69.5416 285.519 69.4474 285.705 69.3551C286.622 68.9034 287.565 68.5066 288.454 68L288.591 68L288.59 68Z" fill="#F6F6F6"/>
<path d="M295.88 80.3886C295.23 80.3886 294.581 80.3785 293.932 80.394C293.702 80.3995 293.649 80.3227 293.651 80.1051C293.66 78.8287 293.658 77.5522 293.653 76.2758C293.653 76.1185 293.686 75.9987 293.803 75.8826C295.04 74.6537 296.274 73.4212 297.502 72.1841C297.631 72.0542 297.739 72.0204 297.92 72.0826C298.856 72.4053 299.797 72.7144 300.737 73.0198C300.897 73.071 300.975 73.1615 301.025 73.3151C301.332 74.256 301.64 75.1969 301.964 76.1322C302.028 76.3179 301.981 76.423 301.855 76.5483C300.627 77.7698 299.401 78.9942 298.18 80.224C298.057 80.3483 297.932 80.395 297.76 80.3922C297.134 80.3831 296.507 80.3886 295.88 80.3886L295.88 80.3886Z" fill="#F6F6F6"/>
<path d="M293.655 92.8548C293.655 92.2047 293.66 91.5555 293.651 90.9054C293.648 90.7189 293.692 90.6484 293.894 90.6494C295.205 90.6576 296.516 90.6558 297.826 90.6512C297.965 90.6512 298.058 90.7024 298.152 90.7966C299.391 92.0401 300.63 93.2818 301.876 94.5189C301.999 94.6414 302.021 94.7475 301.965 94.9102C301.646 95.8475 301.335 96.7874 301.028 97.7283C300.978 97.8828 300.895 97.9715 300.736 98.0227C299.785 98.3327 298.835 98.6481 297.886 98.9709C297.734 99.023 297.637 98.9965 297.525 98.884C296.28 97.6314 295.031 96.3824 293.777 95.137C293.665 95.0255 293.651 94.9084 293.652 94.7685C293.655 94.1303 293.653 93.4921 293.653 92.8539L293.655 92.8548Z" fill="#F6F6F6"/>
<path d="M283.388 78.2024C283.388 78.8406 283.382 79.4788 283.392 80.117C283.396 80.3145 283.357 80.395 283.133 80.3932C281.834 80.3822 280.535 80.3849 279.235 80.3913C279.085 80.3913 278.981 80.341 278.878 80.2377C277.647 79.0024 276.416 77.768 275.178 76.5392C275.047 76.4084 275.023 76.2978 275.083 76.1204C275.402 75.1951 275.706 74.2661 276.009 73.3353C276.063 73.1707 276.144 73.0701 276.317 73.0143C277.259 72.7098 278.199 72.399 279.135 72.0789C279.299 72.0223 279.403 72.0469 279.524 72.1695C280.762 73.4148 282.002 74.6556 283.249 75.8918C283.368 76.0107 283.39 76.135 283.389 76.2886C283.385 76.9268 283.388 77.5651 283.388 78.2033L283.388 78.2024Z" fill="#F6F6F6"/>
<path d="M281.194 90.655C281.844 90.655 282.493 90.6614 283.143 90.6513C283.336 90.6477 283.394 90.7062 283.392 90.901C283.384 92.2003 283.386 93.4996 283.391 94.7988C283.391 94.947 283.35 95.054 283.244 95.1591C282.008 96.3889 280.774 97.6215 279.545 98.8586C279.418 98.9857 279.311 99.0277 279.129 98.9646C278.193 98.6419 277.253 98.3319 276.311 98.0274C276.138 97.9717 276.059 97.8665 276.006 97.7037C275.706 96.7839 275.408 95.8641 275.089 94.9506C275.016 94.7403 275.065 94.6205 275.211 94.4761C276.432 93.2637 277.648 92.0466 278.862 90.8251C278.983 90.7025 279.105 90.6486 279.279 90.6513C279.918 90.6614 280.556 90.655 281.194 90.655Z" fill="#F6F6F6"/>
<path d="M301.697 82.4413C302.552 82.4413 303.407 82.4477 304.263 82.4367C304.473 82.4339 304.588 82.4897 304.68 82.6881C305.09 83.565 305.513 84.4355 305.941 85.3041C306.02 85.4632 306.02 85.5894 305.941 85.7485C305.512 86.6162 305.09 87.4876 304.678 88.3635C304.592 88.5464 304.489 88.6067 304.29 88.6058C302.556 88.5985 300.822 88.5994 299.089 88.6049C298.927 88.6049 298.813 88.5564 298.699 88.4422C297.791 87.5269 296.883 86.6134 295.964 85.7091C295.808 85.5565 295.825 85.4732 295.97 85.3297C296.887 84.4245 297.799 83.5129 298.704 82.5958C298.83 82.4678 298.963 82.4376 299.13 82.4385C299.986 82.444 300.841 82.4413 301.697 82.4413Z" fill="#F6F6F6"/>
<path d="M291.602 98.6921C291.602 99.5589 291.596 100.426 291.607 101.293C291.609 101.495 291.541 101.594 291.361 101.678C290.485 102.09 289.613 102.511 288.746 102.94C288.587 103.019 288.462 103.021 288.301 102.941C287.434 102.512 286.562 102.091 285.686 101.679C285.508 101.595 285.437 101.499 285.438 101.295C285.446 99.5617 285.445 97.8281 285.439 96.0944C285.439 95.9335 285.485 95.8174 285.599 95.704C286.515 94.7961 287.427 93.8863 288.332 92.9692C288.478 92.822 288.563 92.8147 288.713 92.9664C289.617 93.8844 290.53 94.7951 291.447 95.7004C291.575 95.8265 291.606 95.9582 291.605 96.1255C291.599 96.9814 291.602 97.8363 291.602 98.6921Z" fill="#F6F6F6"/>
<path d="M288.524 88.5482C287.577 88.8463 286.982 88.3479 286.333 87.7317C285.659 87.0916 285.4 86.4443 285.406 85.5135C285.411 84.6009 285.673 83.9709 286.315 83.3218C286.97 82.6616 287.611 82.3983 288.538 82.4047C289.436 82.4111 290.062 82.6561 290.702 83.2961C291.363 83.9581 291.647 84.6018 291.639 85.5455C291.631 86.447 291.464 87.1575 290.715 87.6823C290.706 87.6887 290.698 87.6978 290.691 87.7061C290.143 88.4266 289.471 88.8481 288.524 88.5473L288.524 88.5482Z" fill="#F6F6F6"/>
<path d="M295.897 82.5227C295.426 82.9872 294.952 83.448 294.486 83.9171C294.375 84.0277 294.312 84.0277 294.18 83.928C293.734 83.5952 293.565 83.17 293.652 82.6251C293.671 82.5053 293.687 82.4385 293.826 82.4395C294.506 82.444 295.186 82.4413 295.867 82.4413C295.877 82.4678 295.888 82.4952 295.898 82.5218L295.897 82.5227Z" fill="#F6F6F6"/>
<path d="M295.856 88.6013C295.196 88.6013 294.536 88.6022 293.876 88.6004C293.802 88.6004 293.715 88.6287 293.665 88.5364C293.575 88.3727 293.694 87.6184 293.835 87.4739C294.324 86.971 294.322 86.9738 294.812 87.4556C295.175 87.8131 295.545 88.1633 295.911 88.5163C295.893 88.5446 295.875 88.573 295.857 88.6013L295.856 88.6013Z" fill="#F6F6F6"/>
<path d="M291.601 78.0935C291.601 78.8478 291.598 79.508 291.604 80.1682C291.606 80.3209 291.567 80.3721 291.4 80.3949C290.852 80.4699 290.428 80.2998 290.105 79.85C290.037 79.754 289.99 79.6964 290.093 79.5958C290.578 79.1185 291.057 78.6366 291.601 78.0935Z" fill="#F6F6F6"/>
<path d="M291.602 92.961C291.059 92.416 290.584 91.9415 290.112 91.4642C290.066 91.4184 290.005 91.3782 290.029 91.2932C290.071 91.1377 290.693 90.6595 290.863 90.655C291.356 90.6415 291.603 90.8781 291.603 91.3645L291.603 92.961L291.602 92.961Z" fill="#F6F6F6"/>
<path d="M285.442 78.0935C285.987 78.6366 286.469 79.1176 286.952 79.5994C287 79.6479 287.041 79.6918 287.006 79.7759C286.837 80.1764 285.978 80.5321 285.54 80.3876C285.428 80.351 285.449 80.2761 285.443 80.2011C285.439 80.1554 285.443 80.1097 285.443 80.0639C285.443 79.4385 285.443 78.8131 285.443 78.0935L285.442 78.0935Z" fill="#F6F6F6"/>
<path d="M285.442 92.8942C285.442 92.1847 285.442 91.5136 285.442 90.8415C285.442 90.7766 285.429 90.7053 285.506 90.6632C285.669 90.5745 286.428 90.6925 286.571 90.8315C286.907 91.1588 286.913 91.4846 286.588 91.8089C286.24 92.1554 285.893 92.5011 285.544 92.8467C285.531 92.8604 285.507 92.8641 285.441 92.8942L285.442 92.8942Z" fill="#F6F6F6"/>
<path d="M281.087 82.4412C281.846 82.4412 282.504 82.4467 283.162 82.4376C283.341 82.4348 283.372 82.4979 283.397 82.668C283.476 83.2056 283.286 83.607 282.865 83.9271C282.759 84.0066 282.696 84.0551 282.585 83.9408C282.111 83.458 281.63 82.9825 281.088 82.4412L281.087 82.4412Z" fill="#F6F6F6"/>
<path d="M281.095 88.6012C281.638 88.0572 282.118 87.5744 282.599 87.0926C282.648 87.0441 282.691 87.0029 282.775 87.0386C283.177 87.2096 283.532 88.0673 283.387 88.5043C283.349 88.6159 283.275 88.5948 283.2 88.6003C283.154 88.604 283.109 88.6003 283.063 88.6003C282.438 88.6003 281.812 88.6003 281.094 88.6003L281.095 88.6012Z" fill="#F6F6F6"/>
<path d="M159.003 29.4201C159.826 27.9929 160.483 26.4809 161.179 24.992C161.421 24.4741 161.703 24.3231 162.258 24.3292C165.043 24.3616 167.829 24.3477 170.614 24.3385C170.942 24.3385 171.187 24.4094 171.426 24.6529C172.922 26.1711 174.428 27.68 175.95 29.1751C176.236 29.4571 176.239 29.6174 175.95 29.901C174.414 31.4084 172.898 32.9343 171.383 34.4617C171.192 34.6544 170.997 34.7345 170.726 34.733C167.787 34.7237 164.849 34.7222 161.91 34.736C161.583 34.7376 161.437 34.6112 161.307 34.3369C160.66 32.9666 159.997 31.6041 159.336 30.2416C159.237 30.0382 159.112 29.8486 159 29.6513L159 29.4201L159.003 29.4201Z" fill="#03A679" fill-opacity="0.39"/>
<path d="M188.653 6.06914e-08C190.1 0.826134 191.629 1.49197 193.135 2.19943C193.614 2.42446 193.747 2.6911 193.742 3.19819C193.716 6.0018 193.724 8.80696 193.738 11.6121C193.739 11.9697 193.636 12.2178 193.383 12.4675C191.879 13.9503 190.382 15.4422 188.903 16.9512C188.619 17.2409 188.459 17.2363 188.178 16.9496C186.685 15.4284 185.173 13.9241 183.658 12.4244C183.437 12.2055 183.339 11.9867 183.34 11.6707C183.351 8.76997 183.354 5.86925 183.337 2.96854C183.335 2.59862 183.476 2.43987 183.79 2.2842C185.335 1.5228 186.925 0.853878 188.423 6.34299e-08L188.655 6.0673e-08L188.653 6.06914e-08Z" fill="#03A679" fill-opacity="0.39"/>
<path d="M200.942 20.883C199.846 20.883 198.751 20.866 197.657 20.8922C197.269 20.9015 197.181 20.772 197.184 20.4052C197.199 18.2535 197.195 16.1019 197.187 13.9502C197.187 13.6851 197.243 13.4832 197.44 13.2875C199.525 11.216 201.604 9.1383 203.676 7.05292C203.893 6.83406 204.075 6.77703 204.38 6.88184C205.957 7.42592 207.543 7.94687 209.129 8.46167C209.397 8.54798 209.53 8.70057 209.614 8.95951C210.131 10.5455 210.65 12.1315 211.196 13.7082C211.304 14.0211 211.225 14.1984 211.012 14.4095C208.942 16.4687 206.876 18.5325 204.818 20.6055C204.61 20.8152 204.4 20.8938 204.111 20.8891C203.055 20.8737 201.997 20.883 200.94 20.883L200.942 20.883Z" fill="#03A679" fill-opacity="0.39"/>
<path d="M197.19 41.897C197.19 40.8011 197.199 39.7068 197.184 38.611C197.179 38.2965 197.253 38.1779 197.594 38.1794C199.803 38.1933 202.013 38.1902 204.222 38.1825C204.456 38.1825 204.613 38.2688 204.77 38.4275C206.859 40.5237 208.949 42.6168 211.048 44.7022C211.256 44.9087 211.293 45.0875 211.199 45.3618C210.661 46.9417 210.137 48.5261 209.619 50.1121C209.534 50.3726 209.394 50.5221 209.128 50.6084C207.523 51.1309 205.922 51.6627 204.323 52.2067C204.066 52.2946 203.903 52.2499 203.715 52.0603C201.615 49.9487 199.51 47.8433 197.397 45.7441C197.207 45.556 197.184 45.3588 197.186 45.1229C197.19 44.0471 197.187 42.9713 197.187 41.8955L197.19 41.897Z" fill="#03A679" fill-opacity="0.39"/>
<path d="M179.885 17.1979C179.885 18.2737 179.874 19.3495 179.891 20.4254C179.897 20.7583 179.832 20.8939 179.455 20.8908C177.264 20.8723 175.074 20.877 172.884 20.8878C172.63 20.8878 172.456 20.803 172.281 20.6288C170.207 18.5465 168.131 16.4658 166.045 14.3943C165.823 14.1739 165.783 13.9874 165.885 13.6884C166.421 12.1286 166.935 10.5626 167.445 8.99358C167.536 8.71615 167.673 8.5466 167.964 8.45259C169.552 7.93933 171.136 7.41529 172.714 6.87584C172.992 6.78028 173.166 6.82189 173.371 7.02843C175.456 9.12767 177.548 11.2192 179.649 13.303C179.851 13.5034 179.888 13.713 179.886 13.972C179.878 15.0478 179.883 16.1236 179.883 17.1994L179.885 17.1979Z" fill="#03A679" fill-opacity="0.39"/>
<path d="M176.185 38.1889C177.281 38.1889 178.376 38.1997 179.47 38.1828C179.797 38.1766 179.894 38.2752 179.891 38.6035C179.877 40.7937 179.88 42.9839 179.889 45.1741C179.889 45.4238 179.82 45.6041 179.641 45.7814C177.557 47.8544 175.478 49.9321 173.406 52.0174C173.192 52.2317 173.012 52.3026 172.704 52.1962C171.127 51.6521 169.542 51.1296 167.955 50.6164C167.662 50.5224 167.529 50.3451 167.44 50.0708C166.935 48.5202 166.432 46.9697 165.894 45.4299C165.771 45.0754 165.854 44.8735 166.099 44.63C168.158 42.5862 170.208 40.5348 172.254 38.4756C172.459 38.2691 172.664 38.1781 172.958 38.1828C174.034 38.1997 175.11 38.1889 176.185 38.1889Z" fill="#03A679" fill-opacity="0.39"/>
<path d="M210.746 24.3431C212.189 24.3431 213.63 24.3539 215.072 24.3354C215.425 24.3307 215.619 24.4248 215.775 24.7592C216.466 26.2373 217.179 27.7046 217.901 29.1689C218.033 29.4371 218.033 29.6498 217.901 29.9179C217.178 31.3806 216.466 32.8495 215.772 34.326C215.627 34.6343 215.453 34.736 215.117 34.7345C212.195 34.7222 209.272 34.7237 206.35 34.7329C206.077 34.7329 205.885 34.6513 205.694 34.4586C204.163 32.9158 202.631 31.376 201.082 29.8517C200.82 29.5943 200.848 29.454 201.093 29.212C202.639 27.6861 204.175 26.1495 205.701 24.6036C205.914 24.3878 206.137 24.3369 206.419 24.3384C207.862 24.3477 209.303 24.3431 210.746 24.3431Z" fill="#03A679" fill-opacity="0.39"/>
<path d="M193.73 51.7366C193.73 53.1977 193.719 54.6589 193.738 56.12C193.742 56.4607 193.627 56.6287 193.323 56.7705C191.847 57.464 190.378 58.1746 188.915 58.8975C188.647 59.03 188.437 59.0331 188.166 58.899C186.703 58.1761 185.234 57.4656 183.758 56.772C183.457 56.6302 183.337 56.4684 183.339 56.1247C183.353 53.2024 183.351 50.2801 183.342 47.3578C183.342 47.0865 183.419 46.8908 183.611 46.6996C185.154 45.1691 186.693 43.6355 188.218 42.0896C188.463 41.8415 188.607 41.8291 188.86 42.085C190.384 43.6325 191.922 45.1676 193.468 46.6935C193.684 46.9062 193.736 47.1281 193.735 47.4102C193.725 48.8528 193.73 50.2939 193.73 51.7366Z" fill="#03A679" fill-opacity="0.39"/>
<path d="M188.541 34.6374C186.945 35.1399 185.942 34.2999 184.848 33.261C183.712 32.1821 183.275 31.0909 183.285 29.5218C183.294 27.9836 183.735 26.9217 184.818 25.8274C185.922 24.7145 187.002 24.2707 188.565 24.2814C190.079 24.2922 191.135 24.7053 192.213 25.7842C193.326 26.9001 193.806 27.9852 193.792 29.5758C193.779 31.0955 193.497 32.2931 192.235 33.1778C192.22 33.1886 192.206 33.204 192.195 33.2179C191.27 34.4324 190.137 35.143 188.541 34.6359L188.541 34.6374Z" fill="#03A679" fill-opacity="0.39"/>
<path d="M200.969 24.4804C200.176 25.2634 199.377 26.0402 198.591 26.8309C198.405 27.0174 198.298 27.0174 198.075 26.8494C197.324 26.2884 197.039 25.5717 197.186 24.653C197.218 24.4511 197.244 24.3386 197.478 24.3402C198.625 24.3479 199.772 24.3432 200.919 24.3432C200.935 24.3879 200.954 24.4342 200.971 24.4789L200.969 24.4804Z" fill="#03A679" fill-opacity="0.39"/>
<path d="M200.9 34.727C199.787 34.727 198.676 34.7285 197.563 34.7254C197.438 34.7254 197.292 34.7732 197.207 34.6175C197.056 34.3416 197.256 33.0701 197.494 32.8265C198.318 31.9788 198.315 31.9835 199.14 32.7957C199.752 33.3984 200.376 33.9887 200.994 34.5836C200.963 34.6314 200.932 34.6792 200.902 34.727L200.9 34.727Z" fill="#03A679" fill-opacity="0.39"/>
<path d="M193.729 17.0143C193.729 18.2859 193.722 19.3987 193.733 20.5115C193.736 20.7689 193.67 20.8552 193.389 20.8937C192.466 21.0201 191.751 20.7334 191.207 19.9751C191.091 19.8133 191.013 19.7162 191.185 19.5466C192.004 18.7421 192.811 17.9298 193.729 17.0143Z" fill="#03A679" fill-opacity="0.39"/>
<path d="M193.73 42.0759C192.814 41.1572 192.014 40.3573 191.218 39.5528C191.141 39.4757 191.037 39.4079 191.077 39.2645C191.15 39.0025 192.198 38.1964 192.485 38.1887C193.316 38.1661 193.731 38.5648 193.731 39.3848L193.731 42.0759L193.73 42.0759Z" fill="#03A679" fill-opacity="0.39"/>
<path d="M183.346 17.0143C184.265 17.9298 185.077 18.7405 185.891 19.5528C185.973 19.6345 186.042 19.7085 185.982 19.8503C185.698 20.5254 184.25 21.1249 183.511 20.8814C183.323 20.8197 183.357 20.6934 183.348 20.567C183.342 20.4899 183.348 20.4128 183.348 20.3358C183.348 19.2815 183.348 18.2273 183.348 17.0143L183.346 17.0143Z" fill="#03A679" fill-opacity="0.39"/>
<path d="M183.346 41.9634C183.346 40.7673 183.346 39.636 183.346 38.5031C183.346 38.3937 183.325 38.2735 183.454 38.2026C183.728 38.0531 185.008 38.2519 185.25 38.4862C185.816 39.038 185.825 39.5872 185.277 40.1338C184.692 40.718 184.106 41.3006 183.519 41.8832C183.496 41.9063 183.456 41.9125 183.345 41.9634L183.346 41.9634Z" fill="#03A679" fill-opacity="0.39"/>
<path d="M176.005 24.3432C177.284 24.3432 178.394 24.3524 179.502 24.337C179.804 24.3324 179.857 24.4387 179.898 24.7254C180.032 25.6317 179.712 26.3083 179.001 26.8478C178.824 26.9819 178.718 27.0635 178.53 26.8709C177.731 26.0571 176.921 25.2556 176.007 24.3432L176.005 24.3432Z" fill="#03A679" fill-opacity="0.39"/>
<path d="M176.019 34.7268C176.933 33.8098 177.744 32.996 178.555 32.1837C178.636 32.102 178.709 32.0327 178.85 32.0928C179.529 32.381 180.127 33.8267 179.882 34.5635C179.818 34.7515 179.694 34.716 179.567 34.7253C179.49 34.7315 179.413 34.7253 179.336 34.7253C178.282 34.7253 177.227 34.7253 176.018 34.7253L176.019 34.7268Z" fill="#03A679" fill-opacity="0.39"/>
<path d="M115.999 93.4567C116.459 92.6583 116.827 91.8126 117.216 90.9797C117.352 90.69 117.509 90.6055 117.82 90.609C119.378 90.6271 120.936 90.6193 122.494 90.6142C122.677 90.6142 122.814 90.6538 122.948 90.79C123.785 91.6393 124.627 92.4833 125.478 93.3196C125.639 93.4774 125.64 93.567 125.478 93.7257C124.62 94.5688 123.771 95.4224 122.924 96.2768C122.817 96.3845 122.708 96.4294 122.556 96.4285C120.912 96.4233 119.269 96.4225 117.625 96.4302C117.442 96.4311 117.36 96.3604 117.288 96.2069C116.926 95.4405 116.555 94.6783 116.185 93.9162C116.13 93.8024 116.06 93.6964 115.997 93.586L115.997 93.4567L115.999 93.4567Z" fill="#F6F6F6"/>
<path d="M132.584 77C133.394 77.4621 134.249 77.8346 135.091 78.2303C135.36 78.3562 135.434 78.5053 135.431 78.789C135.416 80.3572 135.421 81.9263 135.429 83.4955C135.429 83.6955 135.372 83.8343 135.23 83.9739C134.389 84.8033 133.552 85.6379 132.724 86.4819C132.565 86.644 132.476 86.6414 132.319 86.4811C131.483 85.6301 130.638 84.7887 129.79 83.9498C129.667 83.8274 129.612 83.705 129.612 83.5282C129.618 81.9056 129.62 80.2831 129.611 78.6605C129.61 78.4536 129.688 78.3648 129.864 78.2777C130.728 77.8518 131.618 77.4776 132.456 77L132.585 77L132.584 77Z" fill="#F6F6F6"/>
<path d="M139.458 88.6812C138.845 88.6812 138.233 88.6718 137.621 88.6864C137.404 88.6916 137.354 88.6192 137.356 88.414C137.365 87.2104 137.362 86.0069 137.358 84.8033C137.358 84.655 137.389 84.5421 137.499 84.4326C138.666 83.2738 139.829 82.1116 140.988 80.9452C141.109 80.8227 141.211 80.7908 141.382 80.8495C142.264 81.1538 143.151 81.4452 144.038 81.7332C144.188 81.7814 144.262 81.8668 144.309 82.0116C144.598 82.8988 144.889 83.7859 145.194 84.6679C145.254 84.8429 145.21 84.9421 145.091 85.0602C143.934 86.212 142.777 87.3665 141.626 88.5261C141.51 88.6433 141.393 88.6873 141.231 88.6847C140.64 88.6761 140.049 88.6812 139.457 88.6812L139.458 88.6812Z" fill="#F6F6F6"/>
<path d="M137.36 100.436C137.36 99.8229 137.365 99.2108 137.356 98.5978C137.354 98.4219 137.395 98.3555 137.586 98.3564C138.821 98.3642 140.057 98.3624 141.293 98.3581C141.424 98.3581 141.512 98.4064 141.6 98.4952C142.768 99.6677 143.937 100.839 145.111 102.005C145.228 102.121 145.248 102.221 145.196 102.374C144.895 103.258 144.602 104.144 144.312 105.031C144.265 105.177 144.186 105.261 144.037 105.309C143.14 105.601 142.244 105.898 141.35 106.203C141.206 106.252 141.114 106.227 141.009 106.121C139.835 104.94 138.657 103.762 137.475 102.588C137.369 102.483 137.356 102.372 137.357 102.24C137.36 101.639 137.358 101.037 137.358 100.435L137.36 100.436Z" fill="#F6F6F6"/>
<path d="M127.679 86.62C127.679 87.2218 127.673 87.8235 127.683 88.4253C127.686 88.6116 127.65 88.6874 127.439 88.6857C126.214 88.6754 124.989 88.6779 123.764 88.684C123.621 88.684 123.524 88.6366 123.426 88.5391C122.266 87.3744 121.105 86.2105 119.938 85.0517C119.814 84.9284 119.792 84.8241 119.849 84.6569C120.149 83.7844 120.436 82.9084 120.721 82.0307C120.772 81.8756 120.849 81.7807 121.012 81.7281C121.9 81.441 122.786 81.1479 123.669 80.8462C123.824 80.7927 123.921 80.816 124.036 80.9315C125.202 82.1058 126.372 83.2757 127.548 84.4413C127.66 84.5534 127.681 84.6707 127.68 84.8155C127.676 85.4173 127.679 86.0191 127.679 86.6208L127.679 86.62Z" fill="#F6F6F6"/>
<path d="M125.61 98.3617C126.223 98.3617 126.835 98.3677 127.447 98.3582C127.63 98.3548 127.685 98.41 127.683 98.5936C127.675 99.8187 127.677 101.044 127.682 102.269C127.682 102.409 127.643 102.51 127.543 102.609C126.378 103.768 125.214 104.93 124.056 106.097C123.936 106.217 123.835 106.256 123.663 106.197C122.781 105.893 121.894 105.6 121.006 105.313C120.843 105.261 120.768 105.161 120.718 105.008C120.436 104.141 120.155 103.273 119.854 102.412C119.785 102.214 119.831 102.101 119.968 101.965C121.12 100.821 122.267 99.6739 123.411 98.5221C123.526 98.4065 123.64 98.3557 123.805 98.3582C124.407 98.3677 125.008 98.3617 125.61 98.3617Z" fill="#F6F6F6"/>
<path d="M144.942 90.6168C145.749 90.6168 146.555 90.6228 147.362 90.6125C147.56 90.6099 147.668 90.6625 147.755 90.8495C148.142 91.6764 148.541 92.4971 148.944 93.3162C149.019 93.4662 149.019 93.5852 148.944 93.7352C148.54 94.5534 148.142 95.375 147.754 96.2009C147.673 96.3734 147.575 96.4303 147.387 96.4294C145.753 96.4225 144.118 96.4234 142.483 96.4285C142.331 96.4285 142.223 96.3828 142.116 96.2751C141.26 95.4121 140.403 94.5508 139.537 93.6981C139.39 93.5541 139.406 93.4757 139.543 93.3403C140.407 92.4868 141.267 91.6272 142.12 90.7625C142.239 90.6418 142.364 90.6133 142.522 90.6142C143.329 90.6194 144.135 90.6168 144.942 90.6168Z" fill="#F6F6F6"/>
<path d="M135.424 105.94C135.424 106.757 135.418 107.574 135.428 108.392C135.431 108.582 135.366 108.676 135.196 108.756C134.371 109.144 133.549 109.541 132.731 109.945C132.581 110.02 132.463 110.021 132.312 109.946C131.494 109.542 130.672 109.144 129.846 108.756C129.678 108.677 129.611 108.587 129.611 108.394C129.619 106.76 129.618 105.125 129.613 103.49C129.613 103.339 129.656 103.229 129.764 103.122C130.627 102.266 131.487 101.408 132.341 100.544C132.478 100.405 132.558 100.398 132.7 100.541C133.552 101.407 134.413 102.265 135.278 103.119C135.398 103.238 135.428 103.362 135.427 103.52C135.421 104.327 135.424 105.133 135.424 105.94Z" fill="#F6F6F6"/>
<path d="M132.521 96.3751C131.629 96.6561 131.068 96.1862 130.456 95.6052C129.82 95.0017 129.576 94.3912 129.581 93.5136C129.587 92.6531 129.833 92.0591 130.439 91.447C131.057 90.8245 131.661 90.5762 132.535 90.5823C133.382 90.5883 133.972 90.8194 134.576 91.4229C135.198 92.0471 135.466 92.654 135.459 93.5438C135.452 94.3938 135.294 95.0637 134.588 95.5586C134.579 95.5646 134.572 95.5733 134.566 95.581C134.048 96.2604 133.415 96.6578 132.521 96.3742L132.521 96.3751Z" fill="#F6F6F6"/>
<path d="M139.474 90.6935C139.03 91.1315 138.583 91.566 138.143 92.0083C138.039 92.1126 137.98 92.1126 137.855 92.0186C137.435 91.7048 137.275 91.3039 137.357 90.7901C137.375 90.6771 137.39 90.6142 137.521 90.6151C138.162 90.6194 138.804 90.6168 139.445 90.6168C139.455 90.6418 139.465 90.6677 139.474 90.6927L139.474 90.6935Z" fill="#F6F6F6"/>
<path d="M139.435 96.4252C138.812 96.4252 138.191 96.4261 137.568 96.4243C137.498 96.4243 137.417 96.4511 137.369 96.364C137.285 96.2097 137.397 95.4984 137.529 95.3622C137.991 94.888 137.989 94.8906 138.45 95.3449C138.793 95.682 139.142 96.0122 139.487 96.345C139.47 96.3717 139.453 96.3985 139.436 96.4252L139.435 96.4252Z" fill="#F6F6F6"/>
<path d="M135.423 86.5173C135.423 87.2285 135.42 87.851 135.426 88.4735C135.428 88.6175 135.39 88.6658 135.234 88.6873C134.717 88.758 134.317 88.5976 134.013 88.1735C133.948 88.0829 133.904 88.0286 134.001 87.9338C134.459 87.4837 134.91 87.0294 135.423 86.5173Z" fill="#F6F6F6"/>
<path d="M135.424 100.536C134.912 100.022 134.464 99.5746 134.019 99.1246C133.976 99.0815 133.918 99.0436 133.94 98.9634C133.981 98.8168 134.567 98.3659 134.727 98.3616C135.192 98.3489 135.425 98.572 135.425 99.0306L135.425 100.536L135.424 100.536Z" fill="#F6F6F6"/>
<path d="M129.616 86.5173C130.13 87.0294 130.584 87.4829 131.039 87.9372C131.085 87.9829 131.124 88.0243 131.09 88.1036C130.931 88.4813 130.121 88.8166 129.708 88.6804C129.603 88.6459 129.622 88.5752 129.617 88.5045C129.613 88.4614 129.617 88.4183 129.617 88.3752C129.617 87.7855 129.617 87.1958 129.617 86.5173L129.616 86.5173Z" fill="#F6F6F6"/>
<path d="M129.616 100.473C129.616 99.8039 129.616 99.1711 129.616 98.5374C129.616 98.4762 129.604 98.409 129.676 98.3693C129.83 98.2857 130.545 98.3969 130.681 98.5279C130.997 98.8366 131.002 99.1438 130.696 99.4496C130.368 99.7763 130.041 100.102 129.712 100.428C129.699 100.441 129.677 100.444 129.615 100.473L129.616 100.473Z" fill="#F6F6F6"/>
<path d="M125.509 90.6168C126.225 90.6168 126.846 90.6219 127.466 90.6133C127.635 90.6107 127.664 90.6702 127.687 90.8306C127.762 91.3375 127.583 91.716 127.185 92.0177C127.086 92.0928 127.027 92.1384 126.922 92.0307C126.475 91.5755 126.021 91.1271 125.51 90.6168L125.509 90.6168Z" fill="#F6F6F6"/>
<path d="M125.517 96.4251C126.028 95.9121 126.482 95.4569 126.935 95.0025C126.981 94.9568 127.022 94.918 127.101 94.9517C127.48 95.1129 127.815 95.9216 127.678 96.3337C127.642 96.4389 127.573 96.419 127.502 96.4242C127.459 96.4277 127.416 96.4242 127.373 96.4242C126.783 96.4242 126.193 96.4242 125.516 96.4242L125.517 96.4251Z" fill="#F6F6F6"/>
</svg>
