<svg width="899" height="899" viewBox="0 0 899 899" fill="none" xmlns="http://www.w3.org/2000/svg">
<path d="M447.813 898.95C426.088 886.422 403.074 876.428 380.411 865.824C372.528 862.141 370.229 857.847 370.323 849.402C370.816 807.009 370.605 764.616 370.464 722.223C370.464 717.226 371.543 713.495 375.25 709.859C398.358 687.079 421.326 664.158 444.083 641.003C448.376 636.639 450.816 636.592 455.132 641.003C478.077 664.369 501.303 687.454 524.552 710.516C527.484 713.425 528.704 716.381 528.681 720.51C528.54 765.249 528.517 809.965 528.728 854.704C528.751 859.677 526.828 861.906 522.652 863.877C501.795 873.73 481.056 883.818 460.317 893.883C457.22 895.384 454.335 897.284 451.332 898.997H447.813V898.95Z" fill="url(#paint0_diamond_1_5)" fill-opacity="0.3"/>
<path d="M0 447.642C12.5748 425.612 22.7097 402.34 33.478 379.419C36.9033 372.123 40.9619 370.105 48.6804 370.175C91.3549 370.574 134.053 370.457 176.751 370.246C182.194 370.222 185.971 371.794 189.771 375.642C212.34 398.539 235.05 421.319 258.018 443.841C262.428 448.158 262.358 450.598 257.994 454.868C234.839 477.601 211.942 500.615 189.115 523.677C185.783 527.032 182.452 528.533 177.642 528.51C133.49 528.346 89.3373 528.299 45.1848 528.557C39.5543 528.58 37.1379 526.445 34.7684 521.66C23.1789 498.152 12.9971 473.941 0 451.137V447.618L0 447.642Z" fill="url(#paint1_diamond_1_5)" fill-opacity="0.3"/>
<path d="M317.865 260.592C317.865 277.272 317.607 293.929 318.006 310.586C318.147 316.498 316.176 317.835 310.593 317.788C277.842 317.554 245.091 317.624 212.34 317.741C208.305 317.741 205.232 316.897 202.252 313.894C170.722 282.152 139.097 250.504 107.355 218.973C104.024 215.665 103.156 212.897 104.751 208.252C113.032 184.251 120.962 160.111 128.798 135.97C130.112 131.888 132.434 129.87 136.375 128.58C160.516 120.721 184.657 112.814 208.657 104.509C213.42 102.867 216.117 104.064 219.332 107.301C250.675 138.809 282.088 170.269 313.642 201.589C316.833 204.756 318.03 207.947 317.959 212.357C317.725 228.427 317.865 244.521 317.865 260.615V260.592Z" fill="url(#paint2_diamond_1_5)" fill-opacity="0.3"/>
<path d="M637.725 317.694C621.045 317.694 604.388 317.554 587.707 317.788C582.921 317.859 581.115 316.732 581.138 311.548C581.35 277.929 581.303 244.287 581.185 210.668C581.185 207.102 582.499 204.709 584.916 202.316C616.822 170.527 648.681 138.715 680.423 106.762C683.567 103.594 686.288 103.031 690.464 104.463C714.511 112.65 738.628 120.627 762.769 128.509C766.734 129.8 769.01 131.935 770.323 135.993C778.276 160.416 786.37 184.791 794.652 209.119C795.989 213.037 795.309 215.524 792.423 218.386C760.282 250.339 728.235 282.386 696.282 314.551C693.42 317.436 690.417 317.788 686.828 317.765C670.452 317.694 654.077 317.741 637.702 317.741L637.725 317.694Z" fill="url(#paint3_diamond_1_5)" fill-opacity="0.3"/>
<path d="M261.772 581.108C278.147 581.108 294.522 581.272 310.898 581.014C315.965 580.92 318.03 581.906 317.983 587.654C317.701 620.991 317.772 654.328 317.936 687.665C317.936 691.536 316.646 694.187 313.995 696.838C282.299 728.416 250.628 760.017 219.097 791.759C215.742 795.138 212.903 795.748 208.352 794.199C184.61 786.035 160.774 778.223 136.892 770.457C132.669 769.073 130.088 766.985 128.657 762.551C120.845 738.387 112.868 714.27 104.657 690.246C103.203 686.023 103.836 683.372 106.98 680.252C138.933 648.51 170.769 616.674 202.487 584.698C205.537 581.624 208.728 581.061 212.669 581.085C229.044 581.202 245.42 581.132 261.795 581.132L261.772 581.108Z" fill="url(#paint4_diamond_1_5)" fill-opacity="0.3"/>
<path d="M581.279 637.413C581.279 620.733 581.443 604.076 581.185 587.419C581.092 582.445 582.593 580.967 587.59 581.014C620.927 581.225 654.265 581.178 687.602 581.038C691.402 581.038 694.147 582.093 696.845 584.815C728.4 616.533 760.024 648.181 791.766 679.712C795.027 682.973 796.106 685.718 794.488 690.41C786.206 714.41 778.253 738.528 770.441 762.692C769.01 767.149 766.312 769.167 762.136 770.528C738.534 778.223 714.933 785.871 691.496 794.058C686.1 795.935 683.027 794.668 679.32 790.938C648.212 759.595 616.986 728.393 585.643 697.261C582.499 694.14 581.115 691.02 581.185 686.539C581.443 670.164 581.279 653.788 581.279 637.413Z" fill="url(#paint5_diamond_1_5)" fill-opacity="0.3"/>
<path d="M370.534 111.36C370.534 89.4009 370.698 67.4654 370.417 45.5065C370.346 40.134 371.777 37.178 376.868 34.8085C399.367 24.2982 421.701 13.436 443.989 2.45656C448.071 0.43896 451.308 0.43896 455.39 2.45656C477.654 13.4595 500.012 24.2982 522.487 34.8554C527.179 37.0607 528.728 39.7117 528.704 44.8261C528.517 89.3071 528.54 133.788 528.681 178.269C528.681 182.422 527.437 185.354 524.505 188.263C501.021 211.559 477.584 234.879 454.382 258.457C450.464 262.445 448.329 262.023 444.645 258.293C421.42 234.762 398.03 211.372 374.499 188.146C371.214 184.908 370.44 181.507 370.464 177.213C370.604 155.254 370.534 133.319 370.534 111.36Z" fill="url(#paint6_diamond_1_5)" fill-opacity="0.3"/>
<path d="M787.496 370.363C809.737 370.363 831.977 370.527 854.218 370.246C859.402 370.175 861.96 371.935 864.118 376.557C874.675 399.032 885.49 421.389 896.493 443.653C898.511 447.736 898.558 450.926 896.517 455.055C885.514 477.319 874.699 499.677 864.141 522.152C861.983 526.727 859.52 528.557 854.288 528.533C809.807 528.322 765.326 528.346 720.845 528.486C716.716 528.486 713.737 527.313 710.828 524.381C687.531 500.897 664.188 477.483 640.657 454.258C636.88 450.527 636.693 448.346 640.587 444.498C664.141 421.296 687.508 397.882 710.734 374.351C713.971 371.067 717.35 370.269 721.643 370.293C743.602 370.433 765.537 370.363 787.496 370.363Z" fill="url(#paint7_diamond_1_5)" fill-opacity="0.3"/>
<path d="M527.226 449.354C534.875 473.636 522.089 488.909 506.276 505.566C489.854 522.856 473.244 529.495 449.361 529.354C425.948 529.214 409.784 522.504 393.127 506.011C376.188 489.214 369.432 472.768 369.596 448.979C369.76 425.941 376.047 409.87 392.47 393.448C409.455 376.51 425.971 369.214 450.182 369.425C473.314 369.612 491.543 373.906 505.009 393.12C505.174 393.354 505.408 393.565 505.619 393.73C524.106 407.806 534.921 425.049 527.203 449.354H527.226Z" fill="url(#paint8_diamond_1_5)" fill-opacity="0.3"/>
<path d="M372.622 260.169C384.54 272.251 396.364 284.404 408.399 296.369C411.238 299.208 411.238 300.826 408.681 304.228C400.141 315.653 389.232 319.993 375.25 317.765C372.176 317.272 370.464 316.873 370.487 313.307C370.605 295.853 370.534 278.398 370.534 260.944C371.214 260.686 371.918 260.404 372.599 260.146L372.622 260.169Z" fill="url(#paint9_diamond_1_5)" fill-opacity="0.3"/>
<path d="M528.587 261.225C528.587 278.163 528.61 295.078 528.563 312.017C528.563 313.917 529.291 316.146 526.921 317.436C522.722 319.735 503.367 316.686 499.66 313.073C486.757 300.521 486.827 300.568 499.191 288.017C508.364 278.703 517.349 269.202 526.405 259.794C527.132 260.263 527.86 260.732 528.587 261.202V261.225Z" fill="url(#paint10_diamond_1_5)" fill-opacity="0.3"/>
<path d="M258.98 370.387C278.335 370.387 295.273 370.48 312.211 370.316C316.129 370.269 317.443 371.278 318.03 375.548C319.953 389.601 315.59 400.486 304.047 408.768C301.584 410.527 300.106 411.724 297.525 409.096C285.279 396.639 272.915 384.345 258.98 370.387Z" fill="url(#paint11_diamond_1_5)" fill-opacity="0.3"/>
<path d="M640.446 370.363C626.464 384.299 614.288 396.475 602.042 408.604C600.869 409.777 599.836 411.348 597.655 410.738C593.666 409.636 581.397 393.683 581.279 389.319C580.935 376.666 587.004 370.34 599.485 370.34H640.446V370.363Z" fill="url(#paint12_diamond_1_5)" fill-opacity="0.3"/>
<path d="M258.98 528.416C272.915 514.434 285.255 502.07 297.619 489.683C298.862 488.439 299.989 487.384 302.147 488.299C312.423 492.615 321.549 514.668 317.842 525.906C316.904 528.768 314.98 528.252 313.056 528.393C311.883 528.486 310.71 528.393 309.537 528.393C293.49 528.393 277.443 528.393 258.98 528.393V528.416Z" fill="url(#paint13_diamond_1_5)" fill-opacity="0.3"/>
<path d="M638.734 528.416C620.528 528.416 603.308 528.416 586.065 528.416C584.399 528.416 582.569 528.744 581.49 526.774C579.215 522.598 582.241 503.126 585.807 499.442C594.206 490.825 602.566 490.684 610.886 499.02C619.778 507.935 628.646 516.85 637.514 525.788C637.866 526.14 637.959 526.75 638.734 528.44V528.416Z" fill="url(#paint14_diamond_1_5)" fill-opacity="0.3"/>
<path d="M370.534 640.158C370.534 620.686 370.675 603.794 370.44 586.926C370.37 582.328 371.989 581.53 376.352 580.897C390.147 578.856 400.446 583.736 408.657 594.551C410.698 597.249 411.942 598.868 409.009 601.73C396.622 613.882 384.423 626.223 370.534 640.135V640.158Z" fill="url(#paint15_diamond_1_5)" fill-opacity="0.3"/>
<path d="M528.587 639.947C514.628 626.035 502.241 613.695 489.877 601.354C488.634 600.111 487.578 599.008 488.493 596.85C492.88 586.527 514.886 577.425 526.1 581.155C528.962 582.117 528.423 584.017 528.564 585.941C528.657 587.114 528.564 588.287 528.564 589.46C528.564 605.507 528.564 621.554 528.564 639.97L528.587 639.947Z" fill="url(#paint16_diamond_1_5)" fill-opacity="0.3"/>
<defs>
<radialGradient id="paint0_diamond_1_5" cx="0" cy="0" r="1" gradientUnits="userSpaceOnUse" gradientTransform="translate(449.524 768.355) rotate(90) scale(130.642 79.2039)">
<stop stop-color="white"/>
<stop offset="1" stop-color="#D7DFE2"/>
</radialGradient>
<radialGradient id="paint1_diamond_1_5" cx="0" cy="0" r="1" gradientUnits="userSpaceOnUse" gradientTransform="translate(130.648 449.365) rotate(90) scale(79.1917 130.648)">
<stop stop-color="white"/>
<stop offset="1" stop-color="#D7DFE2"/>
</radialGradient>
<radialGradient id="paint2_diamond_1_5" cx="0" cy="0" r="1" gradientUnits="userSpaceOnUse" gradientTransform="translate(210.995 210.783) rotate(90) scale(107.007 107.019)">
<stop stop-color="white"/>
<stop offset="1" stop-color="#D7DFE2"/>
</radialGradient>
<radialGradient id="paint3_diamond_1_5" cx="0" cy="0" r="1" gradientUnits="userSpaceOnUse" gradientTransform="translate(688.224 210.755) rotate(90) scale(107.036 107.086)">
<stop stop-color="white"/>
<stop offset="1" stop-color="#D7DFE2"/>
</radialGradient>
<radialGradient id="paint4_diamond_1_5" cx="0" cy="0" r="1" gradientUnits="userSpaceOnUse" gradientTransform="translate(210.949 688.007) rotate(90) scale(106.999 107.035)">
<stop stop-color="white"/>
<stop offset="1" stop-color="#D7DFE2"/>
</radialGradient>
<radialGradient id="paint5_diamond_1_5" cx="0" cy="0" r="1" gradientUnits="userSpaceOnUse" gradientTransform="translate(688.206 687.965) rotate(90) scale(106.952 107.025)">
<stop stop-color="white"/>
<stop offset="1" stop-color="#D7DFE2"/>
</radialGradient>
<radialGradient id="paint6_diamond_1_5" cx="0" cy="0" r="1" gradientUnits="userSpaceOnUse" gradientTransform="translate(449.559 131.108) rotate(90) scale(130.165 79.1451)">
<stop stop-color="white"/>
<stop offset="1" stop-color="#D7DFE2"/>
</radialGradient>
<radialGradient id="paint7_diamond_1_5" cx="0" cy="0" r="1" gradientUnits="userSpaceOnUse" gradientTransform="translate(767.886 449.389) rotate(90) scale(79.1449 130.141)">
<stop stop-color="white"/>
<stop offset="1" stop-color="#D7DFE2"/>
</radialGradient>
<radialGradient id="paint8_diamond_1_5" cx="0" cy="0" r="1" gradientUnits="userSpaceOnUse" gradientTransform="translate(449.658 449.388) rotate(90) scale(79.9682 80.0646)">
<stop stop-color="white"/>
<stop offset="1" stop-color="#D7DFE2"/>
</radialGradient>
<radialGradient id="paint9_diamond_1_5" cx="0" cy="0" r="1" gradientUnits="userSpaceOnUse" gradientTransform="translate(390.526 289.238) rotate(90) scale(29.0917 20.0389)">
<stop stop-color="white"/>
<stop offset="1" stop-color="#D7DFE2"/>
</radialGradient>
<radialGradient id="paint10_diamond_1_5" cx="0" cy="0" r="1" gradientUnits="userSpaceOnUse" gradientTransform="translate(509.309 289.014) rotate(90) scale(29.2198 19.3594)">
<stop stop-color="white"/>
<stop offset="1" stop-color="#D7DFE2"/>
</radialGradient>
<radialGradient id="paint11_diamond_1_5" cx="0" cy="0" r="1" gradientUnits="userSpaceOnUse" gradientTransform="translate(288.724 390.47) rotate(90) scale(20.1552 29.7441)">
<stop stop-color="white"/>
<stop offset="1" stop-color="#D7DFE2"/>
</radialGradient>
<radialGradient id="paint12_diamond_1_5" cx="0" cy="0" r="1" gradientUnits="userSpaceOnUse" gradientTransform="translate(610.856 390.607) rotate(90) scale(20.2674 29.5905)">
<stop stop-color="white"/>
<stop offset="1" stop-color="#D7DFE2"/>
</radialGradient>
<radialGradient id="paint13_diamond_1_5" cx="0" cy="0" r="1" gradientUnits="userSpaceOnUse" gradientTransform="translate(288.832 508.194) rotate(90) scale(20.2405 29.8522)">
<stop stop-color="white"/>
<stop offset="1" stop-color="#D7DFE2"/>
</radialGradient>
<radialGradient id="paint14_diamond_1_5" cx="0" cy="0" r="1" gradientUnits="userSpaceOnUse" gradientTransform="translate(609.718 510.656) rotate(90) scale(17.7839 29.0158)">
<stop stop-color="white"/>
<stop offset="1" stop-color="#D7DFE2"/>
</radialGradient>
<radialGradient id="paint15_diamond_1_5" cx="0" cy="0" r="1" gradientUnits="userSpaceOnUse" gradientTransform="translate(390.591 610.3) rotate(90) scale(29.8579 20.1533)">
<stop stop-color="white"/>
<stop offset="1" stop-color="#D7DFE2"/>
</radialGradient>
<radialGradient id="paint16_diamond_1_5" cx="0" cy="0" r="1" gradientUnits="userSpaceOnUse" gradientTransform="translate(508.376 610.136) rotate(90) scale(29.8341 20.2288)">
<stop stop-color="white"/>
<stop offset="1" stop-color="#D7DFE2"/>
</radialGradient>
</defs>
</svg>
