<svg width="306" height="110" viewBox="0 0 306 110" fill="none" xmlns="http://www.w3.org/2000/svg">
<path d="M305.997 45.091C305.076 46.6876 304.341 48.379 303.562 50.0445C303.291 50.6239 302.976 50.7928 302.355 50.7859C299.24 50.7497 296.124 50.7652 293.008 50.7756C292.641 50.7756 292.367 50.6963 292.1 50.4239C290.426 48.7256 288.741 47.0376 287.039 45.3652C286.719 45.0496 286.715 44.8703 287.039 44.5531C288.757 42.8669 290.453 41.1599 292.148 39.4513C292.362 39.2358 292.579 39.1461 292.883 39.1478C296.171 39.1582 299.457 39.1599 302.745 39.1444C303.11 39.1427 303.274 39.2841 303.419 39.591C304.143 41.1237 304.884 42.6479 305.624 44.172C305.735 44.3996 305.874 44.6117 306 44.8324L306 45.091L305.997 45.091Z" fill="#147CA6" fill-opacity="0.49"/>
<path d="M272.829 78.0017C271.21 77.0776 269.499 76.3327 267.815 75.5413C267.279 75.2896 267.13 74.9913 267.136 74.4241C267.165 71.2878 267.156 68.1498 267.141 65.0119C267.139 64.6119 267.255 64.3343 267.537 64.055C269.22 62.3963 270.894 60.7273 272.549 59.0394C272.867 58.7152 273.046 58.7204 273.36 59.0411C275.031 60.7428 276.722 62.4256 278.417 64.1032C278.663 64.3481 278.774 64.5929 278.772 64.9464C278.76 68.1912 278.756 71.4361 278.775 74.681C278.777 75.0948 278.62 75.2724 278.269 75.4465C276.541 76.2982 274.762 77.0465 273.086 78.0017L272.827 78.0017L272.829 78.0017Z" fill="#147CA6" fill-opacity="0.49"/>
<path d="M259.082 54.6411C260.308 54.6411 261.532 54.6601 262.757 54.6308C263.191 54.6204 263.289 54.7653 263.286 55.1756C263.269 57.5825 263.274 59.9895 263.282 62.3964C263.282 62.693 263.22 62.9188 263 63.1378C260.667 65.4551 258.341 67.7792 256.024 70.112C255.781 70.3569 255.577 70.4206 255.236 70.3034C253.472 69.6948 251.698 69.112 249.924 68.5361C249.624 68.4396 249.475 68.2689 249.38 67.9792C248.803 66.2051 248.222 64.4309 247.611 62.6671C247.491 62.3171 247.579 62.1188 247.817 61.8826C250.132 59.5791 252.444 57.2705 254.746 54.9515C254.979 54.717 255.213 54.629 255.537 54.6342C256.719 54.6515 257.901 54.6411 259.084 54.6411L259.082 54.6411Z" fill="#147CA6" fill-opacity="0.49"/>
<path d="M263.279 31.1339C263.279 32.3598 263.268 33.5839 263.286 34.8098C263.291 35.1616 263.208 35.2943 262.827 35.2926C260.356 35.2771 257.884 35.2805 255.413 35.2891C255.151 35.2891 254.975 35.1926 254.799 35.015C252.463 32.6701 250.125 30.3287 247.777 27.9959C247.544 27.7649 247.503 27.5649 247.608 27.258C248.21 25.4907 248.796 23.7183 249.375 21.9441C249.47 21.6527 249.627 21.4855 249.925 21.3889C251.72 20.8045 253.511 20.2096 255.299 19.601C255.587 19.5027 255.77 19.5527 255.98 19.7648C258.329 22.1269 260.684 24.4821 263.048 26.8304C263.26 27.0407 263.286 27.2614 263.284 27.5252C263.279 28.7287 263.282 29.9322 263.282 31.1356L263.279 31.1339Z" fill="#147CA6" fill-opacity="0.49"/>
<path d="M282.638 58.7634C282.638 57.56 282.65 56.3565 282.631 55.153C282.624 54.7806 282.696 54.6289 283.119 54.6323C285.569 54.653 288.019 54.6479 290.469 54.6358C290.753 54.6358 290.948 54.7306 291.143 54.9254C293.464 57.2548 295.786 59.5824 298.119 61.8997C298.367 62.1462 298.412 62.3549 298.298 62.6893C297.698 64.4342 297.124 66.1859 296.553 67.9411C296.452 68.2515 296.298 68.4412 295.972 68.5463C294.196 69.1205 292.424 69.7067 290.658 70.3101C290.348 70.417 290.153 70.3705 289.924 70.1394C287.591 67.7911 285.252 65.4515 282.901 63.1204C282.676 62.8962 282.634 62.6618 282.636 62.3721C282.645 61.1686 282.639 59.9652 282.639 58.7617L282.638 58.7634Z" fill="#147CA6" fill-opacity="0.49"/>
<path d="M286.776 35.282C285.55 35.282 284.326 35.2699 283.101 35.2889C282.736 35.2958 282.627 35.1854 282.631 34.8182C282.646 32.3682 282.643 29.9181 282.632 27.4681C282.632 27.1888 282.71 26.987 282.91 26.7888C285.241 24.4698 287.567 22.1456 289.884 19.8128C290.124 19.5731 290.326 19.4938 290.67 19.6128C292.434 20.2214 294.207 20.8059 295.983 21.3801C296.31 21.4852 296.458 21.6835 296.558 21.9904C297.124 23.7249 297.686 25.4594 298.288 27.1819C298.426 27.5784 298.333 27.8043 298.058 28.0767C295.755 30.363 293.462 32.6578 291.174 34.9613C290.945 35.1923 290.715 35.2941 290.386 35.2889C289.183 35.2699 287.979 35.282 286.776 35.282Z" fill="#147CA6" fill-opacity="0.49"/>
<path d="M248.115 50.7704C246.501 50.7704 244.889 50.7583 243.275 50.779C242.88 50.7842 242.663 50.679 242.489 50.3049C241.716 48.6514 240.918 47.01 240.111 45.372C239.963 45.072 239.963 44.8341 240.111 44.5341C240.92 42.8979 241.716 41.2547 242.492 39.603C242.654 39.2581 242.849 39.1443 243.225 39.1461C246.494 39.1599 249.763 39.1581 253.032 39.1478C253.337 39.1478 253.553 39.2392 253.767 39.4547C255.479 41.1806 257.192 42.903 258.925 44.6082C259.218 44.8962 259.187 45.0531 258.913 45.3237C257.184 47.0307 255.465 48.7497 253.758 50.479C253.52 50.7204 253.27 50.7773 252.954 50.7755C251.341 50.7652 249.729 50.7704 248.115 50.7704Z" fill="#147CA6" fill-opacity="0.49"/>
<path d="M267.15 20.1267C267.15 18.4922 267.162 16.8577 267.141 15.2232C267.136 14.8422 267.265 14.6542 267.605 14.4956C269.257 13.7197 270.9 12.9249 272.536 12.1163C272.836 11.968 273.07 11.9645 273.374 12.1145C275.01 12.9232 276.653 13.718 278.305 14.4939C278.641 14.6525 278.776 14.8335 278.774 15.218C278.758 18.487 278.76 21.7561 278.77 25.0251C278.77 25.3285 278.684 25.5475 278.469 25.7613C276.743 27.4734 275.022 29.1889 273.315 30.9183C273.041 31.1958 272.881 31.2096 272.598 30.9234C270.893 29.1924 269.172 27.4751 267.443 25.7682C267.201 25.5302 267.143 25.282 267.144 24.9664C267.155 23.3526 267.15 21.7405 267.15 20.1267Z" fill="#147CA6" fill-opacity="0.49"/>
<path d="M272.955 39.2547C274.739 38.6927 275.862 39.6323 277.086 40.7944C278.356 42.0013 278.844 43.222 278.834 44.9772C278.824 46.6979 278.331 47.8859 277.118 49.11C275.884 50.3549 274.675 50.8515 272.927 50.8394C271.234 50.8273 270.053 50.3652 268.846 49.1583C267.601 47.91 267.065 46.6962 267.08 44.9169C267.094 43.2169 267.41 41.8772 268.822 40.8875C268.839 40.8755 268.855 40.8582 268.867 40.8427C269.901 39.4841 271.168 38.6892 272.955 39.2565L272.955 39.2547Z" fill="#147CA6" fill-opacity="0.49"/>
<path d="M259.051 50.6169C259.939 49.741 260.832 48.872 261.711 47.9875C261.92 47.7789 262.039 47.7789 262.289 47.9669C263.129 48.5944 263.448 49.3962 263.284 50.4238C263.248 50.6496 263.218 50.7755 262.956 50.7738C261.673 50.7652 260.391 50.7703 259.108 50.7703C259.089 50.7203 259.068 50.6686 259.049 50.6186L259.051 50.6169Z" fill="#147CA6" fill-opacity="0.49"/>
<path d="M259.129 39.1546C260.373 39.1546 261.617 39.1529 262.861 39.1563C263.001 39.1563 263.165 39.1029 263.26 39.277C263.429 39.5857 263.205 41.0081 262.939 41.2805C262.017 42.2288 262.02 42.2236 261.098 41.315C260.413 40.6408 259.715 39.9805 259.023 39.315C259.058 39.2615 259.092 39.2081 259.127 39.1546L259.129 39.1546Z" fill="#147CA6" fill-opacity="0.49"/>
<path d="M267.151 58.9688C267.151 57.5463 267.158 56.3015 267.146 55.0566C267.143 54.7687 267.217 54.6721 267.531 54.629C268.563 54.4877 269.363 54.8083 269.972 55.6566C270.101 55.8377 270.189 55.9463 269.996 56.136C269.081 57.036 268.177 57.9446 267.151 58.9688Z" fill="#147CA6" fill-opacity="0.49"/>
<path d="M267.149 30.9337C268.174 31.9613 269.068 32.8562 269.96 33.7562C270.046 33.8424 270.162 33.9183 270.117 34.0786C270.036 34.3717 268.863 35.2734 268.543 35.2821C267.613 35.3074 267.148 34.8614 267.148 33.9441L267.148 30.9337L267.149 30.9337Z" fill="#147CA6" fill-opacity="0.49"/>
<path d="M278.765 58.9688C277.738 57.9446 276.829 57.0377 275.919 56.1291C275.827 56.0377 275.75 55.9549 275.817 55.7963C276.134 55.0411 277.755 54.3704 278.581 54.6428C278.791 54.7118 278.753 54.8532 278.763 54.9946C278.77 55.0808 278.763 55.167 278.763 55.2532C278.763 56.4325 278.763 57.6118 278.763 58.9688L278.765 58.9688Z" fill="#147CA6" fill-opacity="0.49"/>
<path d="M278.765 31.0596C278.765 32.3975 278.765 33.6631 278.765 34.9303C278.765 35.0527 278.789 35.1872 278.645 35.2665C278.338 35.4338 276.907 35.2114 276.636 34.9493C276.003 34.332 275.992 33.7177 276.605 33.1062C277.26 32.4527 277.915 31.801 278.572 31.1492C278.598 31.1234 278.643 31.1165 278.767 31.0596L278.765 31.0596Z" fill="#147CA6" fill-opacity="0.49"/>
<path d="M286.977 50.7704C285.546 50.7704 284.305 50.7601 283.065 50.7773C282.727 50.7825 282.669 50.6635 282.622 50.3428C282.472 49.329 282.831 48.5721 283.625 47.9686C283.824 47.8186 283.943 47.7273 284.153 47.9428C285.046 48.8531 285.953 49.7497 286.976 50.7704L286.977 50.7704Z" fill="#147CA6" fill-opacity="0.49"/>
<path d="M286.962 39.1547C285.939 40.1806 285.032 41.091 284.126 41.9996C284.034 42.091 283.953 42.1686 283.795 42.1013C283.036 41.7789 282.367 40.1616 282.641 39.3375C282.712 39.1271 282.851 39.1668 282.993 39.1565C283.079 39.1496 283.165 39.1565 283.251 39.1565C284.431 39.1565 285.61 39.1565 286.964 39.1565L286.962 39.1547Z" fill="#147CA6" fill-opacity="0.49"/>
<path d="M34.9992 24.5486C34.5109 25.3953 34.1214 26.2923 33.7081 27.1756C33.5646 27.4828 33.3972 27.5724 33.0681 27.5687C31.4158 27.5495 29.7636 27.5578 28.1114 27.5633C27.9166 27.5633 27.7712 27.5212 27.6295 27.3767C26.7417 26.4761 25.8483 25.5809 24.9459 24.694C24.7758 24.5267 24.774 24.4316 24.9459 24.2634C25.8566 23.3691 26.7563 22.4639 27.6551 21.5578C27.7685 21.4435 27.8837 21.3959 28.0446 21.3969C29.7883 21.4023 31.531 21.4033 33.2747 21.395C33.4686 21.3941 33.5554 21.4691 33.6322 21.6318C34.0162 22.4447 34.4094 23.253 34.8017 24.0613C34.8602 24.182 34.9343 24.2944 35.001 24.4115L35.001 24.5486L34.9992 24.5486Z" fill="#F6F6F6"/>
<path d="M17.4096 42.0017C16.5511 41.5116 15.644 41.1166 14.7507 40.6969C14.4663 40.5634 14.3877 40.4052 14.3904 40.1044C14.406 38.4412 14.4014 36.7771 14.3932 35.113C14.3923 34.9008 14.4535 34.7536 14.6035 34.6055C15.4959 33.7259 16.3837 32.8408 17.2615 31.9457C17.4298 31.7738 17.5249 31.7765 17.6913 31.9466C18.5773 32.849 19.4743 33.7414 20.3731 34.6311C20.5038 34.7609 20.5623 34.8908 20.5614 35.0782C20.555 36.799 20.5532 38.5199 20.5632 40.2407C20.5642 40.4601 20.481 40.5543 20.2944 40.6466C19.3782 41.0983 18.4346 41.4952 17.5459 42.0017L17.4087 42.0017L17.4096 42.0017Z" fill="#F6F6F6"/>
<path d="M10.1196 29.6132C10.7697 29.6132 11.4189 29.6232 12.0681 29.6077C12.2985 29.6022 12.3506 29.679 12.3488 29.8966C12.3396 31.173 12.3424 32.4495 12.3469 33.7259C12.3469 33.8832 12.314 34.003 12.197 34.1191C10.9599 35.348 9.7264 36.5805 8.49751 37.8176C8.36859 37.9475 8.2607 37.9813 8.07965 37.9191C7.14427 37.5964 6.2034 37.2873 5.26253 36.9819C5.10344 36.9307 5.0248 36.8402 4.97451 36.6866C4.6682 35.7457 4.36007 34.8049 4.03639 33.8695C3.97238 33.6839 4.01901 33.5787 4.14519 33.4534C5.37317 32.2319 6.59932 31.0075 7.81998 29.7777C7.94341 29.6534 8.06777 29.6068 8.23967 29.6095C8.866 29.6186 9.49324 29.6132 10.1205 29.6132L10.1196 29.6132Z" fill="#F6F6F6"/>
<path d="M12.3452 17.1469C12.3452 17.797 12.3397 18.4462 12.3488 19.0963C12.3516 19.2828 12.3077 19.3532 12.1056 19.3523C10.7953 19.3441 9.48416 19.3459 8.17389 19.3505C8.03491 19.3505 7.94165 19.2993 7.84838 19.2051C6.60944 17.9616 5.36957 16.7199 4.12423 15.4827C4.00079 15.3602 3.97884 15.2542 4.03462 15.0914C4.35373 14.1542 4.66461 13.2142 4.97183 12.2734C5.02212 12.1188 5.10533 12.0301 5.26351 11.9789C6.21535 11.669 7.16536 11.3535 8.11355 11.0308C8.26624 10.9786 8.36317 11.0052 8.47472 11.1176C9.72007 12.3703 10.9691 13.6193 12.2226 14.8646C12.3351 14.9762 12.3488 15.0932 12.3479 15.2331C12.3452 15.8713 12.347 16.5096 12.347 17.1478L12.3452 17.1469Z" fill="#F6F6F6"/>
<path d="M22.6116 31.7993C22.6116 31.1611 22.618 30.5228 22.6079 29.8846C22.6042 29.6871 22.6426 29.6067 22.8667 29.6085C24.166 29.6195 25.4652 29.6167 26.7645 29.6103C26.9154 29.6103 27.0187 29.6606 27.1221 29.7639C28.3528 30.9992 29.5844 32.2336 30.8215 33.4625C30.9532 33.5932 30.977 33.7039 30.9166 33.8813C30.5984 34.8066 30.2939 35.7356 29.9913 36.6664C29.9373 36.831 29.856 36.9315 29.6832 36.9873C28.7414 37.2918 27.8014 37.6027 26.8651 37.9227C26.7005 37.9794 26.5972 37.9547 26.4756 37.8322C25.2385 36.5868 23.9977 35.3461 22.7514 34.1099C22.6317 33.991 22.6097 33.8666 22.6106 33.713C22.6152 33.0748 22.6125 32.4366 22.6125 31.7984L22.6116 31.7993Z" fill="#F6F6F6"/>
<path d="M24.8058 19.3466C24.1557 19.3466 23.5065 19.3402 22.8573 19.3503C22.6635 19.354 22.6059 19.2954 22.6077 19.1007C22.6159 17.8014 22.6141 16.5021 22.6086 15.2028C22.6086 15.0547 22.6498 14.9477 22.7558 14.8425C23.992 13.6127 25.2255 12.3802 26.4544 11.1431C26.5815 11.016 26.6885 10.9739 26.8713 11.037C27.8067 11.3598 28.7467 11.6697 29.6885 11.9742C29.8622 12.03 29.9408 12.1351 29.9939 12.2979C30.2938 13.2177 30.5918 14.1376 30.9109 15.051C30.9841 15.2613 30.9347 15.3811 30.7893 15.5256C29.5678 16.738 28.3517 17.955 27.1383 19.1766C27.0167 19.2991 26.8951 19.353 26.7205 19.3503C26.0822 19.3402 25.444 19.3466 24.8058 19.3466Z" fill="#F6F6F6"/>
<path d="M4.3034 27.5605C3.44757 27.5605 2.59265 27.5541 1.73681 27.5651C1.52743 27.5678 1.41222 27.5121 1.31987 27.3136C0.910238 26.4368 0.486893 25.5663 0.0589758 24.6977C-0.0196586 24.5386 -0.0196586 24.4124 0.0589758 24.2533C0.487807 23.3856 0.910239 22.5142 1.3217 21.6383C1.40765 21.4554 1.51097 21.395 1.7103 21.396C3.44391 21.4033 5.17752 21.4024 6.91114 21.3969C7.07298 21.3969 7.18727 21.4453 7.30065 21.5596C8.2086 22.4749 9.11747 23.3883 10.0364 24.2926C10.1918 24.4453 10.1754 24.5285 10.03 24.6721C9.1129 25.5773 8.20129 26.4889 7.29608 27.406C7.1699 27.534 7.03732 27.5642 6.86999 27.5633C6.01416 27.5578 5.15924 27.5605 4.3034 27.5605Z" fill="#F6F6F6"/>
<path d="M14.398 11.3097C14.398 10.4428 14.4044 9.57604 14.3934 8.70924C14.3906 8.50717 14.4592 8.4075 14.6394 8.32338C15.5153 7.91192 16.3867 7.4904 17.2544 7.06157C17.4135 6.98294 17.5379 6.98111 17.6988 7.06066C18.5665 7.48949 19.4379 7.91101 20.3138 8.32247C20.4921 8.40659 20.5634 8.50259 20.5625 8.70649C20.5543 10.4401 20.5552 12.1737 20.5607 13.9073C20.5607 14.0683 20.515 14.1844 20.4007 14.2978C19.4854 15.2057 18.5729 16.1155 17.6677 17.0326C17.5223 17.1798 17.4373 17.1871 17.2873 17.0353C16.383 16.1173 15.4705 15.2066 14.5534 14.3014C14.4254 14.1752 14.3943 14.0436 14.3952 13.8762C14.4007 13.0204 14.398 12.1655 14.398 11.3097Z" fill="#F6F6F6"/>
<path d="M17.4765 21.4535C18.4228 21.1554 19.0181 21.6538 19.6672 22.27C20.3411 22.9101 20.5999 23.5574 20.5944 24.4883C20.5889 25.4008 20.3274 26.0308 19.6846 26.68C19.0299 27.3401 18.389 27.6035 17.4618 27.5971C16.5639 27.5907 15.9376 27.3456 15.2976 26.7056C14.6374 26.0436 14.353 25.3999 14.3613 24.4563C14.3686 23.5547 14.5359 22.8442 15.2848 22.3194C15.2939 22.313 15.3021 22.3039 15.3085 22.2956C15.8571 21.5751 16.5292 21.1536 17.4765 21.4544L17.4765 21.4535Z" fill="#F6F6F6"/>
<path d="M10.1032 27.479C10.5741 27.0145 11.0477 26.5537 11.5141 26.0847C11.6247 25.974 11.6878 25.974 11.8204 26.0737C12.2657 26.4065 12.4348 26.8317 12.3479 27.3766C12.3287 27.4964 12.3132 27.5632 12.1742 27.5622C11.4939 27.5577 10.8137 27.5604 10.1334 27.5604C10.1233 27.5339 10.1124 27.5065 10.1023 27.48L10.1032 27.479Z" fill="#F6F6F6"/>
<path d="M10.1442 21.4004C10.8043 21.4004 11.4636 21.3995 12.1237 21.4013C12.1978 21.4013 12.2847 21.373 12.3349 21.4653C12.4246 21.629 12.3057 22.3833 12.1649 22.5278C11.6757 23.0307 11.6775 23.028 11.1883 22.5461C10.8253 22.1886 10.455 21.8384 10.0884 21.4854C10.1067 21.4571 10.125 21.4287 10.1432 21.4004L10.1442 21.4004Z" fill="#F6F6F6"/>
<path d="M14.3988 31.9082C14.3988 31.1539 14.4025 30.4937 14.3961 29.8335C14.3942 29.6808 14.4335 29.6296 14.6 29.6068C15.1477 29.5318 15.5719 29.7019 15.8947 30.1517C15.9633 30.2477 16.0099 30.3053 15.9075 30.4059C15.422 30.8832 14.9428 31.3651 14.3988 31.9082Z" fill="#F6F6F6"/>
<path d="M14.3979 17.0408C14.941 17.5857 15.4156 18.0603 15.8883 18.5375C15.934 18.5833 15.9953 18.6235 15.9715 18.7085C15.9285 18.864 15.3068 19.3422 15.1367 19.3468C14.6435 19.3602 14.397 19.1236 14.397 18.6372L14.397 17.0408L14.3979 17.0408Z" fill="#F6F6F6"/>
<path d="M20.558 31.9082C20.013 31.3651 19.5311 30.8841 19.0484 30.4023C18.9999 30.3538 18.9588 30.3099 18.9944 30.2258C19.1627 29.8253 20.0222 29.4696 20.4601 29.6141C20.5717 29.6507 20.5516 29.7256 20.557 29.8006C20.5607 29.8463 20.557 29.8921 20.557 29.9378C20.557 30.5632 20.557 31.1886 20.557 31.9082L20.558 31.9082Z" fill="#F6F6F6"/>
<path d="M20.5579 17.1075C20.5579 17.8171 20.5579 18.4882 20.5579 19.1602C20.5579 19.2252 20.5707 19.2965 20.4939 19.3385C20.3312 19.4272 19.5722 19.3093 19.4287 19.1703C19.0928 18.843 19.0873 18.5172 19.4122 18.1929C19.7597 17.8463 20.1071 17.5007 20.4555 17.1551C20.4692 17.1414 20.493 17.1377 20.5588 17.1075L20.5579 17.1075Z" fill="#F6F6F6"/>
<path d="M24.9128 27.5605C24.1539 27.5605 23.4956 27.555 22.8382 27.5641C22.6589 27.5669 22.6279 27.5038 22.6032 27.3337C22.5236 26.7961 22.7138 26.3947 23.1353 26.0746C23.2405 25.9951 23.3036 25.9466 23.4151 26.0609C23.8887 26.5437 24.3697 27.0192 24.9119 27.5605L24.9128 27.5605Z" fill="#F6F6F6"/>
<path d="M24.9047 21.4005C24.3625 21.9445 23.8815 22.4273 23.4006 22.9092C23.3521 22.9576 23.3091 22.9988 23.225 22.9631C22.8227 22.7921 22.4679 21.9345 22.6133 21.4974C22.6508 21.3858 22.7249 21.4069 22.7998 21.4014C22.8456 21.3977 22.8913 21.4014 22.937 21.4014C23.5624 21.4014 24.1878 21.4014 24.9056 21.4014L24.9047 21.4005Z" fill="#F6F6F6"/>
<path d="M146.997 80.5817C146.174 82.0089 145.517 83.5209 144.821 85.0098C144.579 85.5277 144.297 85.6787 143.742 85.6725C140.957 85.6402 138.171 85.6541 135.386 85.6633C135.058 85.6633 134.813 85.5924 134.574 85.3489C133.078 83.8307 131.572 82.3218 130.05 80.8267C129.764 80.5447 129.761 80.3844 130.05 80.1008C131.586 78.5934 133.102 77.0675 134.617 75.5401C134.808 75.3474 135.003 75.2673 135.274 75.2688C138.213 75.2781 141.151 75.2796 144.09 75.2657C144.417 75.2642 144.563 75.3906 144.693 75.6649C145.34 77.0351 146.003 78.3976 146.664 79.7601C146.763 79.9636 146.888 80.1532 147 80.3505L147 80.5817L146.997 80.5817Z" fill="#03A679" fill-opacity="0.39"/>
<path d="M117.347 110.002C115.9 109.176 114.371 108.51 112.865 107.802C112.386 107.577 112.253 107.311 112.258 106.804C112.284 104 112.276 101.195 112.262 98.3896C112.261 98.032 112.364 97.7839 112.617 97.5342C114.121 96.0514 115.618 94.5595 117.097 93.0505C117.381 92.7608 117.541 92.7654 117.822 93.0521C119.315 94.5733 120.827 96.0776 122.342 97.5773C122.563 97.7962 122.661 98.0151 122.66 98.331C122.649 101.232 122.646 104.132 122.663 107.033C122.665 107.403 122.524 107.562 122.21 107.718C120.665 108.479 119.075 109.148 117.577 110.002L117.345 110.002L117.347 110.002Z" fill="#03A679" fill-opacity="0.39"/>
<path d="M105.058 89.1187C106.154 89.1187 107.248 89.1357 108.343 89.1095C108.731 89.1002 108.819 89.2297 108.816 89.5965C108.801 91.7482 108.805 93.8998 108.813 96.0515C108.813 96.3166 108.757 96.5185 108.56 96.7142C106.475 98.7857 104.396 100.863 102.324 102.949C102.107 103.168 101.925 103.225 101.62 103.12C100.043 102.576 98.4569 102.055 96.8709 101.54C96.6027 101.454 96.4702 101.301 96.3854 101.042C95.8691 99.4562 95.3496 97.8702 94.804 96.2935C94.6961 95.9806 94.7747 95.8033 94.9874 95.5922C97.0574 93.533 99.1243 91.4692 101.182 89.3962C101.39 89.1866 101.6 89.108 101.889 89.1126C102.945 89.128 104.002 89.1187 105.06 89.1187L105.058 89.1187Z" fill="#03A679" fill-opacity="0.39"/>
<path d="M108.81 68.1046C108.81 69.2005 108.8 70.2948 108.816 71.3907C108.82 71.7051 108.746 71.8238 108.406 71.8223C106.197 71.8084 103.987 71.8115 101.778 71.8192C101.544 71.8192 101.387 71.7329 101.23 71.5741C99.1411 69.4779 97.0511 67.3849 94.9519 65.2995C94.7438 65.093 94.7068 64.9142 94.8008 64.6398C95.3388 63.06 95.8628 61.4755 96.3807 59.8895C96.4654 59.6291 96.6057 59.4796 96.8723 59.3932C98.4768 58.8707 100.078 58.339 101.677 57.7949C101.934 57.7071 102.097 57.7518 102.285 57.9413C104.385 60.0529 106.49 62.1583 108.603 64.2576C108.793 64.4456 108.816 64.6429 108.814 64.8787C108.81 65.9545 108.813 67.0304 108.813 68.1062L108.81 68.1046Z" fill="#03A679" fill-opacity="0.39"/>
<path d="M126.115 92.8038C126.115 91.728 126.126 90.6522 126.109 89.5763C126.103 89.2434 126.168 89.1078 126.545 89.1109C128.736 89.1294 130.926 89.1247 133.116 89.1139C133.37 89.1139 133.544 89.1987 133.719 89.3729C135.793 91.4552 137.869 93.5359 139.955 95.6074C140.177 95.8278 140.217 96.0143 140.115 96.3133C139.579 97.8731 139.065 99.4391 138.555 101.008C138.464 101.286 138.327 101.455 138.036 101.549C136.448 102.062 134.864 102.586 133.286 103.126C133.008 103.221 132.834 103.18 132.629 102.973C130.544 100.874 128.452 98.7825 126.351 96.6987C126.149 96.4983 126.112 96.2887 126.114 96.0297C126.122 94.9539 126.117 93.8781 126.117 92.8023L126.115 92.8038Z" fill="#03A679" fill-opacity="0.39"/>
<path d="M129.814 71.8128C128.719 71.8128 127.624 71.802 126.53 71.8189C126.203 71.8251 126.106 71.7265 126.109 71.3982C126.123 69.208 126.12 67.0178 126.111 64.8276C126.111 64.5779 126.18 64.3976 126.359 64.2204C128.443 62.1473 130.522 60.0696 132.593 57.9843C132.808 57.77 132.988 57.6991 133.296 57.8055C134.873 58.3496 136.457 58.8721 138.045 59.3853C138.338 59.4793 138.47 59.6566 138.56 59.9309C139.065 61.4815 139.568 63.032 140.106 64.5718C140.229 64.9263 140.146 65.1282 139.901 65.3717C137.842 67.4155 135.792 69.4669 133.746 71.5261C133.541 71.7326 133.336 71.8236 133.042 71.8189C131.966 71.802 130.89 71.8128 129.814 71.8128Z" fill="#03A679" fill-opacity="0.39"/>
<path d="M95.2541 85.6586C93.8115 85.6586 92.3703 85.6478 90.9277 85.6663C90.5747 85.671 90.3805 85.5769 90.2249 85.2425C89.5344 83.7644 88.8207 82.2971 88.0994 80.8328C87.9669 80.5647 87.9669 80.352 88.0994 80.0838C88.8223 78.6211 89.5344 77.1522 90.2279 75.6757C90.3728 75.3674 90.547 75.2657 90.883 75.2672C93.8053 75.2796 96.7276 75.278 99.6499 75.2688C99.9227 75.2688 100.115 75.3504 100.306 75.5431C101.837 77.0859 103.369 78.6257 104.918 80.15C105.18 80.4074 105.152 80.5477 104.907 80.7897C103.361 82.3156 101.825 83.8522 100.299 85.3982C100.086 85.6139 99.8626 85.6648 99.5805 85.6633C98.1379 85.654 96.6968 85.6586 95.2541 85.6586Z" fill="#03A679" fill-opacity="0.39"/>
<path d="M112.27 58.2651C112.27 56.8039 112.281 55.3428 112.262 53.8816C112.258 53.541 112.373 53.373 112.677 53.2312C114.154 52.5376 115.622 51.8271 117.085 51.1042C117.353 50.9716 117.563 50.9686 117.834 51.1027C119.297 51.8255 120.766 52.5361 122.242 53.2296C122.543 53.3714 122.663 53.5333 122.661 53.877C122.648 56.7993 122.649 59.7216 122.658 62.6439C122.658 62.9151 122.581 63.1109 122.389 63.302C120.846 64.8325 119.308 66.3661 117.782 67.912C117.537 68.1602 117.393 68.1725 117.141 67.9167C115.616 66.3692 114.078 64.8341 112.532 63.3082C112.316 63.0955 112.264 62.8735 112.265 62.5915C112.275 61.1488 112.27 59.7077 112.27 58.2651Z" fill="#03A679" fill-opacity="0.39"/>
<path d="M117.459 75.3643C119.055 74.8618 120.058 75.7018 121.152 76.7407C122.288 77.8196 122.725 78.9108 122.715 80.4799C122.706 82.0181 122.265 83.08 121.182 84.1743C120.078 85.2872 118.998 85.7311 117.435 85.7203C115.921 85.7095 114.865 85.2964 113.787 84.2175C112.674 83.1016 112.194 82.0165 112.208 80.4259C112.221 78.9062 112.503 77.7086 113.765 76.8239C113.78 76.8131 113.794 76.7977 113.805 76.7838C114.73 75.5693 115.863 74.8588 117.459 75.3658L117.459 75.3643Z" fill="#03A679" fill-opacity="0.39"/>
<path d="M105.031 85.5213C105.824 84.7384 106.623 83.9616 107.409 83.1709C107.595 82.9844 107.702 82.9844 107.925 83.1524C108.676 83.7134 108.961 84.4301 108.814 85.3487C108.782 85.5506 108.756 85.6631 108.522 85.6616C107.375 85.6539 106.228 85.6585 105.081 85.6585C105.065 85.6138 105.046 85.5676 105.029 85.5229L105.031 85.5213Z" fill="#03A679" fill-opacity="0.39"/>
<path d="M105.1 75.2748C106.213 75.2748 107.324 75.2732 108.437 75.2763C108.562 75.2763 108.708 75.2285 108.793 75.3842C108.944 75.6601 108.744 76.9316 108.506 77.1752C107.682 78.0229 107.685 78.0183 106.86 77.206C106.248 76.6033 105.624 76.013 105.006 75.4181C105.037 75.3703 105.068 75.3225 105.098 75.2748L105.1 75.2748Z" fill="#03A679" fill-opacity="0.39"/>
<path d="M112.272 92.9874C112.272 91.7159 112.278 90.603 112.267 89.4902C112.264 89.2328 112.33 89.1465 112.611 89.108C113.534 88.9816 114.249 89.2683 114.793 90.0266C114.909 90.1884 114.987 90.2855 114.815 90.4551C113.996 91.2596 113.189 92.0719 112.272 92.9874Z" fill="#03A679" fill-opacity="0.39"/>
<path d="M112.27 67.9258C113.186 68.8444 113.986 69.6443 114.782 70.4489C114.859 70.526 114.963 70.5938 114.923 70.7371C114.85 70.9991 113.802 71.8052 113.515 71.8129C112.684 71.8355 112.269 71.4369 112.269 70.6169L112.269 67.9258L112.27 67.9258Z" fill="#03A679" fill-opacity="0.39"/>
<path d="M122.654 92.9874C121.735 92.0719 120.923 91.2612 120.109 90.4489C120.027 90.3672 119.958 90.2932 120.018 90.1514C120.302 89.4764 121.75 88.8768 122.489 89.1203C122.677 89.182 122.643 89.3084 122.652 89.4347C122.658 89.5118 122.652 89.5889 122.652 89.6659C122.652 90.7202 122.652 91.7744 122.652 92.9874L122.654 92.9874Z" fill="#03A679" fill-opacity="0.39"/>
<path d="M122.654 68.0384C122.654 69.2345 122.654 70.3658 122.654 71.4986C122.654 71.6081 122.675 71.7283 122.546 71.7992C122.272 71.9487 120.992 71.7499 120.75 71.5156C120.184 70.9638 120.175 70.4146 120.723 69.8679C121.308 69.2838 121.894 68.7012 122.481 68.1186C122.504 68.0954 122.544 68.0893 122.655 68.0384L122.654 68.0384Z" fill="#03A679" fill-opacity="0.39"/>
<path d="M129.995 85.6586C128.716 85.6586 127.606 85.6494 126.498 85.6648C126.196 85.6694 126.143 85.563 126.102 85.2764C125.968 84.3701 126.288 83.6935 126.999 83.154C127.176 83.0199 127.282 82.9382 127.47 83.1309C128.269 83.9447 129.079 84.7462 129.993 85.6586L129.995 85.6586Z" fill="#03A679" fill-opacity="0.39"/>
<path d="M129.981 75.2749C129.067 76.1919 128.256 77.0057 127.446 77.818C127.364 77.8997 127.291 77.9691 127.15 77.9089C126.471 77.6207 125.873 76.175 126.119 75.4383C126.182 75.2502 126.307 75.2857 126.433 75.2764C126.51 75.2702 126.587 75.2764 126.664 75.2764C127.718 75.2764 128.773 75.2764 129.983 75.2764L129.981 75.2749Z" fill="#03A679" fill-opacity="0.39"/>
<path d="M190.001 16.545C189.541 17.3434 189.173 18.1892 188.784 19.022C188.648 19.3117 188.49 19.3962 188.18 19.3927C186.622 19.3746 185.064 19.3824 183.506 19.3875C183.323 19.3875 183.186 19.3479 183.052 19.2117C182.215 18.3625 181.372 17.5184 180.522 16.6821C180.361 16.5243 180.359 16.4347 180.522 16.276C181.38 15.4329 182.229 14.5793 183.076 13.7249C183.183 13.6172 183.292 13.5723 183.443 13.5732C185.088 13.5784 186.731 13.5792 188.375 13.5715C188.558 13.5706 188.64 13.6413 188.712 13.7948C189.074 14.5612 189.445 15.3234 189.815 16.0855C189.87 16.1993 189.94 16.3054 190.003 16.4157L190.003 16.545L190.001 16.545Z" fill="#F6F6F6"/>
<path d="M173.416 33.0017C172.606 32.5396 171.751 32.1671 170.909 31.7714C170.64 31.6455 170.566 31.4964 170.569 31.2127C170.584 29.6445 170.579 28.0754 170.571 26.5063C170.571 26.3062 170.628 26.1674 170.77 26.0278C171.611 25.1984 172.448 24.3638 173.276 23.5198C173.435 23.3577 173.524 23.3603 173.681 23.5206C174.517 24.3716 175.362 25.213 176.21 26.0519C176.333 26.1743 176.388 26.2968 176.388 26.4735C176.382 28.0961 176.38 29.7186 176.389 31.3412C176.39 31.5481 176.312 31.6369 176.136 31.724C175.272 32.1499 174.382 32.5241 173.544 33.0017L173.415 33.0017L173.416 33.0017Z" fill="#F6F6F6"/>
<path d="M166.542 21.3204C167.155 21.3204 167.767 21.3299 168.379 21.3152C168.596 21.3101 168.646 21.3825 168.644 21.5877C168.635 22.7912 168.638 23.9948 168.642 25.1984C168.642 25.3466 168.611 25.4596 168.501 25.5691C167.334 26.7278 166.171 27.89 165.012 29.0565C164.891 29.1789 164.789 29.2108 164.618 29.1522C163.736 28.8478 162.849 28.5564 161.962 28.2685C161.812 28.2202 161.738 28.1348 161.691 27.99C161.402 27.1029 161.111 26.2157 160.806 25.3337C160.746 25.1587 160.79 25.0596 160.909 24.9414C162.066 23.7896 163.223 22.6352 164.374 21.4756C164.49 21.3583 164.607 21.3144 164.769 21.317C165.36 21.3256 165.951 21.3204 166.543 21.3204L166.542 21.3204Z" fill="#F6F6F6"/>
<path d="M168.64 9.56587C168.64 10.1789 168.635 10.791 168.644 11.404C168.646 11.5799 168.605 11.6462 168.414 11.6454C167.179 11.6376 165.943 11.6393 164.707 11.6437C164.576 11.6437 164.488 11.5954 164.4 11.5066C163.232 10.334 162.063 9.16324 160.889 7.99675C160.772 7.88122 160.752 7.78121 160.804 7.62775C161.105 6.74404 161.398 5.85775 161.688 4.9706C161.735 4.82489 161.814 4.74126 161.963 4.69298C162.86 4.40071 163.756 4.10327 164.65 3.79893C164.794 3.74979 164.886 3.77479 164.991 3.88084C166.165 5.06199 167.343 6.23969 168.525 7.41394C168.631 7.51912 168.644 7.62947 168.643 7.76138C168.64 8.36316 168.642 8.96495 168.642 9.56673L168.64 9.56587Z" fill="#F6F6F6"/>
<path d="M178.321 23.3817C178.321 22.7799 178.327 22.1782 178.317 21.5764C178.314 21.3902 178.35 21.3143 178.561 21.316C179.786 21.3264 181.011 21.3238 182.236 21.3177C182.379 21.3177 182.476 21.3652 182.574 21.4626C183.734 22.6273 184.895 23.7912 186.062 24.95C186.186 25.0733 186.208 25.1776 186.151 25.3448C185.851 26.2173 185.564 27.0933 185.279 27.971C185.228 28.1261 185.151 28.221 184.988 28.2736C184.1 28.5607 183.214 28.8538 182.331 29.1556C182.176 29.209 182.079 29.1857 181.964 29.0702C180.798 27.896 179.628 26.726 178.452 25.5604C178.34 25.4483 178.319 25.3311 178.32 25.1862C178.324 24.5844 178.321 23.9826 178.321 23.3809L178.321 23.3817Z" fill="#F6F6F6"/>
<path d="M180.39 11.6401C179.777 11.6401 179.165 11.634 178.553 11.6435C178.37 11.647 178.315 11.5918 178.317 11.4082C178.325 10.183 178.323 8.95792 178.318 7.73281C178.318 7.59314 178.357 7.49226 178.457 7.39312C179.622 6.23352 180.786 5.07134 181.944 3.90485C182.064 3.78501 182.165 3.74535 182.337 3.80484C183.219 4.10918 184.106 4.40145 184.994 4.68855C185.157 4.74114 185.232 4.84029 185.282 4.99375C185.564 5.86107 185.845 6.7284 186.146 7.58969C186.215 7.78798 186.169 7.90093 186.032 8.03714C184.88 9.18036 183.733 10.3279 182.589 11.4797C182.474 11.5952 182.36 11.6461 182.195 11.6435C181.593 11.634 180.992 11.6401 180.39 11.6401Z" fill="#F6F6F6"/>
<path d="M161.058 19.385C160.251 19.385 159.445 19.379 158.638 19.3893C158.44 19.3919 158.332 19.3393 158.245 19.1522C157.858 18.3254 157.459 17.5047 157.056 16.6856C156.981 16.5356 156.981 16.4166 157.056 16.2666C157.46 15.4484 157.858 14.6268 158.246 13.8008C158.327 13.6284 158.425 13.5715 158.613 13.5724C160.247 13.5793 161.882 13.5784 163.517 13.5732C163.669 13.5732 163.777 13.6189 163.884 13.7267C164.74 14.5897 165.597 15.451 166.463 16.3037C166.61 16.4477 166.594 16.5261 166.457 16.6615C165.593 17.515 164.733 18.3746 163.88 19.2393C163.761 19.36 163.636 19.3885 163.478 19.3876C162.671 19.3824 161.865 19.385 161.058 19.385Z" fill="#F6F6F6"/>
<path d="M170.576 4.06187C170.576 3.24455 170.582 2.42723 170.572 1.60991C170.569 1.41937 170.634 1.3254 170.804 1.24608C171.629 0.858113 172.451 0.46066 173.269 0.0563107C173.419 -0.0178346 173.537 -0.0195598 173.688 0.0554476C174.506 0.459797 175.328 0.85725 176.154 1.24522C176.322 1.32454 176.389 1.41506 176.389 1.60732C176.381 3.24196 176.382 4.8766 176.387 6.51124C176.387 6.66298 176.344 6.77248 176.236 6.87938C175.373 7.7355 174.513 8.59334 173.659 9.45808C173.522 9.59689 173.442 9.60378 173.3 9.46067C172.448 8.59507 171.587 7.73636 170.722 6.88283C170.602 6.76385 170.572 6.6397 170.573 6.48193C170.579 5.67496 170.576 4.86884 170.576 4.06187Z" fill="#F6F6F6"/>
<path d="M173.479 13.6267C174.371 13.3456 174.932 13.8155 175.544 14.3966C176.18 15.0001 176.424 15.6105 176.419 16.4881C176.414 17.3486 176.167 17.9426 175.561 18.5547C174.944 19.1772 174.339 19.4255 173.465 19.4194C172.618 19.4134 172.028 19.1824 171.424 18.5789C170.802 17.9547 170.534 17.3477 170.541 16.458C170.548 15.6079 170.706 14.938 171.412 14.4431C171.421 14.4371 171.429 14.4285 171.435 14.4207C171.952 13.7413 172.586 13.3439 173.479 13.6275L173.479 13.6267Z" fill="#F6F6F6"/>
<path d="M166.526 19.3081C166.97 18.8702 167.417 18.4356 167.857 17.9934C167.961 17.889 168.02 17.889 168.145 17.983C168.565 18.2968 168.725 18.6977 168.643 19.2116C168.625 19.3245 168.61 19.3875 168.479 19.3866C167.838 19.3823 167.196 19.3849 166.555 19.3849C166.545 19.3599 166.535 19.334 166.525 19.309L166.526 19.3081Z" fill="#F6F6F6"/>
<path d="M166.565 13.5766C167.188 13.5766 167.809 13.5757 168.432 13.5774C168.501 13.5774 168.583 13.5507 168.631 13.6378C168.715 13.7921 168.603 14.5034 168.47 14.6396C168.009 15.1138 168.011 15.1112 167.55 14.6569C167.207 14.3198 166.858 13.9896 166.512 13.6568C166.53 13.63 166.547 13.6033 166.564 13.5766L166.565 13.5766Z" fill="#F6F6F6"/>
<path d="M170.577 23.4845C170.577 22.7732 170.58 22.1507 170.574 21.5283C170.572 21.3843 170.609 21.336 170.766 21.3145C171.283 21.2438 171.683 21.4041 171.987 21.8283C172.052 21.9188 172.096 21.9731 171.999 22.068C171.541 22.518 171.09 22.9724 170.577 23.4845Z" fill="#F6F6F6"/>
<path d="M170.576 9.46577C171.088 9.97961 171.535 10.4271 171.981 10.8771C172.024 10.9202 172.082 10.9582 172.06 11.0383C172.019 11.1849 171.433 11.6358 171.272 11.6401C170.807 11.6528 170.575 11.4298 170.575 10.9711L170.575 9.46577L170.576 9.46577Z" fill="#F6F6F6"/>
<path d="M176.384 23.4845C175.87 22.9724 175.416 22.5189 174.961 22.0645C174.915 22.0188 174.876 21.9775 174.91 21.8981C175.069 21.5205 175.879 21.1851 176.292 21.3214C176.397 21.3558 176.378 21.4265 176.383 21.4972C176.387 21.5403 176.383 21.5835 176.383 21.6266C176.383 22.2163 176.383 22.806 176.383 23.4845L176.384 23.4845Z" fill="#F6F6F6"/>
<path d="M176.384 9.52876C176.384 10.1978 176.384 10.8306 176.384 11.4643C176.384 11.5255 176.396 11.5928 176.324 11.6324C176.17 11.716 175.455 11.6048 175.319 11.4738C175.003 11.1651 174.997 10.8579 175.304 10.5521C175.631 10.2254 175.959 9.89949 176.288 9.5736C176.3 9.56066 176.323 9.55721 176.385 9.52876L176.384 9.52876Z" fill="#F6F6F6"/>
<path d="M180.491 19.3849C179.775 19.3849 179.154 19.3797 178.534 19.3883C178.365 19.3909 178.336 19.3314 178.313 19.1711C178.238 18.6641 178.417 18.2857 178.815 17.9839C178.914 17.9089 178.973 17.8632 179.078 17.971C179.525 18.4262 179.979 18.8745 180.49 19.3849L180.491 19.3849Z" fill="#F6F6F6"/>
<path d="M180.483 13.5766C179.972 14.0896 179.518 14.5448 179.065 14.9992C179.019 15.0449 178.978 15.0837 178.899 15.0501C178.52 14.8888 178.185 14.0801 178.322 13.668C178.358 13.5628 178.428 13.5827 178.498 13.5775C178.541 13.574 178.584 13.5775 178.628 13.5775C179.217 13.5775 179.807 13.5775 180.484 13.5775L180.483 13.5766Z" fill="#F6F6F6"/>
</svg>
