<svg width="239" height="268" viewBox="0 0 239 268" fill="none" xmlns="http://www.w3.org/2000/svg">
<path d="M23.8867 23.9012C25.6667 23.4233 27.3821 22.7467 29.1109 22.12C29.7119 21.9018 30.0545 22.0054 30.4885 22.4492C32.6659 24.6779 34.8799 26.8699 37.0903 29.0656C37.35 29.3253 37.4877 29.5752 37.4841 29.9568C37.467 32.3415 37.4646 34.7262 37.4853 37.1121C37.489 37.562 37.3646 37.6912 36.9111 37.6864C34.5044 37.6644 32.0978 37.6717 29.6912 37.6815C29.3876 37.6827 29.1706 37.5925 28.9572 37.3767C26.6396 35.0444 24.3171 32.7195 21.9812 30.4055C21.7215 30.1482 21.7056 29.9325 21.8202 29.613C22.392 28.0171 22.9455 26.4152 23.5003 24.8144C23.5832 24.5754 23.6344 24.3267 23.7014 24.0817L23.8843 23.8988L23.8867 23.9012Z" fill="#147CA6" fill-opacity="0.49"/>
<path d="M70.6112 24.0829C71.1025 25.8812 71.7852 27.6173 72.4168 29.368C72.6179 29.9252 72.5119 30.2409 72.1071 30.6384C69.8687 32.8353 67.6559 35.0603 65.448 37.2902C65.1664 37.5742 64.8884 37.6888 64.491 37.6864C62.1282 37.6693 59.7643 37.6657 57.4003 37.6888C56.9468 37.6937 56.8236 37.5633 56.8285 37.1146C56.8505 34.7299 56.8444 32.344 56.8322 29.9593C56.8309 29.6118 56.926 29.3607 57.1772 29.112C59.4802 26.8261 61.7771 24.534 64.0582 22.2261C64.3495 21.9323 64.5861 21.9177 64.9579 22.0433C66.7818 22.6626 68.5691 23.3917 70.4295 23.9013L70.6124 24.0842L70.6112 24.0829Z" fill="#147CA6" fill-opacity="0.49"/>
<path d="M63.813 50.3217C62.9462 49.4549 62.094 48.5759 61.2076 47.731C60.8931 47.4311 60.926 47.2592 61.2186 46.9715C62.9328 45.2817 64.6311 43.5761 66.3269 41.868C66.5366 41.6583 66.7402 41.5425 67.0511 41.5437C70.3392 41.5547 73.6273 41.5559 76.9154 41.5449C77.2604 41.5437 77.4494 41.6425 77.6079 41.9668C78.4247 43.6443 79.2672 45.3109 80.1145 46.9727C80.2583 47.2531 80.2425 47.4786 80.1047 47.7505C79.2586 49.4134 78.415 51.0788 77.5993 52.7576C77.4372 53.0904 77.2348 53.1685 76.8995 53.1673C73.6334 53.1587 70.366 53.1563 67.0987 53.1685C66.7683 53.1697 66.5403 53.0661 66.3147 52.8332C65.4918 51.9859 64.6481 51.1569 63.8118 50.3205L63.813 50.3217Z" fill="#147CA6" fill-opacity="0.49"/>
<path d="M44.2236 63.9764C45.0904 63.1096 45.9634 62.2513 46.818 61.3723C47.0631 61.1199 47.2155 61.0846 47.4837 61.3552C49.2198 63.1133 50.9705 64.8591 52.7236 66.6001C52.909 66.7854 52.965 66.978 52.9638 67.228C52.9577 70.538 52.9553 73.8468 52.9663 77.1568C52.9675 77.4848 52.8553 77.6555 52.5639 77.7981C50.8888 78.6223 49.221 79.4611 47.5568 80.3059C47.2837 80.4449 47.0545 80.4523 46.7753 80.3096C45.0929 79.4538 43.4056 78.6077 41.7109 77.7737C41.4378 77.6396 41.3439 77.475 41.3452 77.1763C41.3549 73.8456 41.3549 70.5148 41.3439 67.1828C41.3427 66.8841 41.4805 66.7098 41.6682 66.5245C42.5229 65.6772 43.3714 64.8238 44.2224 63.9728L44.2236 63.9764Z" fill="#147CA6" fill-opacity="0.49"/>
<path d="M50.0717 30.7506C49.2207 31.6015 48.3612 32.444 47.5237 33.3084C47.2652 33.5766 47.1067 33.6327 46.8105 33.3315C45.0926 31.5845 43.3566 29.8557 41.6156 28.1318C41.4144 27.9306 41.3437 27.7258 41.3437 27.4503C41.3498 24.1622 41.3535 20.8741 41.3425 17.586C41.3413 17.2361 41.4571 17.0569 41.7741 16.9008C43.4321 16.0913 45.0768 15.2586 46.7215 14.421C47.0128 14.2735 47.2554 14.2479 47.5602 14.404C49.222 15.2537 50.8898 16.0925 52.5649 16.9142C52.86 17.0581 52.9648 17.2288 52.9636 17.5543C52.9526 20.8643 52.9526 24.1731 52.966 27.4832C52.9672 27.8014 52.8307 27.9965 52.6247 28.2001C51.7676 29.0449 50.9203 29.8996 50.0693 30.7506L50.0717 30.7506Z" fill="#147CA6" fill-opacity="0.49"/>
<path d="M30.542 44.4285C31.4088 45.2953 32.2659 46.1694 33.1449 47.0216C33.4083 47.2752 33.407 47.43 33.1449 47.6873C31.4015 49.4088 29.6715 51.1436 27.9464 52.8834C27.7489 53.0809 27.5514 53.1687 27.2698 53.1674C23.9817 53.1589 20.6936 53.1577 17.4055 53.1687C17.0666 53.1687 16.8678 53.0821 16.7081 52.7541C15.8913 51.0766 15.0513 49.41 14.2015 47.7482C14.0442 47.4422 14.0796 47.1972 14.2259 46.9095C15.0525 45.2831 15.8815 43.6592 16.674 42.0157C16.8569 41.6378 17.0824 41.5439 17.4689 41.5451C20.7143 41.5573 23.9585 41.5561 27.2051 41.5451C27.5307 41.5439 27.7647 41.6341 27.9939 41.8706C28.8315 42.735 29.691 43.5775 30.542 44.4285Z" fill="#147CA6" fill-opacity="0.49"/>
<path d="M68.8312 60.8139C69.9723 61.955 71.1037 63.1035 72.2595 64.23C72.5424 64.5055 72.6216 64.7335 72.4802 65.1212C71.8572 66.8366 71.261 68.5617 70.6734 70.2905C70.5661 70.6075 70.3978 70.7757 70.0809 70.883C68.3521 71.4682 66.627 72.0668 64.9104 72.6861C64.5519 72.8154 64.3337 72.7581 64.0691 72.4911C61.7674 70.1698 59.4546 67.8595 57.1357 65.5552C56.9199 65.3394 56.8322 65.1224 56.8334 64.8189C56.8431 62.3878 56.8492 59.958 56.8297 57.527C56.8261 57.1162 56.959 57.0272 57.3442 57.0296C59.774 57.0454 62.205 57.0454 64.6348 57.0296C64.9738 57.0272 65.1908 57.1637 65.4127 57.388C66.5465 58.5365 67.6901 59.6728 68.8312 60.8139Z" fill="#147CA6" fill-opacity="0.49"/>
<path d="M33.7034 69.0227C32.5476 70.1784 31.3833 71.3257 30.2421 72.4961C29.9764 72.7692 29.752 72.8106 29.3997 72.6826C27.6831 72.0633 25.9592 71.4634 24.2304 70.8782C23.9135 70.7709 23.7452 70.6076 23.6367 70.2869C23.0515 68.5582 22.4517 66.8343 21.8323 65.1177C21.7068 64.7678 21.7397 64.5447 22.0128 64.274C24.3353 61.9734 26.6456 59.6607 28.9498 57.3418C29.1644 57.1273 29.3802 57.0334 29.6838 57.0346C32.1148 57.0443 34.5446 57.048 36.9744 57.0322C37.3645 57.0297 37.4877 57.1333 37.4852 57.5357C37.4669 59.9655 37.4694 62.3965 37.4852 64.8263C37.4877 65.1652 37.3535 65.3822 37.1292 65.6041C35.9808 66.7379 34.8445 67.8815 33.7034 69.0227Z" fill="#147CA6" fill-opacity="0.49"/>
<path d="M43.1241 51.3923C41.4648 50.5279 41.3355 49.0697 41.2917 47.3824C41.2465 45.6305 41.7647 44.4223 43.0131 43.1885C44.2372 41.9791 45.4258 41.4878 47.1485 41.4792C48.9017 41.4719 50.1074 41.9754 51.3352 43.2202C52.5238 44.4259 53.0322 45.5878 53.0322 47.2946C53.0298 49.0576 52.5507 50.295 51.2815 51.5422C50.0697 52.7346 48.8993 53.4587 47.201 53.1601C47.1802 53.1564 47.1571 53.1576 47.1376 53.1601C45.4454 53.3893 43.9872 53.0552 43.1253 51.391L43.1241 51.3923Z" fill="#147CA6" fill-opacity="0.49"/>
<path d="M60.9896 53.1893C59.7424 53.1807 58.4964 53.1637 57.2492 53.1673C56.9542 53.1673 56.8701 53.0832 56.8262 52.7735C56.6762 51.736 57.0176 50.9436 57.86 50.3328C58.0453 50.1987 58.1551 50.1304 58.3392 50.3169C59.2401 51.2301 60.1508 52.1335 61.0579 53.0405C61.036 53.0893 61.014 53.1405 60.9921 53.1893L60.9896 53.1893Z" fill="#147CA6" fill-opacity="0.49"/>
<path d="M52.8297 61.2395C51.9494 60.3593 51.0692 59.4815 50.1914 58.5988C50.0926 58.5001 49.939 58.422 49.9951 58.2318C50.0938 57.8941 51.2581 57.0468 51.6385 57.0419C52.9613 57.0236 52.9552 57.0249 52.965 58.3196C52.9723 59.2803 52.9991 60.241 53.0174 61.2005C52.9552 61.2139 52.893 61.2273 52.8309 61.2407L52.8297 61.2395Z" fill="#147CA6" fill-opacity="0.49"/>
<path d="M61.1676 41.556C60.1618 42.5619 59.2767 43.4372 58.405 44.326C58.2039 44.532 58.0832 44.5479 57.8308 44.3565C57.0005 43.7262 56.6616 42.9337 56.8311 41.9035C56.8676 41.6841 56.8823 41.5451 57.1529 41.5475C58.4367 41.5585 59.7181 41.5548 61.1676 41.556Z" fill="#147CA6" fill-opacity="0.49"/>
<path d="M41.345 61.3809C41.3474 59.9301 41.3474 58.6646 41.3535 57.3979C41.3535 57.276 41.3254 57.1407 41.4705 57.059C41.7351 56.909 43.2017 57.1005 43.4346 57.3211C44.11 57.9608 44.1234 58.6049 43.4748 59.2535L41.3462 61.3822L41.345 61.3809Z" fill="#147CA6" fill-opacity="0.49"/>
<path d="M52.9551 33.3437C52.9576 34.7945 52.9588 36.0783 52.96 37.3645C52.96 37.4937 52.9564 37.6071 52.7966 37.6717C52.0383 37.9814 50.4181 37.3096 50.0267 36.533C49.9267 36.3355 50.0535 36.2624 50.1462 36.1551C50.2023 36.0893 50.2681 36.0332 50.3291 35.9722C51.163 35.1383 51.9969 34.3044 52.9564 33.3449L52.9551 33.3437Z" fill="#147CA6" fill-opacity="0.49"/>
<path d="M33.2204 53.0784C34.1665 52.1323 35.0613 51.2374 35.9574 50.3413C36.044 50.2548 36.122 50.1426 36.2805 50.1889C36.6158 50.2877 37.4704 51.4569 37.4765 51.8336C37.4879 52.7179 37.0608 53.1596 36.1952 53.1588C35.2698 53.1576 34.3457 53.1552 33.4203 53.1515C33.3838 53.1515 33.3472 53.1247 33.2192 53.0771L33.2204 53.0784Z" fill="#147CA6" fill-opacity="0.49"/>
<path d="M41.3512 33.3339C42.3631 34.3458 43.2336 35.2309 44.1224 36.0953C44.365 36.3306 44.3223 36.4562 44.1285 36.7159C43.5177 37.5388 42.7289 37.8204 41.7402 37.6851C41.4939 37.651 41.3451 37.6315 41.3488 37.3303C41.361 36.0551 41.3537 34.7798 41.3525 33.3351L41.3512 33.3339Z" fill="#147CA6" fill-opacity="0.49"/>
<path d="M33.1488 41.5584C34.5972 41.556 35.8822 41.5535 37.1659 41.5523C37.2952 41.5523 37.4073 41.5548 37.472 41.7145C37.7804 42.4789 37.1099 44.0955 36.3333 44.4844C36.1345 44.5832 36.0638 44.4564 35.9565 44.3637C35.8907 44.3076 35.8346 44.2418 35.7737 44.1809C34.9397 43.3469 34.1058 42.513 33.1488 41.556L33.1488 41.5584Z" fill="#147CA6" fill-opacity="0.49"/>
<path d="M200.985 230.051C201.929 229.798 202.839 229.439 203.755 229.106C204.074 228.991 204.256 229.046 204.486 229.281C205.641 230.463 206.815 231.625 207.987 232.79C208.125 232.928 208.198 233.06 208.196 233.262C208.187 234.527 208.186 235.792 208.197 237.057C208.199 237.296 208.133 237.364 207.892 237.362C206.616 237.35 205.339 237.354 204.063 237.359C203.902 237.36 203.787 237.312 203.674 237.197C202.445 235.96 201.213 234.727 199.974 233.5C199.837 233.364 199.828 233.249 199.889 233.08C200.192 232.234 200.486 231.384 200.78 230.535C200.824 230.409 200.851 230.277 200.887 230.147L200.984 230.05L200.985 230.051Z" fill="#F6F6F6"/>
<path d="M225.764 230.147C226.025 231.101 226.387 232.022 226.722 232.95C226.828 233.246 226.772 233.413 226.557 233.624C225.37 234.789 224.197 235.969 223.026 237.151C222.877 237.302 222.729 237.363 222.518 237.362C221.265 237.353 220.012 237.351 218.758 237.363C218.518 237.365 218.452 237.296 218.455 237.058C218.466 235.794 218.463 234.528 218.457 233.264C218.456 233.079 218.507 232.946 218.64 232.814C219.861 231.602 221.079 230.387 222.289 229.163C222.443 229.007 222.569 228.999 222.766 229.066C223.733 229.394 224.681 229.781 225.668 230.051L225.765 230.148L225.764 230.147Z" fill="#F6F6F6"/>
<path d="M222.159 244.062C221.699 243.603 221.247 243.136 220.777 242.688C220.61 242.529 220.628 242.438 220.783 242.286C221.692 241.389 222.593 240.485 223.492 239.579C223.603 239.468 223.711 239.407 223.876 239.407C225.62 239.413 227.363 239.414 229.107 239.408C229.29 239.407 229.39 239.46 229.474 239.632C229.908 240.521 230.354 241.405 230.804 242.286C230.88 242.435 230.872 242.555 230.799 242.699C230.35 243.581 229.902 244.464 229.47 245.354C229.384 245.531 229.277 245.572 229.099 245.571C227.367 245.567 225.634 245.565 223.901 245.572C223.726 245.573 223.605 245.518 223.485 245.394C223.049 244.945 222.602 244.505 222.158 244.062L222.159 244.062Z" fill="#F6F6F6"/>
<path d="M211.77 251.304C212.23 250.844 212.693 250.389 213.146 249.923C213.276 249.789 213.357 249.77 213.499 249.914C214.42 250.846 215.348 251.772 216.278 252.695C216.376 252.793 216.406 252.895 216.405 253.028C216.402 254.783 216.401 256.538 216.407 258.293C216.407 258.467 216.348 258.558 216.193 258.633C215.305 259.071 214.42 259.515 213.538 259.963C213.393 260.037 213.271 260.041 213.123 259.965C212.231 259.512 211.336 259.063 210.438 258.621C210.293 258.549 210.243 258.462 210.244 258.304C210.249 256.537 210.249 254.771 210.243 253.004C210.242 252.846 210.315 252.753 210.415 252.655C210.868 252.206 211.318 251.753 211.769 251.302L211.77 251.304Z" fill="#F6F6F6"/>
<path d="M214.871 233.683C214.42 234.135 213.964 234.581 213.52 235.04C213.383 235.182 213.299 235.212 213.142 235.052C212.231 234.126 211.31 233.209 210.387 232.295C210.28 232.188 210.243 232.079 210.243 231.933C210.246 230.189 210.248 228.446 210.242 226.702C210.242 226.516 210.303 226.421 210.471 226.339C211.35 225.909 212.223 225.468 213.095 225.024C213.249 224.945 213.378 224.932 213.54 225.014C214.421 225.465 215.305 225.91 216.194 226.346C216.35 226.422 216.406 226.513 216.405 226.685C216.399 228.441 216.399 230.195 216.406 231.951C216.407 232.119 216.335 232.223 216.225 232.331C215.771 232.779 215.321 233.232 214.87 233.683L214.871 233.683Z" fill="#F6F6F6"/>
<path d="M204.515 240.937C204.974 241.397 205.429 241.86 205.895 242.312C206.035 242.447 206.034 242.529 205.895 242.665C204.97 243.578 204.053 244.498 203.138 245.421C203.033 245.526 202.929 245.572 202.779 245.571C201.035 245.567 199.292 245.566 197.548 245.572C197.368 245.572 197.263 245.526 197.178 245.352C196.745 244.463 196.3 243.579 195.849 242.698C195.765 242.535 195.784 242.405 195.862 242.253C196.3 241.39 196.74 240.529 197.16 239.657C197.257 239.457 197.377 239.407 197.582 239.408C199.303 239.414 201.023 239.414 202.745 239.408C202.918 239.407 203.042 239.455 203.163 239.581C203.607 240.039 204.063 240.486 204.515 240.937Z" fill="#F6F6F6"/>
<path d="M224.82 249.626C225.425 250.232 226.025 250.841 226.638 251.438C226.788 251.584 226.83 251.705 226.755 251.911C226.425 252.82 226.109 253.735 225.797 254.652C225.74 254.82 225.651 254.909 225.483 254.966C224.566 255.277 223.651 255.594 222.741 255.923C222.551 255.991 222.435 255.961 222.295 255.819C221.074 254.588 219.847 253.363 218.618 252.141C218.503 252.026 218.457 251.911 218.457 251.75C218.462 250.461 218.466 249.173 218.455 247.883C218.453 247.666 218.524 247.618 218.728 247.62C220.017 247.628 221.306 247.628 222.595 247.62C222.774 247.618 222.889 247.691 223.007 247.81C223.608 248.419 224.215 249.021 224.82 249.626Z" fill="#F6F6F6"/>
<path d="M206.191 253.98C205.578 254.593 204.961 255.201 204.355 255.822C204.215 255.967 204.096 255.989 203.909 255.921C202.998 255.592 202.084 255.274 201.167 254.964C200.999 254.907 200.91 254.82 200.852 254.65C200.542 253.733 200.224 252.819 199.896 251.909C199.829 251.723 199.846 251.605 199.991 251.461C201.223 250.241 202.448 249.015 203.67 247.785C203.784 247.671 203.898 247.622 204.059 247.622C205.349 247.627 206.637 247.629 207.926 247.621C208.133 247.62 208.198 247.675 208.197 247.888C208.187 249.177 208.188 250.466 208.197 251.754C208.198 251.934 208.127 252.049 208.008 252.167C207.399 252.768 206.796 253.375 206.191 253.98Z" fill="#F6F6F6"/>
<path d="M211.187 244.63C210.307 244.172 210.239 243.398 210.215 242.503C210.191 241.574 210.466 240.934 211.128 240.279C211.777 239.638 212.408 239.377 213.321 239.373C214.251 239.369 214.89 239.636 215.541 240.296C216.172 240.936 216.441 241.552 216.441 242.457C216.44 243.392 216.186 244.048 215.513 244.71C214.87 245.342 214.25 245.726 213.349 245.567C213.338 245.566 213.326 245.566 213.315 245.567C212.418 245.689 211.645 245.512 211.188 244.629L211.187 244.63Z" fill="#F6F6F6"/>
<path d="M220.661 245.583C220 245.578 219.339 245.569 218.678 245.571C218.521 245.571 218.477 245.527 218.454 245.363C218.374 244.812 218.555 244.392 219.002 244.068C219.1 243.997 219.158 243.961 219.256 244.06C219.734 244.544 220.217 245.023 220.698 245.504C220.686 245.53 220.674 245.557 220.663 245.583L220.661 245.583Z" fill="#F6F6F6"/>
<path d="M216.334 249.852C215.867 249.385 215.4 248.92 214.935 248.452C214.883 248.399 214.801 248.358 214.831 248.257C214.883 248.078 215.501 247.629 215.702 247.626C216.404 247.616 216.401 247.617 216.406 248.304C216.41 248.813 216.424 249.323 216.434 249.831C216.401 249.839 216.368 249.846 216.335 249.853L216.334 249.852Z" fill="#F6F6F6"/>
<path d="M220.756 239.414C220.222 239.947 219.753 240.411 219.291 240.883C219.184 240.992 219.12 241 218.986 240.899C218.546 240.565 218.366 240.144 218.456 239.598C218.475 239.482 218.483 239.408 218.627 239.409C219.308 239.415 219.987 239.413 220.756 239.414Z" fill="#F6F6F6"/>
<path d="M210.244 249.927C210.245 249.158 210.245 248.487 210.248 247.815C210.248 247.75 210.233 247.678 210.31 247.635C210.451 247.556 211.228 247.657 211.352 247.774C211.71 248.113 211.717 248.455 211.373 248.799L210.244 249.928L210.244 249.927Z" fill="#F6F6F6"/>
<path d="M216.401 235.059C216.402 235.828 216.403 236.509 216.403 237.191C216.403 237.259 216.401 237.319 216.317 237.354C215.915 237.518 215.055 237.162 214.848 236.75C214.795 236.645 214.862 236.606 214.911 236.549C214.941 236.515 214.976 236.485 215.008 236.452C215.45 236.01 215.893 235.568 216.401 235.059L216.401 235.059Z" fill="#F6F6F6"/>
<path d="M205.935 245.524C206.437 245.022 206.911 244.548 207.387 244.073C207.432 244.027 207.474 243.967 207.558 243.992C207.736 244.044 208.189 244.664 208.192 244.864C208.198 245.333 207.972 245.567 207.513 245.567C207.022 245.566 206.532 245.565 206.041 245.563C206.022 245.563 206.002 245.549 205.934 245.524L205.935 245.524Z" fill="#F6F6F6"/>
<path d="M210.247 235.053C210.784 235.59 211.245 236.059 211.717 236.518C211.845 236.643 211.823 236.709 211.72 236.847C211.396 237.283 210.978 237.433 210.453 237.361C210.323 237.343 210.244 237.332 210.246 237.173C210.252 236.496 210.248 235.82 210.248 235.054L210.247 235.053Z" fill="#F6F6F6"/>
<path d="M205.897 239.415C206.665 239.414 207.347 239.412 208.027 239.412C208.096 239.412 208.155 239.413 208.19 239.498C208.353 239.903 207.998 240.76 207.586 240.967C207.48 241.019 207.443 240.952 207.386 240.903C207.351 240.873 207.321 240.838 207.289 240.806C206.847 240.363 206.405 239.921 205.897 239.414L205.897 239.415Z" fill="#F6F6F6"/>
<path d="M161.412 111.235C163.003 110.808 164.537 110.203 166.082 109.643C166.619 109.448 166.926 109.541 167.314 109.937C169.26 111.93 171.239 113.889 173.215 115.852C173.447 116.084 173.571 116.308 173.567 116.649C173.552 118.78 173.55 120.912 173.568 123.045C173.572 123.447 173.461 123.563 173.055 123.558C170.904 123.539 168.752 123.545 166.601 123.554C166.33 123.555 166.136 123.474 165.945 123.282C163.873 121.197 161.797 119.118 159.709 117.05C159.477 116.82 159.462 116.627 159.565 116.341C160.076 114.915 160.571 113.483 161.067 112.052C161.141 111.838 161.187 111.616 161.246 111.397L161.41 111.233L161.412 111.235Z" fill="#03A679" fill-opacity="0.39"/>
<path d="M203.181 111.398C203.62 113.005 204.231 114.557 204.795 116.122C204.975 116.62 204.88 116.903 204.518 117.258C202.517 119.222 200.539 121.211 198.565 123.204C198.314 123.458 198.065 123.561 197.71 123.558C195.598 123.543 193.484 123.54 191.371 123.561C190.966 123.565 190.856 123.448 190.86 123.047C190.88 120.916 190.874 118.783 190.863 116.651C190.862 116.34 190.947 116.116 191.172 115.893C193.231 113.85 195.284 111.801 197.323 109.738C197.583 109.475 197.795 109.462 198.127 109.574C199.758 110.128 201.355 110.78 203.019 111.235L203.182 111.399L203.181 111.398Z" fill="#03A679" fill-opacity="0.39"/>
<path d="M197.104 134.854C196.329 134.079 195.567 133.293 194.775 132.538C194.494 132.27 194.523 132.116 194.785 131.859C196.317 130.348 197.835 128.824 199.351 127.297C199.539 127.109 199.721 127.006 199.998 127.007C202.938 127.017 205.877 127.018 208.816 127.008C209.125 127.007 209.294 127.095 209.436 127.385C210.166 128.885 210.919 130.374 211.676 131.86C211.805 132.111 211.791 132.312 211.668 132.555C210.911 134.042 210.157 135.53 209.428 137.031C209.283 137.329 209.102 137.399 208.802 137.397C205.883 137.39 202.962 137.388 200.041 137.399C199.746 137.4 199.542 137.307 199.34 137.099C198.604 136.341 197.85 135.6 197.103 134.853L197.104 134.854Z" fill="#03A679" fill-opacity="0.39"/>
<path d="M179.592 147.06C180.367 146.285 181.147 145.518 181.911 144.732C182.13 144.507 182.267 144.475 182.506 144.717C184.058 146.289 185.623 147.849 187.191 149.406C187.356 149.571 187.406 149.743 187.405 149.967C187.4 152.926 187.398 155.884 187.407 158.843C187.409 159.136 187.308 159.288 187.048 159.416C185.55 160.153 184.059 160.903 182.572 161.658C182.328 161.782 182.123 161.789 181.873 161.661C180.369 160.896 178.861 160.14 177.346 159.394C177.102 159.274 177.018 159.127 177.019 158.86C177.028 155.883 177.028 152.905 177.018 149.927C177.017 149.66 177.14 149.504 177.308 149.338C178.072 148.581 178.83 147.818 179.591 147.057L179.592 147.06Z" fill="#03A679" fill-opacity="0.39"/>
<path d="M184.82 117.358C184.059 118.119 183.291 118.872 182.542 119.645C182.311 119.885 182.169 119.935 181.905 119.666C180.369 118.104 178.817 116.558 177.261 115.017C177.081 114.837 177.018 114.654 177.018 114.408C177.023 111.469 177.026 108.529 177.017 105.59C177.016 105.277 177.119 105.117 177.402 104.978C178.885 104.254 180.355 103.509 181.825 102.761C182.086 102.629 182.302 102.606 182.575 102.745C184.06 103.505 185.551 104.255 187.049 104.989C187.313 105.118 187.406 105.271 187.405 105.562C187.395 108.521 187.395 111.479 187.407 114.437C187.408 114.722 187.286 114.896 187.102 115.078C186.336 115.834 185.579 116.598 184.818 117.358L184.82 117.358Z" fill="#03A679" fill-opacity="0.39"/>
<path d="M167.361 129.586C168.136 130.36 168.903 131.142 169.688 131.904C169.924 132.13 169.923 132.269 169.688 132.499C168.13 134.038 166.583 135.588 165.041 137.144C164.865 137.32 164.688 137.399 164.436 137.398C161.497 137.39 158.558 137.389 155.618 137.399C155.315 137.399 155.138 137.321 154.995 137.028C154.265 135.529 153.514 134.039 152.754 132.553C152.613 132.28 152.645 132.061 152.776 131.803C153.515 130.35 154.256 128.898 154.964 127.429C155.128 127.091 155.329 127.007 155.675 127.008C158.576 127.019 161.476 127.018 164.379 127.008C164.67 127.007 164.879 127.088 165.084 127.299C165.832 128.072 166.601 128.825 167.361 129.586Z" fill="#03A679" fill-opacity="0.39"/>
<path d="M201.59 144.233C202.61 145.253 203.621 146.28 204.655 147.287C204.907 147.533 204.978 147.737 204.852 148.083C204.295 149.617 203.762 151.159 203.237 152.704C203.141 152.988 202.99 153.138 202.707 153.234C201.162 153.757 199.619 154.292 198.085 154.846C197.764 154.962 197.569 154.91 197.333 154.672C195.275 152.597 193.208 150.531 191.135 148.471C190.942 148.279 190.863 148.085 190.865 147.813C190.873 145.64 190.879 143.468 190.861 141.295C190.858 140.927 190.977 140.848 191.321 140.85C193.493 140.864 195.666 140.864 197.839 140.85C198.142 140.848 198.336 140.97 198.534 141.17C199.547 142.197 200.57 143.213 201.59 144.233Z" fill="#03A679" fill-opacity="0.39"/>
<path d="M170.188 151.571C169.154 152.604 168.114 153.63 167.093 154.676C166.856 154.92 166.655 154.957 166.34 154.843C164.806 154.289 163.265 153.753 161.719 153.23C161.436 153.134 161.286 152.988 161.189 152.701C160.665 151.156 160.129 149.615 159.576 148.08C159.463 147.768 159.493 147.568 159.737 147.326C161.813 145.27 163.878 143.202 165.938 141.129C166.13 140.937 166.323 140.853 166.594 140.855C168.768 140.863 170.94 140.867 173.112 140.852C173.46 140.85 173.571 140.943 173.568 141.302C173.552 143.475 173.554 145.648 173.568 147.82C173.571 148.123 173.451 148.317 173.25 148.515C172.223 149.529 171.208 150.551 170.188 151.571Z" fill="#03A679" fill-opacity="0.39"/>
<path d="M178.609 135.811C177.126 135.038 177.01 133.734 176.971 132.226C176.931 130.66 177.394 129.58 178.51 128.477C179.604 127.396 180.667 126.957 182.207 126.949C183.774 126.942 184.852 127.393 185.949 128.505C187.012 129.583 187.466 130.622 187.466 132.148C187.464 133.724 187.036 134.83 185.901 135.945C184.818 137.011 183.772 137.658 182.253 137.391C182.235 137.388 182.214 137.389 182.197 137.391C180.684 137.596 179.381 137.297 178.61 135.81L178.609 135.811Z" fill="#03A679" fill-opacity="0.39"/>
<path d="M194.58 137.417C193.465 137.409 192.351 137.394 191.236 137.397C190.972 137.397 190.897 137.322 190.858 137.045C190.724 136.118 191.029 135.41 191.782 134.864C191.948 134.744 192.046 134.683 192.21 134.849C193.016 135.666 193.83 136.473 194.641 137.284C194.621 137.328 194.601 137.374 194.582 137.417L194.58 137.417Z" fill="#03A679" fill-opacity="0.39"/>
<path d="M187.285 144.613C186.498 143.827 185.712 143.042 184.927 142.253C184.839 142.165 184.701 142.095 184.751 141.925C184.84 141.623 185.881 140.865 186.221 140.861C187.403 140.845 187.398 140.846 187.406 142.003C187.413 142.862 187.437 143.721 187.453 144.579C187.398 144.591 187.342 144.603 187.286 144.615L187.285 144.613Z" fill="#03A679" fill-opacity="0.39"/>
<path d="M194.739 127.018C193.84 127.917 193.048 128.699 192.269 129.494C192.089 129.678 191.981 129.692 191.756 129.521C191.014 128.958 190.711 128.249 190.862 127.328C190.895 127.132 190.908 127.008 191.15 127.01C192.298 127.02 193.443 127.017 194.739 127.018Z" fill="#03A679" fill-opacity="0.39"/>
<path d="M177.019 144.74C177.021 143.443 177.021 142.312 177.026 141.179C177.026 141.07 177.001 140.949 177.131 140.876C177.367 140.742 178.679 140.913 178.887 141.111C179.49 141.682 179.502 142.258 178.923 142.838L177.02 144.741L177.019 144.74Z" fill="#03A679" fill-opacity="0.39"/>
<path d="M187.398 119.676C187.4 120.973 187.401 122.121 187.402 123.271C187.402 123.386 187.399 123.488 187.256 123.545C186.578 123.822 185.13 123.222 184.78 122.527C184.69 122.351 184.804 122.285 184.887 122.19C184.937 122.131 184.996 122.081 185.05 122.026C185.796 121.281 186.541 120.535 187.399 119.677L187.398 119.676Z" fill="#03A679" fill-opacity="0.39"/>
<path d="M169.756 137.318C170.602 136.472 171.402 135.672 172.203 134.871C172.28 134.794 172.35 134.694 172.491 134.735C172.791 134.823 173.555 135.868 173.561 136.205C173.571 136.996 173.189 137.391 172.415 137.39C171.588 137.389 170.762 137.387 169.935 137.383C169.902 137.383 169.869 137.359 169.755 137.317L169.756 137.318Z" fill="#03A679" fill-opacity="0.39"/>
<path d="M177.024 119.668C177.929 120.572 178.707 121.363 179.501 122.136C179.718 122.346 179.68 122.459 179.507 122.691C178.961 123.426 178.256 123.678 177.372 123.557C177.152 123.527 177.019 123.509 177.022 123.24C177.033 122.1 177.026 120.96 177.025 119.669L177.024 119.668Z" fill="#03A679" fill-opacity="0.39"/>
<path d="M169.692 127.02C170.987 127.018 172.135 127.015 173.283 127.014C173.398 127.014 173.499 127.017 173.557 127.159C173.832 127.843 173.233 129.288 172.539 129.636C172.361 129.724 172.298 129.61 172.202 129.528C172.143 129.477 172.093 129.419 172.038 129.364C171.293 128.619 170.547 127.873 169.692 127.018L169.692 127.02Z" fill="#03A679" fill-opacity="0.39"/>
<path d="M85.723 126.108C86.6131 125.869 87.4709 125.53 88.3353 125.217C88.6359 125.108 88.8072 125.16 89.0242 125.381C90.113 126.496 91.2201 127.592 92.3254 128.69C92.4552 128.82 92.5241 128.945 92.5223 129.136C92.5137 130.328 92.5125 131.52 92.5229 132.713C92.5247 132.938 92.4625 133.003 92.2357 133.001C91.0323 132.99 89.8289 132.993 88.6255 132.998C88.4737 132.999 88.3652 132.954 88.2585 132.846C87.0996 131.68 85.9382 130.517 84.7702 129.36C84.6403 129.231 84.6324 129.123 84.6897 128.964C84.9756 128.166 85.2524 127.365 85.5298 126.564C85.5712 126.445 85.5968 126.32 85.6304 126.198L85.7218 126.106L85.723 126.108Z" fill="#F6F6F6"/>
<path d="M109.087 126.198C109.333 127.098 109.674 127.966 109.99 128.841C110.09 129.12 110.037 129.278 109.835 129.476C108.716 130.575 107.609 131.688 106.505 132.803C106.364 132.945 106.225 133.002 106.027 133.001C104.845 132.992 103.663 132.99 102.481 133.002C102.254 133.004 102.193 132.939 102.195 132.715C102.206 131.522 102.203 130.329 102.197 129.137C102.196 128.963 102.244 128.838 102.369 128.713C103.521 127.57 104.67 126.424 105.81 125.27C105.956 125.123 106.074 125.116 106.26 125.179C107.172 125.488 108.066 125.853 108.996 126.108L109.088 126.199L109.087 126.198Z" fill="#F6F6F6"/>
<path d="M105.688 139.319C105.254 138.885 104.828 138.446 104.385 138.023C104.228 137.873 104.244 137.787 104.391 137.644C105.248 136.799 106.097 135.946 106.945 135.092C107.05 134.987 107.152 134.929 107.307 134.93C108.951 134.935 110.595 134.936 112.24 134.93C112.412 134.93 112.507 134.979 112.586 135.141C112.994 135.98 113.416 136.813 113.839 137.644C113.911 137.784 113.903 137.897 113.834 138.033C113.411 138.865 112.989 139.697 112.582 140.537C112.5 140.703 112.399 140.742 112.232 140.742C110.598 140.738 108.965 140.736 107.331 140.742C107.166 140.743 107.052 140.691 106.939 140.575C106.527 140.151 106.105 139.736 105.687 139.318L105.688 139.319Z" fill="#F6F6F6"/>
<path d="M95.8921 146.147C96.3256 145.713 96.7621 145.284 97.1894 144.845C97.312 144.718 97.3882 144.701 97.5223 144.836C98.3904 145.715 99.2658 146.588 100.142 147.459C100.235 147.551 100.263 147.648 100.263 147.773C100.26 149.428 100.258 151.082 100.264 152.738C100.264 152.902 100.208 152.987 100.063 153.058C99.225 153.47 98.391 153.89 97.5589 154.312C97.4223 154.382 97.3077 154.385 97.1681 154.314C96.3268 153.886 95.483 153.463 94.6357 153.046C94.4991 152.979 94.4522 152.897 94.4528 152.747C94.4576 151.082 94.4576 149.416 94.4522 147.75C94.4515 147.601 94.5204 147.514 94.6143 147.421C95.0417 146.997 95.466 146.571 95.8915 146.145L95.8921 146.147Z" fill="#F6F6F6"/>
<path d="M98.8165 129.533C98.391 129.958 97.9612 130.379 97.5424 130.812C97.4132 130.946 97.3339 130.974 97.1858 130.823C96.3268 129.95 95.4587 129.085 94.5881 128.223C94.4875 128.122 94.4522 128.02 94.4522 127.882C94.4552 126.238 94.457 124.594 94.4516 122.95C94.4509 122.775 94.5089 122.685 94.6674 122.607C95.4965 122.202 96.3189 121.786 97.1413 121.367C97.287 121.293 97.4083 121.281 97.5607 121.359C98.3916 121.783 99.2256 122.203 100.063 122.614C100.211 122.686 100.263 122.771 100.263 122.934C100.257 124.589 100.257 126.244 100.264 127.899C100.264 128.058 100.196 128.155 100.093 128.257C99.6645 128.68 99.2408 129.107 98.8153 129.533L98.8165 129.533Z" fill="#F6F6F6"/>
<path d="M89.0507 136.372C89.4841 136.805 89.9127 137.243 90.3522 137.669C90.4839 137.796 90.4833 137.873 90.3522 138.002C89.4805 138.862 88.6154 139.73 87.7528 140.6C87.654 140.699 87.5552 140.743 87.4144 140.742C85.7702 140.738 84.126 140.737 82.4819 140.743C82.3124 140.743 82.213 140.699 82.1332 140.535C81.7247 139.696 81.3047 138.863 80.8797 138.032C80.8011 137.879 80.8188 137.757 80.8919 137.613C81.3053 136.799 81.7198 135.987 82.1161 135.166C82.2075 134.977 82.3203 134.93 82.5136 134.93C84.1364 134.936 85.7586 134.936 87.3821 134.93C87.5449 134.93 87.6619 134.975 87.7765 135.093C88.1954 135.525 88.6251 135.947 89.0507 136.372Z" fill="#F6F6F6"/>
<path d="M108.197 144.565C108.768 145.136 109.333 145.71 109.911 146.274C110.053 146.411 110.092 146.525 110.022 146.719C109.71 147.577 109.412 148.44 109.118 149.304C109.064 149.463 108.98 149.547 108.822 149.6C107.957 149.893 107.095 150.192 106.236 150.502C106.057 150.567 105.948 150.538 105.816 150.404C104.665 149.244 103.508 148.088 102.349 146.936C102.241 146.828 102.197 146.72 102.198 146.568C102.202 145.352 102.206 144.137 102.196 142.922C102.194 142.716 102.26 142.672 102.453 142.673C103.668 142.681 104.884 142.681 106.099 142.673C106.268 142.672 106.377 142.74 106.488 142.852C107.055 143.427 107.626 143.995 108.197 144.565Z" fill="#F6F6F6"/>
<path d="M90.6316 148.67C90.0537 149.248 89.4715 149.822 88.9009 150.407C88.768 150.544 88.6558 150.564 88.4796 150.5C87.6213 150.191 86.7592 149.891 85.8948 149.598C85.7363 149.544 85.6521 149.463 85.5979 149.302C85.3053 148.438 85.0053 147.576 84.6956 146.717C84.6328 146.542 84.6493 146.431 84.7859 146.296C85.9472 145.145 87.1025 143.989 88.2547 142.829C88.362 142.722 88.4699 142.675 88.6217 142.676C89.8373 142.68 91.0523 142.682 92.2673 142.674C92.4624 142.673 92.5239 142.725 92.5227 142.926C92.5136 144.141 92.5148 145.357 92.5227 146.572C92.5239 146.741 92.4569 146.85 92.3447 146.961C91.7704 147.528 91.2022 148.099 90.6316 148.67Z" fill="#F6F6F6"/>
<path d="M95.3423 139.854C94.5126 139.422 94.448 138.693 94.426 137.849C94.4034 136.973 94.6625 136.369 95.2868 135.752C95.8989 135.147 96.4933 134.901 97.3547 134.897C98.2313 134.894 98.8343 135.145 99.4482 135.768C100.043 136.371 100.297 136.952 100.297 137.805C100.296 138.687 100.056 139.305 99.4213 139.929C98.8154 140.525 98.2301 140.887 97.3809 140.738C97.3705 140.736 97.359 140.737 97.3492 140.738C96.503 140.853 95.7739 140.686 95.3429 139.854L95.3423 139.854Z" fill="#F6F6F6"/>
<path d="M104.276 140.753C103.652 140.749 103.029 140.74 102.406 140.742C102.258 140.742 102.216 140.7 102.194 140.545C102.119 140.026 102.29 139.63 102.711 139.324C102.804 139.257 102.859 139.223 102.951 139.316C103.401 139.773 103.857 140.225 104.31 140.678C104.299 140.703 104.288 140.728 104.277 140.753L104.276 140.753Z" fill="#F6F6F6"/>
<path d="M100.196 144.778C99.7555 144.338 99.3153 143.899 98.8764 143.458C98.827 143.408 98.7502 143.369 98.7782 143.274C98.8276 143.105 99.4098 142.682 99.6 142.679C100.261 142.67 100.258 142.671 100.263 143.318C100.267 143.799 100.28 144.279 100.29 144.759C100.258 144.765 100.227 144.772 100.196 144.779L100.196 144.778Z" fill="#F6F6F6"/>
<path d="M104.365 134.936C103.862 135.439 103.419 135.876 102.983 136.321C102.883 136.424 102.822 136.432 102.696 136.336C102.281 136.021 102.112 135.625 102.196 135.109C102.215 135 102.222 134.93 102.357 134.931C102.999 134.937 103.64 134.935 104.365 134.936Z" fill="#F6F6F6"/>
<path d="M94.4527 144.849C94.454 144.123 94.454 143.491 94.457 142.857C94.457 142.796 94.443 142.729 94.5155 142.688C94.6478 142.613 95.3812 142.709 95.4977 142.819C95.8354 143.139 95.8421 143.461 95.5178 143.785L94.4534 144.85L94.4527 144.849Z" fill="#F6F6F6"/>
<path d="M100.258 130.829C100.26 131.555 100.26 132.197 100.261 132.84C100.261 132.904 100.259 132.961 100.179 132.993C99.7999 133.148 98.9897 132.812 98.794 132.424C98.744 132.325 98.8074 132.289 98.8538 132.235C98.8818 132.202 98.9147 132.174 98.9452 132.144C99.3622 131.727 99.7792 131.31 100.259 130.83L100.258 130.829Z" fill="#F6F6F6"/>
<path d="M90.3902 140.697C90.8632 140.224 91.3107 139.777 91.7588 139.329C91.8021 139.285 91.8411 139.229 91.9203 139.252C92.088 139.302 92.5153 139.886 92.5184 140.075C92.5241 140.517 92.3105 140.738 91.8777 140.738C91.4149 140.737 90.9528 140.736 90.4901 140.734C90.4718 140.734 90.4536 140.72 90.3895 140.697L90.3902 140.697Z" fill="#F6F6F6"/>
<path d="M94.456 130.824C94.962 131.33 95.3973 131.773 95.8417 132.205C95.963 132.323 95.9417 132.385 95.8448 132.515C95.5393 132.927 95.1449 133.068 94.6505 133C94.5273 132.983 94.453 132.973 94.4548 132.823C94.4609 132.185 94.4572 131.547 94.4566 130.825L94.456 130.824Z" fill="#F6F6F6"/>
<path d="M90.3543 134.937C91.0786 134.936 91.7211 134.934 92.3631 134.934C92.4277 134.934 92.4838 134.935 92.5161 135.015C92.6703 135.397 92.335 136.206 91.9467 136.4C91.8473 136.449 91.812 136.386 91.7583 136.34C91.7254 136.312 91.6974 136.279 91.6669 136.248C91.2499 135.831 90.8329 135.414 90.3543 134.936L90.3543 134.937Z" fill="#F6F6F6"/>
</svg>
