<svg width="59" height="43" viewBox="0 0 59 43" fill="none" xmlns="http://www.w3.org/2000/svg">
<path d="M34.0439 0.152853C38.9592 0.152853 43.8692 0.193057 48.7845 0.124134C49.9871 0.106903 50.6487 0.457266 51.1791 1.70364C53.5317 7.2118 55.9631 12.6798 58.4208 18.1362C58.8724 19.1356 58.8724 19.9283 58.4208 20.9277C55.9579 26.3784 53.5317 31.8521 51.1686 37.3545C50.675 38.5032 50.0816 38.8823 48.9368 38.8766C38.9802 38.8306 29.0236 38.8364 19.067 38.8708C18.1375 38.8708 17.481 38.5664 16.8299 37.8485C11.6152 32.0991 6.39538 26.3611 1.11774 20.6807C0.225009 19.7215 0.319534 19.1988 1.1545 18.2971C6.42163 12.6108 11.6573 6.88442 16.8561 1.12353C17.5808 0.31942 18.3423 0.129878 19.3033 0.135622C24.2186 0.170084 29.1286 0.152853 34.0439 0.152853Z" fill="#147CA6"/>
<path d="M16.1776 19.3262C16.1659 18.4121 16.2127 17.4922 16.3182 16.5664C16.4354 15.6289 16.6229 14.7324 16.8807 13.877C17.1502 13.0215 17.4901 12.2246 17.9002 11.4863C18.3104 10.7363 18.8084 10.0918 19.3944 9.55273C19.992 9.00195 20.6776 8.56836 21.451 8.25195C22.2245 7.93555 23.1034 7.77734 24.0877 7.77734C25.0721 7.77734 25.951 7.93555 26.7245 8.25195C27.4979 8.56836 28.1776 9.00195 28.7635 9.55273C29.3495 10.0918 29.8475 10.7363 30.2577 11.4863C30.6678 12.2246 31.0018 13.0215 31.2596 13.877C31.5174 14.7324 31.7049 15.623 31.8221 16.5488C31.9393 17.4746 31.9979 18.4004 31.9979 19.3262C31.9979 20.2402 31.9393 21.1602 31.8221 22.0859C31.7049 23.0117 31.5174 23.9023 31.2596 24.7578C31.0018 25.6133 30.6678 26.416 30.2577 27.166C29.8475 27.916 29.3495 28.5664 28.7635 29.1172C28.1776 29.668 27.4979 30.1016 26.7245 30.418C25.951 30.7344 25.0721 30.8926 24.0877 30.8926C23.1034 30.8926 22.2245 30.7344 21.451 30.418C20.6776 30.1016 19.992 29.6738 19.3944 29.1348C18.8084 28.584 18.3104 27.9395 17.9002 27.2012C17.4901 26.4512 17.1502 25.6484 16.8807 24.793C16.6229 23.9258 16.4354 23.0293 16.3182 22.1035C16.2127 21.1777 16.1659 20.252 16.1776 19.3262ZM21.0995 19.3262C21.0995 21.9629 21.3456 23.9082 21.8377 25.1621C22.3299 26.4043 23.0799 27.0254 24.0877 27.0254C25.1073 27.0254 25.8631 26.3984 26.3553 25.1445C26.8475 23.8789 27.0936 21.9395 27.0936 19.3262C27.0936 16.7012 26.8475 14.7559 26.3553 13.4902C25.8631 12.2246 25.1073 11.5918 24.0877 11.5918C23.0799 11.5918 22.3299 12.2188 21.8377 13.4727C21.3456 14.7266 21.0995 16.6777 21.0995 19.3262ZM35.3905 8.90234C36.0702 8.53906 36.8553 8.25781 37.7459 8.05859C38.6483 7.84766 39.5624 7.74219 40.4881 7.74219C41.4256 7.73047 42.3456 7.83008 43.2479 8.04102C44.1502 8.24023 44.953 8.56836 45.6561 9.02539C46.3709 9.4707 46.9452 10.0508 47.3788 10.7656C47.8124 11.4688 48.0292 12.3242 48.0292 13.332C48.0292 14.3281 47.7245 15.2832 47.1151 16.1973C46.5057 17.1113 45.5858 17.8906 44.3553 18.5352C45.8202 19.2031 46.8983 20.0176 47.5897 20.9785C48.2928 21.9395 48.6444 23.0938 48.6444 24.4414C48.6444 25.5898 48.4042 26.5801 47.9237 27.4121C47.4549 28.2324 46.828 28.9062 46.0428 29.4336C45.2694 29.9492 44.3846 30.3301 43.3885 30.5762C42.4042 30.8105 41.3905 30.9219 40.3475 30.9102C39.3163 30.8984 38.3026 30.7695 37.3065 30.5234C36.3104 30.2656 35.4256 29.9023 34.6522 29.4336L35.6717 26.2344C36.1053 26.5508 36.6151 26.791 37.201 26.9551C37.787 27.1191 38.3905 27.2129 39.0116 27.2363C39.6327 27.2598 40.242 27.2188 40.8397 27.1133C41.4374 27.0078 41.9706 26.8379 42.4393 26.6035C42.9081 26.3574 43.2889 26.0586 43.5819 25.707C43.8749 25.3438 44.0213 24.9219 44.0213 24.4414C44.0213 24.0195 43.8924 23.5977 43.6346 23.1758C43.3768 22.7422 42.9842 22.3555 42.4569 22.0156C41.9413 21.6758 41.285 21.3945 40.4881 21.1719C39.703 20.9492 38.7831 20.832 37.7284 20.8203L37.5526 17.5332C38.0917 17.4629 38.6893 17.3398 39.3456 17.1641C40.0135 16.9766 40.6405 16.7305 41.2264 16.4258C41.8241 16.1211 42.328 15.7637 42.7381 15.3535C43.16 14.9316 43.3885 14.4453 43.4237 13.8945C43.3768 13.3789 43.2303 12.9453 42.9842 12.5938C42.7381 12.2422 42.4276 11.9668 42.0526 11.7676C41.6776 11.5566 41.2557 11.4219 40.787 11.3633C40.3182 11.293 39.8377 11.2812 39.3456 11.3281C38.8651 11.3633 38.3905 11.4512 37.9217 11.5918C37.453 11.7324 37.037 11.9082 36.6737 12.1191L35.3905 8.90234Z" fill="white"/>
</svg>
