<svg width="59" height="43" viewBox="0 0 59 43" fill="none" xmlns="http://www.w3.org/2000/svg">
<path d="M34.0439 0.152853C38.9592 0.152853 43.8692 0.193057 48.7845 0.124134C49.9871 0.106903 50.6487 0.457266 51.1791 1.70364C53.5317 7.2118 55.9631 12.6798 58.4208 18.1362C58.8724 19.1356 58.8724 19.9283 58.4208 20.9277C55.9579 26.3784 53.5317 31.8521 51.1686 37.3545C50.675 38.5032 50.0816 38.8823 48.9368 38.8766C38.9802 38.8306 29.0236 38.8364 19.067 38.8708C18.1375 38.8708 17.481 38.5664 16.8299 37.8485C11.6152 32.0991 6.39538 26.3611 1.11774 20.6807C0.225009 19.7215 0.319534 19.1988 1.1545 18.2971C6.42163 12.6108 11.6573 6.88442 16.8561 1.12353C17.5808 0.31942 18.3423 0.129878 19.3033 0.135622C24.2186 0.170084 29.1286 0.152853 34.0439 0.152853Z" fill="#147CA6"/>
<path d="M16.1776 19.3262C16.1659 18.4121 16.2127 17.4922 16.3182 16.5664C16.4354 15.6289 16.6229 14.7324 16.8807 13.877C17.1502 13.0215 17.4901 12.2246 17.9002 11.4863C18.3104 10.7363 18.8084 10.0918 19.3944 9.55273C19.992 9.00195 20.6776 8.56836 21.451 8.25195C22.2245 7.93555 23.1034 7.77734 24.0877 7.77734C25.0721 7.77734 25.951 7.93555 26.7245 8.25195C27.4979 8.56836 28.1776 9.00195 28.7635 9.55273C29.3495 10.0918 29.8475 10.7363 30.2577 11.4863C30.6678 12.2246 31.0018 13.0215 31.2596 13.877C31.5174 14.7324 31.7049 15.623 31.8221 16.5488C31.9393 17.4746 31.9979 18.4004 31.9979 19.3262C31.9979 20.2402 31.9393 21.1602 31.8221 22.0859C31.7049 23.0117 31.5174 23.9023 31.2596 24.7578C31.0018 25.6133 30.6678 26.416 30.2577 27.166C29.8475 27.916 29.3495 28.5664 28.7635 29.1172C28.1776 29.668 27.4979 30.1016 26.7245 30.418C25.951 30.7344 25.0721 30.8926 24.0877 30.8926C23.1034 30.8926 22.2245 30.7344 21.451 30.418C20.6776 30.1016 19.992 29.6738 19.3944 29.1348C18.8084 28.584 18.3104 27.9395 17.9002 27.2012C17.4901 26.4512 17.1502 25.6484 16.8807 24.793C16.6229 23.9258 16.4354 23.0293 16.3182 22.1035C16.2127 21.1777 16.1659 20.252 16.1776 19.3262ZM21.0995 19.3262C21.0995 21.9629 21.3456 23.9082 21.8377 25.1621C22.3299 26.4043 23.0799 27.0254 24.0877 27.0254C25.1073 27.0254 25.8631 26.3984 26.3553 25.1445C26.8475 23.8789 27.0936 21.9395 27.0936 19.3262C27.0936 16.7012 26.8475 14.7559 26.3553 13.4902C25.8631 12.2246 25.1073 11.5918 24.0877 11.5918C23.0799 11.5918 22.3299 12.2188 21.8377 13.4727C21.3456 14.7266 21.0995 16.6777 21.0995 19.3262ZM43.0018 30.4707V25.4082H33.6502V21.2773L44.4256 7.86523H47.4667V21.0488H49.6112V25.4082H47.4667V30.4707H43.0018ZM43.0194 21.0488L43.0897 14.8438L37.9745 21.0488H43.0194Z" fill="white"/>
</svg>
