<svg width="59" height="43" viewBox="0 0 59 43" fill="none" xmlns="http://www.w3.org/2000/svg">
<path d="M34.0439 0.152853C38.9592 0.152853 43.8692 0.193057 48.7845 0.124134C49.9871 0.106903 50.6487 0.457266 51.1791 1.70364C53.5317 7.2118 55.9631 12.6798 58.4208 18.1362C58.8724 19.1356 58.8724 19.9283 58.4208 20.9277C55.9579 26.3784 53.5317 31.8521 51.1686 37.3545C50.675 38.5032 50.0816 38.8823 48.9368 38.8766C38.9802 38.8306 29.0236 38.8364 19.067 38.8708C18.1375 38.8708 17.481 38.5664 16.8299 37.8485C11.6152 32.0991 6.39538 26.3611 1.11774 20.6807C0.225009 19.7215 0.319534 19.1988 1.1545 18.2971C6.42163 12.6108 11.6573 6.88442 16.8561 1.12353C17.5808 0.31942 18.3423 0.129878 19.3033 0.135622C24.2186 0.170084 29.1286 0.152853 34.0439 0.152853Z" fill="#147CA6"/>
<path d="M16.1776 19.3262C16.1659 18.4121 16.2127 17.4922 16.3182 16.5664C16.4354 15.6289 16.6229 14.7324 16.8807 13.877C17.1502 13.0215 17.4901 12.2246 17.9002 11.4863C18.3104 10.7363 18.8084 10.0918 19.3944 9.55273C19.992 9.00195 20.6776 8.56836 21.451 8.25195C22.2245 7.93555 23.1034 7.77734 24.0877 7.77734C25.0721 7.77734 25.951 7.93555 26.7245 8.25195C27.4979 8.56836 28.1776 9.00195 28.7635 9.55273C29.3495 10.0918 29.8475 10.7363 30.2577 11.4863C30.6678 12.2246 31.0018 13.0215 31.2596 13.877C31.5174 14.7324 31.7049 15.623 31.8221 16.5488C31.9393 17.4746 31.9979 18.4004 31.9979 19.3262C31.9979 20.2402 31.9393 21.1602 31.8221 22.0859C31.7049 23.0117 31.5174 23.9023 31.2596 24.7578C31.0018 25.6133 30.6678 26.416 30.2577 27.166C29.8475 27.916 29.3495 28.5664 28.7635 29.1172C28.1776 29.668 27.4979 30.1016 26.7245 30.418C25.951 30.7344 25.0721 30.8926 24.0877 30.8926C23.1034 30.8926 22.2245 30.7344 21.451 30.418C20.6776 30.1016 19.992 29.6738 19.3944 29.1348C18.8084 28.584 18.3104 27.9395 17.9002 27.2012C17.4901 26.4512 17.1502 25.6484 16.8807 24.793C16.6229 23.9258 16.4354 23.0293 16.3182 22.1035C16.2127 21.1777 16.1659 20.252 16.1776 19.3262ZM21.0995 19.3262C21.0995 21.9629 21.3456 23.9082 21.8377 25.1621C22.3299 26.4043 23.0799 27.0254 24.0877 27.0254C25.1073 27.0254 25.8631 26.3984 26.3553 25.1445C26.8475 23.8789 27.0936 21.9395 27.0936 19.3262C27.0936 16.7012 26.8475 14.7559 26.3553 13.4902C25.8631 12.2246 25.1073 11.5918 24.0877 11.5918C23.0799 11.5918 22.3299 12.2188 21.8377 13.4727C21.3456 14.7266 21.0995 16.6777 21.0995 19.3262ZM34.5995 22.7012C34.5995 21.377 34.8163 20.0234 35.2499 18.6406C35.6952 17.2578 36.3221 15.9102 37.1307 14.5977C37.9393 13.2852 38.912 12.0488 40.0487 10.8887C41.1971 9.7168 42.4745 8.68555 43.8807 7.79492C44.0213 7.95898 44.1971 8.18164 44.4081 8.46289C44.619 8.73242 44.8358 9.01367 45.0584 9.30664C45.2811 9.58789 45.492 9.85742 45.6913 10.1152C45.9022 10.373 46.0604 10.5664 46.1659 10.6953C43.5526 12.3945 41.7245 14.2461 40.6815 16.25C40.951 16.1797 41.2381 16.127 41.5428 16.0918C41.8475 16.0449 42.1463 16.0215 42.4393 16.0215C43.3182 16.0215 44.1795 16.1797 45.0233 16.4961C45.8788 16.8125 46.6463 17.2812 47.326 17.9023C48.0057 18.5117 48.5506 19.2734 48.9608 20.1875C49.3827 21.1016 49.5936 22.1504 49.5936 23.334C49.5936 24.4355 49.4061 25.4492 49.0311 26.375C48.6678 27.2891 48.1522 28.0801 47.4842 28.748C46.828 29.416 46.0428 29.9375 45.1288 30.3125C44.2147 30.6758 43.2069 30.8574 42.1053 30.8574C40.8983 30.8574 39.826 30.6582 38.8885 30.2598C37.9627 29.8613 37.1776 29.3047 36.5331 28.5898C35.9002 27.8633 35.4198 27.002 35.0917 26.0059C34.7635 24.998 34.5995 23.8965 34.5995 22.7012ZM42.5272 26.709C42.9959 26.709 43.412 26.6035 43.7752 26.3926C44.1502 26.1816 44.4608 25.918 44.7069 25.6016C44.9647 25.2852 45.1581 24.9453 45.287 24.582C45.4276 24.2188 45.4979 23.8789 45.4979 23.5625C45.4393 23.0586 45.2811 22.6016 45.0233 22.1914C44.7655 21.7812 44.4432 21.4297 44.0565 21.1367C43.6815 20.832 43.2596 20.5977 42.7909 20.4336C42.3221 20.2695 41.8417 20.1875 41.3495 20.1875C40.9745 20.1875 40.5995 20.2402 40.2245 20.3457C39.8612 20.4512 39.5155 20.6152 39.1874 20.8379C39.0116 21.4707 38.953 22.1387 39.0116 22.8418C39.0819 23.5332 39.2577 24.1719 39.5389 24.7578C39.8202 25.332 40.2127 25.8066 40.7167 26.1816C41.2206 26.5566 41.8241 26.7324 42.5272 26.709Z" fill="white"/>
</svg>
