<svg width="49" height="81" viewBox="0 0 49 81" fill="none" xmlns="http://www.w3.org/2000/svg">
<path d="M0.0370739 34.1825C0.0370739 27.3845 0.0879114 20.5937 0.000757608 13.7957C-0.0210308 12.1325 0.422001 11.2174 1.99803 10.4839C8.96307 7.23013 15.8773 3.86745 22.777 0.468452C24.0407 -0.156151 25.0429 -0.156151 26.3067 0.468452C33.1991 3.87471 40.1206 7.23014 47.0783 10.4984C48.5309 11.1811 49.0103 12.0018 49.003 13.5851C48.9449 27.3554 48.9522 41.1257 48.9957 54.896C48.9957 56.1815 48.6108 57.0894 47.7029 57.99C40.4329 65.202 33.1773 72.4212 25.9944 79.7203C24.7815 80.955 24.1206 80.8243 22.9803 79.6695C15.7901 72.3849 8.5491 65.1439 1.26449 57.9537C0.247697 56.9514 0.00802353 55.8983 0.0152863 54.5692C0.0588632 47.7712 0.0370739 40.9804 0.0370739 34.1825Z" fill="#03A679"/>
<path d="M8.17773 38.3262C8.16602 37.4121 8.21289 36.4922 8.31836 35.5664C8.43555 34.6289 8.62305 33.7324 8.88086 32.877C9.15039 32.0215 9.49023 31.2246 9.90039 30.4863C10.3105 29.7363 10.8086 29.0918 11.3945 28.5527C11.9922 28.002 12.6777 27.5684 13.4512 27.252C14.2246 26.9355 15.1035 26.7773 16.0879 26.7773C17.0723 26.7773 17.9512 26.9355 18.7246 27.252C19.498 27.5684 20.1777 28.002 20.7637 28.5527C21.3496 29.0918 21.8477 29.7363 22.2578 30.4863C22.668 31.2246 23.002 32.0215 23.2598 32.877C23.5176 33.7324 23.7051 34.623 23.8223 35.5488C23.9395 36.4746 23.998 37.4004 23.998 38.3262C23.998 39.2402 23.9395 40.1602 23.8223 41.0859C23.7051 42.0117 23.5176 42.9023 23.2598 43.7578C23.002 44.6133 22.668 45.416 22.2578 46.166C21.8477 46.916 21.3496 47.5664 20.7637 48.1172C20.1777 48.668 19.498 49.1016 18.7246 49.418C17.9512 49.7344 17.0723 49.8926 16.0879 49.8926C15.1035 49.8926 14.2246 49.7344 13.4512 49.418C12.6777 49.1016 11.9922 48.6738 11.3945 48.1348C10.8086 47.584 10.3105 46.9395 9.90039 46.2012C9.49023 45.4512 9.15039 44.6484 8.88086 43.793C8.62305 42.9258 8.43555 42.0293 8.31836 41.1035C8.21289 40.1777 8.16602 39.252 8.17773 38.3262ZM13.0996 38.3262C13.0996 40.9629 13.3457 42.9082 13.8379 44.1621C14.3301 45.4043 15.0801 46.0254 16.0879 46.0254C17.1074 46.0254 17.8633 45.3984 18.3555 44.1445C18.8477 42.8789 19.0938 40.9395 19.0938 38.3262C19.0938 35.7012 18.8477 33.7559 18.3555 32.4902C17.8633 31.2246 17.1074 30.5918 16.0879 30.5918C15.0801 30.5918 14.3301 31.2188 13.8379 32.4727C13.3457 33.7266 13.0996 35.6777 13.0996 38.3262ZM33.1035 49.4707V32.1387C32.4707 32.5605 31.8027 33.0176 31.0996 33.5098C30.4082 34.002 29.7695 34.4473 29.1836 34.8457L27.7773 31.4883L32.9629 27.1465H37.8145V49.4707H33.1035Z" fill="white"/>
</svg>
