<svg width="49" height="81" viewBox="0 0 49 81" fill="none" xmlns="http://www.w3.org/2000/svg">
<path d="M0.0370739 34.1825C0.0370739 27.3845 0.0879114 20.5937 0.000757608 13.7957C-0.0210308 12.1325 0.422001 11.2174 1.99803 10.4839C8.96307 7.23013 15.8773 3.86745 22.777 0.468452C24.0407 -0.156151 25.0429 -0.156151 26.3067 0.468452C33.1991 3.87471 40.1206 7.23014 47.0783 10.4984C48.5309 11.1811 49.0103 12.0018 49.003 13.5851C48.9449 27.3554 48.9522 41.1257 48.9957 54.896C48.9957 56.1815 48.6108 57.0894 47.7029 57.99C40.4329 65.202 33.1773 72.4212 25.9944 79.7203C24.7815 80.955 24.1206 80.8243 22.9803 79.6695C15.7901 72.3849 8.5491 65.1439 1.26449 57.9537C0.247697 56.9514 0.00802353 55.8983 0.0152863 54.5692C0.0588632 47.7712 0.0370739 40.9804 0.0370739 34.1825Z" fill="#03A679"/>
<path d="M8.17773 38.3262C8.16602 37.4121 8.21289 36.4922 8.31836 35.5664C8.43555 34.6289 8.62305 33.7324 8.88086 32.877C9.15039 32.0215 9.49023 31.2246 9.90039 30.4863C10.3105 29.7363 10.8086 29.0918 11.3945 28.5527C11.9922 28.002 12.6777 27.5684 13.4512 27.252C14.2246 26.9355 15.1035 26.7773 16.0879 26.7773C17.0723 26.7773 17.9512 26.9355 18.7246 27.252C19.498 27.5684 20.1777 28.002 20.7637 28.5527C21.3496 29.0918 21.8477 29.7363 22.2578 30.4863C22.668 31.2246 23.002 32.0215 23.2598 32.877C23.5176 33.7324 23.7051 34.623 23.8223 35.5488C23.9395 36.4746 23.998 37.4004 23.998 38.3262C23.998 39.2402 23.9395 40.1602 23.8223 41.0859C23.7051 42.0117 23.5176 42.9023 23.2598 43.7578C23.002 44.6133 22.668 45.416 22.2578 46.166C21.8477 46.916 21.3496 47.5664 20.7637 48.1172C20.1777 48.668 19.498 49.1016 18.7246 49.418C17.9512 49.7344 17.0723 49.8926 16.0879 49.8926C15.1035 49.8926 14.2246 49.7344 13.4512 49.418C12.6777 49.1016 11.9922 48.6738 11.3945 48.1348C10.8086 47.584 10.3105 46.9395 9.90039 46.2012C9.49023 45.4512 9.15039 44.6484 8.88086 43.793C8.62305 42.9258 8.43555 42.0293 8.31836 41.1035C8.21289 40.1777 8.16602 39.252 8.17773 38.3262ZM13.0996 38.3262C13.0996 40.9629 13.3457 42.9082 13.8379 44.1621C14.3301 45.4043 15.0801 46.0254 16.0879 46.0254C17.1074 46.0254 17.8633 45.3984 18.3555 44.1445C18.8477 42.8789 19.0938 40.9395 19.0938 38.3262C19.0938 35.7012 18.8477 33.7559 18.3555 32.4902C17.8633 31.2246 17.1074 30.5918 16.0879 30.5918C15.0801 30.5918 14.3301 31.2188 13.8379 32.4727C13.3457 33.7266 13.0996 35.6777 13.0996 38.3262ZM41.5059 49.4707H27.3555L26.8457 45.7441C27.3496 45.2168 27.9121 44.6602 28.5332 44.0742C29.1543 43.4766 29.7812 42.8613 30.4141 42.2285C31.0586 41.5957 31.6855 40.9512 32.2949 40.2949C32.916 39.627 33.4727 38.959 33.9648 38.291C34.457 37.6113 34.8672 36.9434 35.1953 36.2871C35.5234 35.6191 35.7168 34.9629 35.7754 34.3184C35.7285 33.5918 35.5645 32.9941 35.2832 32.5254C35.0137 32.0449 34.668 31.6758 34.2461 31.418C33.8242 31.1602 33.3496 31.002 32.8223 30.9434C32.2949 30.8848 31.75 30.9141 31.1875 31.0312C30.625 31.1367 30.0684 31.3184 29.5176 31.5762C28.9785 31.8223 28.4863 32.1328 28.041 32.5078L26.4766 28.957C27.6602 28.1836 28.8203 27.6211 29.957 27.2695C31.0938 26.918 32.2715 26.7422 33.4902 26.7422C34.5918 26.7422 35.5938 26.9297 36.4961 27.3047C37.3984 27.6797 38.166 28.1895 38.7988 28.834C39.4434 29.4668 39.9414 30.2051 40.293 31.0488C40.6445 31.8809 40.8203 32.7598 40.8203 33.6855C40.8203 34.4707 40.6914 35.2324 40.4336 35.9707C40.1758 36.709 39.8242 37.4238 39.3789 38.1152C38.9453 38.8066 38.4473 39.4746 37.8848 40.1191C37.3223 40.7637 36.7305 41.3848 36.1094 41.9824C35.5 42.5801 34.8906 43.1484 34.2812 43.6875C33.6719 44.2266 33.1035 44.7422 32.5762 45.2344H41.5059V49.4707Z" fill="white"/>
</svg>
