<svg width="49" height="81" viewBox="0 0 49 81" fill="none" xmlns="http://www.w3.org/2000/svg">
<path d="M0.0370739 34.1825C0.0370739 27.3845 0.0879114 20.5937 0.000757608 13.7957C-0.0210308 12.1325 0.422001 11.2174 1.99803 10.4839C8.96307 7.23013 15.8773 3.86745 22.777 0.468452C24.0407 -0.156151 25.0429 -0.156151 26.3067 0.468452C33.1991 3.87471 40.1206 7.23014 47.0783 10.4984C48.5309 11.1811 49.0103 12.0018 49.003 13.5851C48.9449 27.3554 48.9522 41.1257 48.9957 54.896C48.9957 56.1815 48.6108 57.0894 47.7029 57.99C40.4329 65.202 33.1773 72.4212 25.9944 79.7203C24.7815 80.955 24.1206 80.8243 22.9803 79.6695C15.7901 72.3849 8.5491 65.1439 1.26449 57.9537C0.247697 56.9514 0.00802353 55.8983 0.0152863 54.5692C0.0588632 47.7712 0.0370739 40.9804 0.0370739 34.1825Z" fill="#03A679"/>
<path d="M8.17773 38.3262C8.16602 37.4121 8.21289 36.4922 8.31836 35.5664C8.43555 34.6289 8.62305 33.7324 8.88086 32.877C9.15039 32.0215 9.49023 31.2246 9.90039 30.4863C10.3105 29.7363 10.8086 29.0918 11.3945 28.5527C11.9922 28.002 12.6777 27.5684 13.4512 27.252C14.2246 26.9355 15.1035 26.7773 16.0879 26.7773C17.0723 26.7773 17.9512 26.9355 18.7246 27.252C19.498 27.5684 20.1777 28.002 20.7637 28.5527C21.3496 29.0918 21.8477 29.7363 22.2578 30.4863C22.668 31.2246 23.002 32.0215 23.2598 32.877C23.5176 33.7324 23.7051 34.623 23.8223 35.5488C23.9395 36.4746 23.998 37.4004 23.998 38.3262C23.998 39.2402 23.9395 40.1602 23.8223 41.0859C23.7051 42.0117 23.5176 42.9023 23.2598 43.7578C23.002 44.6133 22.668 45.416 22.2578 46.166C21.8477 46.916 21.3496 47.5664 20.7637 48.1172C20.1777 48.668 19.498 49.1016 18.7246 49.418C17.9512 49.7344 17.0723 49.8926 16.0879 49.8926C15.1035 49.8926 14.2246 49.7344 13.4512 49.418C12.6777 49.1016 11.9922 48.6738 11.3945 48.1348C10.8086 47.584 10.3105 46.9395 9.90039 46.2012C9.49023 45.4512 9.15039 44.6484 8.88086 43.793C8.62305 42.9258 8.43555 42.0293 8.31836 41.1035C8.21289 40.1777 8.16602 39.252 8.17773 38.3262ZM13.0996 38.3262C13.0996 40.9629 13.3457 42.9082 13.8379 44.1621C14.3301 45.4043 15.0801 46.0254 16.0879 46.0254C17.1074 46.0254 17.8633 45.3984 18.3555 44.1445C18.8477 42.8789 19.0938 40.9395 19.0938 38.3262C19.0938 35.7012 18.8477 33.7559 18.3555 32.4902C17.8633 31.2246 17.1074 30.5918 16.0879 30.5918C15.0801 30.5918 14.3301 31.2188 13.8379 32.4727C13.3457 33.7266 13.0996 35.6777 13.0996 38.3262ZM27.3906 27.9023C28.0703 27.5391 28.8555 27.2578 29.7461 27.0586C30.6484 26.8477 31.5625 26.7422 32.4883 26.7422C33.4258 26.7305 34.3457 26.8301 35.248 27.041C36.1504 27.2402 36.9531 27.5684 37.6562 28.0254C38.3711 28.4707 38.9453 29.0508 39.3789 29.7656C39.8125 30.4688 40.0293 31.3242 40.0293 32.332C40.0293 33.3281 39.7246 34.2832 39.1152 35.1973C38.5059 36.1113 37.5859 36.8906 36.3555 37.5352C37.8203 38.2031 38.8984 39.0176 39.5898 39.9785C40.293 40.9395 40.6445 42.0938 40.6445 43.4414C40.6445 44.5898 40.4043 45.5801 39.9238 46.4121C39.4551 47.2324 38.8281 47.9062 38.043 48.4336C37.2695 48.9492 36.3848 49.3301 35.3887 49.5762C34.4043 49.8105 33.3906 49.9219 32.3477 49.9102C31.3164 49.8984 30.3027 49.7695 29.3066 49.5234C28.3105 49.2656 27.4258 48.9023 26.6523 48.4336L27.6719 45.2344C28.1055 45.5508 28.6152 45.791 29.2012 45.9551C29.7871 46.1191 30.3906 46.2129 31.0117 46.2363C31.6328 46.2598 32.2422 46.2188 32.8398 46.1133C33.4375 46.0078 33.9707 45.8379 34.4395 45.6035C34.9082 45.3574 35.2891 45.0586 35.582 44.707C35.875 44.3438 36.0215 43.9219 36.0215 43.4414C36.0215 43.0195 35.8926 42.5977 35.6348 42.1758C35.377 41.7422 34.9844 41.3555 34.457 41.0156C33.9414 40.6758 33.2852 40.3945 32.4883 40.1719C31.7031 39.9492 30.7832 39.832 29.7285 39.8203L29.5527 36.5332C30.0918 36.4629 30.6895 36.3398 31.3457 36.1641C32.0137 35.9766 32.6406 35.7305 33.2266 35.4258C33.8242 35.1211 34.3281 34.7637 34.7383 34.3535C35.1602 33.9316 35.3887 33.4453 35.4238 32.8945C35.377 32.3789 35.2305 31.9453 34.9844 31.5938C34.7383 31.2422 34.4277 30.9668 34.0527 30.7676C33.6777 30.5566 33.2559 30.4219 32.7871 30.3633C32.3184 30.293 31.8379 30.2812 31.3457 30.3281C30.8652 30.3633 30.3906 30.4512 29.9219 30.5918C29.4531 30.7324 29.0371 30.9082 28.6738 31.1191L27.3906 27.9023Z" fill="white"/>
</svg>
