<svg width="46" height="81" viewBox="0 0 46 81" fill="none" xmlns="http://www.w3.org/2000/svg">
<path d="M-2.96293 34.1825C-2.96293 27.3845 -2.91209 20.5937 -2.99924 13.7957C-3.02103 12.1325 -2.578 11.2174 -1.00197 10.4839C5.96307 7.23013 12.8773 3.86745 19.777 0.468452C21.0407 -0.156151 22.0429 -0.156151 23.3067 0.468452C30.1991 3.87471 37.1206 7.23014 44.0783 10.4984C45.5309 11.1811 46.0103 12.0018 46.003 13.5851C45.9449 27.3554 45.9522 41.1257 45.9957 54.896C45.9957 56.1815 45.6108 57.0894 44.7029 57.99C37.4329 65.202 30.1773 72.4212 22.9944 79.7203C21.7815 80.955 21.1206 80.8243 19.9803 79.6695C12.7901 72.3849 5.5491 65.1439 -1.73551 57.9537C-2.7523 56.9514 -2.99198 55.8983 -2.98471 54.5692C-2.94114 47.7712 -2.96293 40.9804 -2.96293 34.1825Z" fill="#03A679"/>
<path d="M5.17773 38.3262C5.16602 37.4121 5.21289 36.4922 5.31836 35.5664C5.43555 34.6289 5.62305 33.7324 5.88086 32.877C6.15039 32.0215 6.49023 31.2246 6.90039 30.4863C7.31055 29.7363 7.80859 29.0918 8.39453 28.5527C8.99219 28.002 9.67773 27.5684 10.4512 27.252C11.2246 26.9355 12.1035 26.7773 13.0879 26.7773C14.0723 26.7773 14.9512 26.9355 15.7246 27.252C16.498 27.5684 17.1777 28.002 17.7637 28.5527C18.3496 29.0918 18.8477 29.7363 19.2578 30.4863C19.668 31.2246 20.002 32.0215 20.2598 32.877C20.5176 33.7324 20.7051 34.623 20.8223 35.5488C20.9395 36.4746 20.998 37.4004 20.998 38.3262C20.998 39.2402 20.9395 40.1602 20.8223 41.0859C20.7051 42.0117 20.5176 42.9023 20.2598 43.7578C20.002 44.6133 19.668 45.416 19.2578 46.166C18.8477 46.916 18.3496 47.5664 17.7637 48.1172C17.1777 48.668 16.498 49.1016 15.7246 49.418C14.9512 49.7344 14.0723 49.8926 13.0879 49.8926C12.1035 49.8926 11.2246 49.7344 10.4512 49.418C9.67773 49.1016 8.99219 48.6738 8.39453 48.1348C7.80859 47.584 7.31055 46.9395 6.90039 46.2012C6.49023 45.4512 6.15039 44.6484 5.88086 43.793C5.62305 42.9258 5.43555 42.0293 5.31836 41.1035C5.21289 40.1777 5.16602 39.252 5.17773 38.3262ZM10.0996 38.3262C10.0996 40.9629 10.3457 42.9082 10.8379 44.1621C11.3301 45.4043 12.0801 46.0254 13.0879 46.0254C14.1074 46.0254 14.8633 45.3984 15.3555 44.1445C15.8477 42.8789 16.0938 40.9395 16.0938 38.3262C16.0938 35.7012 15.8477 33.7559 15.3555 32.4902C14.8633 31.2246 14.1074 30.5918 13.0879 30.5918C12.0801 30.5918 11.3301 31.2188 10.8379 32.4727C10.3457 33.7266 10.0996 35.6777 10.0996 38.3262ZM25.7969 45.8145C26.7344 46.1543 27.6719 46.3066 28.6094 46.2715C29.5586 46.2363 30.4082 46.0605 31.1582 45.7441C31.9082 45.416 32.5117 44.9707 32.9688 44.4082C33.4375 43.8457 33.6719 43.2129 33.6719 42.5098C33.6719 41.6895 33.4785 41.0508 33.0918 40.5938C32.7051 40.125 32.1836 39.7793 31.5273 39.5566C30.8711 39.3223 30.1035 39.1816 29.2246 39.1348C28.3574 39.0762 27.4316 39.0469 26.4473 39.0469H25.2695L25.2344 27.1465H37.0645V31.207H29.3125V34.793C30.7422 34.8164 32.0195 35.0039 33.1445 35.3555C34.2695 35.707 35.2188 36.2109 35.9922 36.8672C36.7773 37.5234 37.3691 38.3262 37.7676 39.2754C38.1777 40.2246 38.377 41.3027 38.3652 42.5098C38.377 43.6699 38.166 44.6895 37.7324 45.5684C37.2988 46.4355 36.7129 47.1738 35.9746 47.7832C35.2363 48.3809 34.3867 48.8555 33.4258 49.207C32.4766 49.5469 31.4863 49.7695 30.4551 49.875C29.4238 49.9688 28.3926 49.9453 27.3613 49.8047C26.3301 49.6641 25.375 49.418 24.4961 49.0664L25.7969 45.8145Z" fill="white"/>
</svg>
